<ttFont>
<head>
    <!-- Most of this table will be recalculated by the compiler -->
    <tableVersion value="1.0"/>
    <fontRevision value="2.202"/>
    <checkSumAdjustment value="0x8f398e96"/>
    <magicNumber value="0x5f0f3cf5"/>
    <flags value="00000000 00011011"/>
    <unitsPerEm value="1000"/>
    <created value="Sat Jan 23 04:29:45 2016"/>
    <modified value="Thu Mar 10 20:57:06 2016"/>
    <xMin value="-94"/>
    <yMin value="-277"/>
    <xMax value="1069"/>
    <yMax value="1077"/>
    <macStyle value="00000000 00000000"/>
    <lowestRecPPEM value="5"/>
    <fontDirectionHint value="2"/>
    <indexToLocFormat value="0"/>
    <glyphDataFormat value="0"/>
  </head>
    <TTGlyph name=".notdef" xMin="0" yMin="-200" xMax="500" yMax="800">
      <contour>
        <pt x="0" y="800" on="1"/>
        <pt x="500" y="800" on="1"/>
        <pt x="500" y="-200" on="1"/>
        <pt x="0" y="-200" on="1"/>
      </contour>
      <contour>
        <pt x="250" y="360" on="1"/>
        <pt x="429" y="750" on="1"/>
        <pt x="71" y="750" on="1"/>
      </contour>
      <contour>
        <pt x="222" y="300" on="1"/>
        <pt x="50" y="676" on="1"/>
        <pt x="50" y="-76" on="1"/>
      </contour>
      <contour>
        <pt x="278" y="300" on="1"/>
        <pt x="450" y="-76" on="1"/>
        <pt x="450" y="676" on="1"/>
      </contour>
      <contour>
        <pt x="71" y="-150" on="1"/>
        <pt x="429" y="-150" on="1"/>
        <pt x="250" y="240" on="1"/>
      </contour>
    </TTGlyph>
    <TTGlyph name="A" xMin="12" yMin="-9" xMax="660" yMax="727">
      <contour>
        <pt x="227" y="727" on="1"/>
        <pt x="451" y="727" on="1"/>
        <pt x="660" y="22" on="1"/>
        <pt x="464" y="-9" on="1"/>
        <pt x="425" y="135" on="1"/>
        <pt x="234" y="135" on="1"/>
        <pt x="199" y="0" on="1"/>
        <pt x="12" y="0" on="1"/>
      </contour>
      <contour>
        <pt x="269" y="284" on="1"/>
        <pt x="389" y="284" on="1"/>
        <pt x="329" y="520" on="1"/>
      </contour>
    </TTGlyph>
    <TTGlyph name="A.flat" xMin="12" yMin="0" xMax="666" yMax="727">
      <contour>
        <pt x="227" y="727" on="1"/>
        <pt x="451" y="727" on="1"/>
        <pt x="666" y="0" on="1"/>
        <pt x="462" y="0" on="1"/>
        <pt x="425" y="135" on="1"/>
        <pt x="234" y="135" on="1"/>
        <pt x="199" y="0" on="1"/>
        <pt x="12" y="0" on="1"/>
      </contour>
      <contour>
        <pt x="269" y="284" on="1"/>
        <pt x="389" y="284" on="1"/>
        <pt x="329" y="520" on="1"/>
      </contour>
    </TTGlyph>
    <TTGlyph name="AE" xMin="6" yMin="0" xMax="850" yMax="725">
      <contour>
        <pt x="294" y="725" on="1"/>
        <pt x="842" y="725" on="1"/>
        <pt x="842" y="569" on="1"/>
        <pt x="602" y="569" on="1"/>
        <pt x="602" y="450" on="1"/>
        <pt x="778" y="450" on="1"/>
        <pt x="804" y="293" on="1"/>
        <pt x="602" y="293" on="1"/>
        <pt x="602" y="156" on="1"/>
        <pt x="850" y="156" on="1"/>
        <pt x="850" y="0" on="1"/>
        <pt x="415" y="0" on="1"/>
        <pt x="415" y="135" on="1"/>
        <pt x="252" y="135" on="1"/>
        <pt x="202" y="0" on="1"/>
        <pt x="6" y="0" on="1"/>
      </contour>
      <contour>
        <pt x="415" y="284" on="1"/>
        <pt x="415" y="592" on="1"/>
        <pt x="304" y="284" on="1"/>
      </contour>
    </TTGlyph>
    <TTGlyph name="AE.flat" xMin="6" yMin="0" xMax="850" yMax="725">
      <contour>
        <pt x="294" y="725" on="1"/>
        <pt x="842" y="725" on="1"/>
        <pt x="842" y="569" on="1"/>
        <pt x="602" y="569" on="1"/>
        <pt x="602" y="450" on="1"/>
        <pt x="791" y="450" on="1"/>
        <pt x="791" y="293" on="1"/>
        <pt x="602" y="293" on="1"/>
        <pt x="602" y="156" on="1"/>
        <pt x="850" y="156" on="1"/>
        <pt x="850" y="0" on="1"/>
        <pt x="415" y="0" on="1"/>
        <pt x="415" y="135" on="1"/>
        <pt x="252" y="135" on="1"/>
        <pt x="202" y="0" on="1"/>
        <pt x="6" y="0" on="1"/>
      </contour>
      <contour>
        <pt x="415" y="284" on="1"/>
        <pt x="415" y="592" on="1"/>
        <pt x="304" y="284" on="1"/>
      </contour>
    </TTGlyph>
    <TTGlyph name="AEacute" xMin="6" yMin="0" xMax="850" yMax="927">
      <component glyphName="acute.cap" x="323" y="201" flags="0x4"/>
      <component glyphName="AE" x="0" y="0" flags="0x4"/>
    </TTGlyph>
    <TTGlyph name="AEacute.flat" xMin="6" yMin="0" xMax="850" yMax="927">
      <component glyphName="acute.cap" x="323" y="201" flags="0x4"/>
      <component glyphName="AE.flat" x="0" y="0" flags="0x4"/>
    </TTGlyph>
    <TTGlyph name="Aacute" xMin="12" yMin="-9" xMax="660" yMax="936">
      <component glyphName="A" x="0" y="0" flags="0x204"/>
      <component glyphName="acute.cap" x="170" y="210" flags="0x4"/>
    </TTGlyph>
    <TTGlyph name="Aacute.flat" xMin="12" yMin="0" xMax="666" yMax="936">
      <component glyphName="acute.cap" x="169" y="210" flags="0x4"/>
      <component glyphName="A.flat" x="0" y="0" flags="0x4"/>
    </TTGlyph>
    <TTGlyph name="Abreve" xMin="12" yMin="-9" xMax="660" yMax="937">
      <component glyphName="A" x="0" y="0" flags="0x204"/>
      <component glyphName="breve.cap" x="118" y="210" flags="0x4"/>
    </TTGlyph>
    <TTGlyph name="Abreve.flat" xMin="12" yMin="0" xMax="666" yMax="937">
      <component glyphName="breve.cap" x="116" y="210" flags="0x4"/>
      <component glyphName="A.flat" x="0" y="0" flags="0x4"/>
    </TTGlyph>
    <TTGlyph name="Acircumflex" xMin="12" yMin="-9" xMax="660" yMax="933">
      <component glyphName="A" x="0" y="0" flags="0x4"/>
      <component glyphName="circumflex.cap" x="117" y="209" flags="0x4"/>
    </TTGlyph>
    <TTGlyph name="Acircumflex.flat" xMin="12" yMin="0" xMax="666" yMax="933">
      <component glyphName="A.flat" x="0" y="0" flags="0x4"/>
      <component glyphName="circumflex.cap" x="115" y="209" flags="0x4"/>
    </TTGlyph>
    <TTGlyph name="Adieresis" xMin="12" yMin="-9" xMax="660" yMax="922">
      <component glyphName="A" x="0" y="0" flags="0x204"/>
      <component glyphName="dieresis.cap" x="118" y="210" flags="0x4"/>
    </TTGlyph>
    <TTGlyph name="Adieresis.flat" xMin="12" yMin="0" xMax="666" yMax="922">
      <component glyphName="dieresis.cap" x="116" y="210" flags="0x4"/>
      <component glyphName="A.flat" x="0" y="0" flags="0x4"/>
    </TTGlyph>
    <TTGlyph name="Agrave" xMin="12" yMin="-9" xMax="660" yMax="936">
      <component glyphName="A" x="0" y="0" flags="0x204"/>
      <component glyphName="grave.cap" x="65" y="210" flags="0x4"/>
    </TTGlyph>
    <TTGlyph name="Agrave.flat" xMin="12" yMin="0" xMax="666" yMax="936">
      <component glyphName="grave.cap" x="63" y="210" flags="0x4"/>
      <component glyphName="A.flat" x="0" y="0" flags="0x4"/>
    </TTGlyph>
    <TTGlyph name="Amacron" xMin="12" yMin="-9" xMax="660" yMax="902">
      <component glyphName="A" x="0" y="0" flags="0x204"/>
      <component glyphName="macron.cap" x="118" y="210" flags="0x4"/>
    </TTGlyph>
    <TTGlyph name="Amacron.flat" xMin="12" yMin="0" xMax="666" yMax="902">
      <component glyphName="macron.cap" x="116" y="210" flags="0x4"/>
      <component glyphName="A.flat" x="0" y="0" flags="0x4"/>
    </TTGlyph>
    <TTGlyph name="Aogonek" xMin="12" yMin="-213" xMax="660" yMax="727">
      <contour>
        <pt x="227" y="727" on="1"/>
        <pt x="451" y="727" on="1"/>
        <pt x="660" y="22" on="1"/>
        <pt x="579" y="9" on="1"/>
        <pt x="570" y="-6" on="1"/>
        <pt x="554" y="-33" on="0"/>
        <pt x="536" y="-69" on="0"/>
        <pt x="536" y="-85" on="1"/>
        <pt x="536" y="-100" on="0"/>
        <pt x="555" y="-119" on="0"/>
        <pt x="578" y="-119" on="1"/>
        <pt x="592" y="-119" on="0"/>
        <pt x="614" y="-115" on="0"/>
        <pt x="629" y="-111" on="1"/>
        <pt x="629" y="-191" on="1"/>
        <pt x="600" y="-202" on="0"/>
        <pt x="550" y="-213" on="0"/>
        <pt x="521" y="-213" on="1"/>
        <pt x="469" y="-213" on="0"/>
        <pt x="411" y="-168" on="0"/>
        <pt x="411" y="-123" on="1"/>
        <pt x="411" y="-97" on="0"/>
        <pt x="437" y="-42" on="0"/>
        <pt x="464" y="-7" on="1"/>
        <pt x="425" y="135" on="1"/>
        <pt x="234" y="135" on="1"/>
        <pt x="199" y="0" on="1"/>
        <pt x="12" y="0" on="1"/>
      </contour>
      <contour>
        <pt x="269" y="284" on="1"/>
        <pt x="389" y="284" on="1"/>
        <pt x="329" y="520" on="1"/>
      </contour>
    </TTGlyph>
    <TTGlyph name="Aogonek.flat" xMin="12" yMin="-213" xMax="666" yMax="727">
      <contour>
        <pt x="622" y="-191" on="1"/>
        <pt x="593" y="-202" on="0"/>
        <pt x="543" y="-213" on="0"/>
        <pt x="514" y="-213" on="1"/>
        <pt x="462" y="-213" on="0"/>
        <pt x="404" y="-168" on="0"/>
        <pt x="404" y="-123" on="1"/>
        <pt x="404" y="-95" on="0"/>
        <pt x="434" y="-35" on="0"/>
        <pt x="463" y="0" on="1"/>
        <pt x="425" y="135" on="1"/>
        <pt x="234" y="135" on="1"/>
        <pt x="199" y="0" on="1"/>
        <pt x="12" y="0" on="1"/>
        <pt x="227" y="727" on="1"/>
        <pt x="451" y="727" on="1"/>
        <pt x="666" y="0" on="1"/>
        <pt x="567" y="0" on="1"/>
        <pt x="563" y="-6" on="1"/>
        <pt x="547" y="-33" on="0"/>
        <pt x="529" y="-69" on="0"/>
        <pt x="529" y="-85" on="1"/>
        <pt x="529" y="-100" on="0"/>
        <pt x="548" y="-119" on="0"/>
        <pt x="571" y="-119" on="1"/>
        <pt x="585" y="-119" on="0"/>
        <pt x="607" y="-115" on="0"/>
        <pt x="622" y="-111" on="1"/>
      </contour>
      <contour>
        <pt x="269" y="284" on="1"/>
        <pt x="389" y="284" on="1"/>
        <pt x="329" y="520" on="1"/>
      </contour>
    </TTGlyph>
    <TTGlyph name="Aring" xMin="12" yMin="-9" xMax="661" yMax="904">
      <contour>
        <pt x="483" y="786" on="1"/>
        <pt x="483" y="739" on="0"/>
        <pt x="456" y="711" on="1"/>
        <pt x="661" y="22" on="1"/>
        <pt x="465" y="-9" on="1"/>
        <pt x="426" y="135" on="1"/>
        <pt x="234" y="135" on="1"/>
        <pt x="199" y="0" on="1"/>
        <pt x="12" y="0" on="1"/>
        <pt x="222" y="709" on="1"/>
        <pt x="194" y="740" on="0"/>
        <pt x="194" y="786" on="1"/>
        <pt x="194" y="840" on="0"/>
        <pt x="270" y="904" on="0"/>
        <pt x="338" y="904" on="1"/>
        <pt x="407" y="904" on="0"/>
        <pt x="483" y="840" on="0"/>
      </contour>
      <contour>
        <pt x="270" y="284" on="1"/>
        <pt x="389" y="284" on="1"/>
        <pt x="329" y="520" on="1"/>
      </contour>
      <contour>
        <pt x="388" y="786" on="1"/>
        <pt x="388" y="811" on="0"/>
        <pt x="363" y="842" on="0"/>
        <pt x="338" y="842" on="1"/>
        <pt x="313" y="842" on="0"/>
        <pt x="288" y="811" on="0"/>
        <pt x="288" y="786" on="1"/>
        <pt x="288" y="760" on="0"/>
        <pt x="313" y="730" on="0"/>
        <pt x="338" y="730" on="1"/>
        <pt x="363" y="730" on="0"/>
        <pt x="388" y="760" on="0"/>
      </contour>
    </TTGlyph>
    <TTGlyph name="Aring.flat" xMin="12" yMin="0" xMax="667" yMax="904">
      <contour>
        <pt x="483" y="786" on="1"/>
        <pt x="483" y="739" on="0"/>
        <pt x="456" y="711" on="1"/>
        <pt x="667" y="0" on="1"/>
        <pt x="463" y="0" on="1"/>
        <pt x="426" y="135" on="1"/>
        <pt x="234" y="135" on="1"/>
        <pt x="199" y="0" on="1"/>
        <pt x="12" y="0" on="1"/>
        <pt x="222" y="709" on="1"/>
        <pt x="194" y="740" on="0"/>
        <pt x="194" y="786" on="1"/>
        <pt x="194" y="840" on="0"/>
        <pt x="270" y="904" on="0"/>
        <pt x="338" y="904" on="1"/>
        <pt x="407" y="904" on="0"/>
        <pt x="483" y="840" on="0"/>
      </contour>
      <contour>
        <pt x="270" y="284" on="1"/>
        <pt x="389" y="284" on="1"/>
        <pt x="329" y="520" on="1"/>
      </contour>
      <contour>
        <pt x="388" y="786" on="1"/>
        <pt x="388" y="811" on="0"/>
        <pt x="363" y="842" on="0"/>
        <pt x="338" y="842" on="1"/>
        <pt x="313" y="842" on="0"/>
        <pt x="288" y="811" on="0"/>
        <pt x="288" y="786" on="1"/>
        <pt x="288" y="760" on="0"/>
        <pt x="313" y="730" on="0"/>
        <pt x="338" y="730" on="1"/>
        <pt x="363" y="730" on="0"/>
        <pt x="388" y="760" on="0"/>
      </contour>
    </TTGlyph>
    <TTGlyph name="Aringacute" xMin="12" yMin="-9" xMax="661" yMax="1077">
      <contour>
        <pt x="483" y="786" on="1"/>
        <pt x="483" y="739" on="0"/>
        <pt x="456" y="711" on="1"/>
        <pt x="661" y="22" on="1"/>
        <pt x="465" y="-9" on="1"/>
        <pt x="426" y="135" on="1"/>
        <pt x="234" y="135" on="1"/>
        <pt x="199" y="0" on="1"/>
        <pt x="12" y="0" on="1"/>
        <pt x="222" y="709" on="1"/>
        <pt x="194" y="740" on="0"/>
        <pt x="194" y="786" on="1"/>
        <pt x="194" y="840" on="0"/>
        <pt x="270" y="904" on="0"/>
        <pt x="338" y="904" on="1"/>
        <pt x="407" y="904" on="0"/>
        <pt x="483" y="840" on="0"/>
      </contour>
      <contour>
        <pt x="270" y="284" on="1"/>
        <pt x="389" y="284" on="1"/>
        <pt x="329" y="520" on="1"/>
      </contour>
      <contour>
        <pt x="388" y="786" on="1"/>
        <pt x="388" y="811" on="0"/>
        <pt x="363" y="842" on="0"/>
        <pt x="338" y="842" on="1"/>
        <pt x="313" y="842" on="0"/>
        <pt x="288" y="811" on="0"/>
        <pt x="288" y="786" on="1"/>
        <pt x="288" y="760" on="0"/>
        <pt x="313" y="730" on="0"/>
        <pt x="338" y="730" on="1"/>
        <pt x="363" y="730" on="0"/>
        <pt x="388" y="760" on="0"/>
      </contour>
      <contour>
        <pt x="386" y="918" on="1"/>
        <pt x="277" y="918" on="1"/>
        <pt x="329" y="1077" on="1"/>
        <pt x="537" y="1043" on="1"/>
      </contour>
    </TTGlyph>
    <TTGlyph name="Aringacute.flat" xMin="12" yMin="0" xMax="667" yMax="1077">
      <contour>
        <pt x="483" y="786" on="1"/>
        <pt x="483" y="739" on="0"/>
        <pt x="456" y="711" on="1"/>
        <pt x="667" y="0" on="1"/>
        <pt x="463" y="0" on="1"/>
        <pt x="426" y="135" on="1"/>
        <pt x="234" y="135" on="1"/>
        <pt x="199" y="0" on="1"/>
        <pt x="12" y="0" on="1"/>
        <pt x="222" y="709" on="1"/>
        <pt x="194" y="740" on="0"/>
        <pt x="194" y="786" on="1"/>
        <pt x="194" y="840" on="0"/>
        <pt x="270" y="904" on="0"/>
        <pt x="338" y="904" on="1"/>
        <pt x="407" y="904" on="0"/>
        <pt x="483" y="840" on="0"/>
      </contour>
      <contour>
        <pt x="270" y="284" on="1"/>
        <pt x="389" y="284" on="1"/>
        <pt x="329" y="520" on="1"/>
      </contour>
      <contour>
        <pt x="388" y="786" on="1"/>
        <pt x="388" y="811" on="0"/>
        <pt x="363" y="842" on="0"/>
        <pt x="338" y="842" on="1"/>
        <pt x="313" y="842" on="0"/>
        <pt x="288" y="811" on="0"/>
        <pt x="288" y="786" on="1"/>
        <pt x="288" y="760" on="0"/>
        <pt x="313" y="730" on="0"/>
        <pt x="338" y="730" on="1"/>
        <pt x="363" y="730" on="0"/>
        <pt x="388" y="760" on="0"/>
      </contour>
      <contour>
        <pt x="386" y="918" on="1"/>
        <pt x="277" y="918" on="1"/>
        <pt x="329" y="1077" on="1"/>
        <pt x="537" y="1043" on="1"/>
      </contour>
    </TTGlyph>
    <TTGlyph name="Atilde" xMin="12" yMin="-9" xMax="660" yMax="947">
      <component glyphName="A" x="0" y="0" flags="0x204"/>
      <component glyphName="tilde.cap" x="121" y="210" flags="0x4"/>
    </TTGlyph>
    <TTGlyph name="Atilde.flat" xMin="12" yMin="0" xMax="666" yMax="947">
      <component glyphName="tilde.cap" x="119" y="210" flags="0x4"/>
      <component glyphName="A.flat" x="0" y="0" flags="0x4"/>
    </TTGlyph>
    <TTGlyph name="B" xMin="56" yMin="0" xMax="569" yMax="725">
      <contour>
        <pt x="569" y="208" on="1"/>
        <pt x="569" y="155" on="0"/>
        <pt x="530" y="77" on="0"/>
        <pt x="457" y="25" on="0"/>
        <pt x="353" y="0" on="0"/>
        <pt x="289" y="0" on="1"/>
        <pt x="56" y="0" on="1"/>
        <pt x="56" y="725" on="1"/>
        <pt x="294" y="725" on="1"/>
        <pt x="423" y="725" on="0"/>
        <pt x="548" y="629" on="0"/>
        <pt x="548" y="539" on="1"/>
        <pt x="548" y="481" on="0"/>
        <pt x="490" y="403" on="0"/>
        <pt x="446" y="383" on="1"/>
        <pt x="503" y="362" on="0"/>
        <pt x="569" y="281" on="0"/>
      </contour>
      <contour>
        <pt x="367" y="513" on="1"/>
        <pt x="367" y="547" on="0"/>
        <pt x="329" y="587" on="0"/>
        <pt x="284" y="587" on="1"/>
        <pt x="244" y="587" on="1"/>
        <pt x="244" y="434" on="1"/>
        <pt x="283" y="434" on="1"/>
        <pt x="325" y="434" on="0"/>
        <pt x="367" y="477" on="0"/>
      </contour>
      <contour>
        <pt x="381" y="222" on="1"/>
        <pt x="381" y="308" on="0"/>
        <pt x="281" y="308" on="1"/>
        <pt x="244" y="308" on="1"/>
        <pt x="244" y="137" on="1"/>
        <pt x="283" y="137" on="1"/>
        <pt x="330" y="137" on="0"/>
        <pt x="381" y="180" on="0"/>
      </contour>
    </TTGlyph>
    <TTGlyph name="C" xMin="36" yMin="-12" xMax="541" yMax="736">
      <contour>
        <pt x="541" y="36" on="1"/>
        <pt x="499" y="14" on="0"/>
        <pt x="412" y="-12" on="0"/>
        <pt x="355" y="-12" on="1"/>
        <pt x="278" y="-12" on="0"/>
        <pt x="159" y="38" on="0"/>
        <pt x="78" y="134" on="0"/>
        <pt x="36" y="273" on="0"/>
        <pt x="36" y="361" on="1"/>
        <pt x="36" y="448" on="0"/>
        <pt x="80" y="586" on="0"/>
        <pt x="163" y="684" on="0"/>
        <pt x="284" y="736" on="0"/>
        <pt x="361" y="736" on="1"/>
        <pt x="413" y="736" on="0"/>
        <pt x="496" y="715" on="0"/>
        <pt x="532" y="695" on="1"/>
        <pt x="506" y="523" on="1"/>
        <pt x="474" y="544" on="0"/>
        <pt x="415" y="569" on="0"/>
        <pt x="379" y="569" on="1"/>
        <pt x="312" y="569" on="0"/>
        <pt x="233" y="466" on="0"/>
        <pt x="233" y="362" on="1"/>
        <pt x="233" y="258" on="0"/>
        <pt x="314" y="154" on="0"/>
        <pt x="383" y="154" on="1"/>
        <pt x="417" y="154" on="0"/>
        <pt x="480" y="176" on="0"/>
        <pt x="515" y="198" on="1"/>
      </contour>
    </TTGlyph>
    <TTGlyph name="Cacute" xMin="36" yMin="-12" xMax="541" yMax="936">
      <component glyphName="C" x="0" y="0" flags="0x204"/>
      <component glyphName="acute.cap" x="171" y="210" flags="0x4"/>
    </TTGlyph>
    <TTGlyph name="Ccaron" xMin="36" yMin="-12" xMax="541" yMax="934">
      <component glyphName="C" x="0" y="0" flags="0x204"/>
      <component glyphName="caron.cap" x="119" y="210" flags="0x4"/>
    </TTGlyph>
    <TTGlyph name="Ccedilla" xMin="36" yMin="-191" xMax="541" yMax="736">
      <component glyphName="C" x="0" y="0" flags="0x204"/>
      <component glyphName="cedilla.cap" x="104" y="-5" flags="0x4"/>
    </TTGlyph>
    <TTGlyph name="Cdotaccent" xMin="36" yMin="-12" xMax="541" yMax="922">
      <component glyphName="dotaccent.cap" x="118" y="210" flags="0x4"/>
      <component glyphName="C" x="0" y="0" flags="0x4"/>
    </TTGlyph>
    <TTGlyph name="D" xMin="56" yMin="0" xMax="641" yMax="725">
      <contour>
        <pt x="641" y="363" on="1"/>
        <pt x="641" y="277" on="0"/>
        <pt x="594" y="142" on="0"/>
        <pt x="504" y="49" on="0"/>
        <pt x="370" y="0" on="0"/>
        <pt x="283" y="0" on="1"/>
        <pt x="56" y="0" on="1"/>
        <pt x="56" y="725" on="1"/>
        <pt x="284" y="725" on="1"/>
        <pt x="374" y="725" on="0"/>
        <pt x="508" y="675" on="0"/>
        <pt x="597" y="582" on="0"/>
        <pt x="641" y="448" on="0"/>
      </contour>
      <contour>
        <pt x="442" y="362" on="1"/>
        <pt x="442" y="420" on="0"/>
        <pt x="420" y="500" on="0"/>
        <pt x="378" y="550" on="0"/>
        <pt x="318" y="572" on="0"/>
        <pt x="281" y="572" on="1"/>
        <pt x="251" y="572" on="1"/>
        <pt x="251" y="153" on="1"/>
        <pt x="282" y="153" on="1"/>
        <pt x="320" y="153" on="0"/>
        <pt x="379" y="175" on="0"/>
        <pt x="420" y="224" on="0"/>
        <pt x="442" y="304" on="0"/>
      </contour>
    </TTGlyph>
    <TTGlyph name="Dcaron" xMin="56" yMin="0" xMax="641" yMax="925">
      <component glyphName="caron.cap" x="102" y="201" flags="0x4"/>
      <component glyphName="D" x="0" y="0" flags="0x4"/>
    </TTGlyph>
    <TTGlyph name="Dcroat" xMin="10" yMin="0" xMax="669" yMax="725">
      <component glyphName="Eth" x="0" y="0" flags="0x4"/>
    </TTGlyph>
    <TTGlyph name="Dcroat.flat" xMin="19" yMin="0" xMax="669" yMax="725">
      <component glyphName="Eth.flat" x="0" y="0" flags="0x4"/>
    </TTGlyph>
    <TTGlyph name="E" xMin="56" yMin="0" xMax="496" yMax="725">
      <contour>
        <pt x="56" y="0" on="1"/>
        <pt x="56" y="725" on="1"/>
        <pt x="488" y="725" on="1"/>
        <pt x="488" y="569" on="1"/>
        <pt x="248" y="569" on="1"/>
        <pt x="248" y="450" on="1"/>
        <pt x="424" y="450" on="1"/>
        <pt x="450" y="293" on="1"/>
        <pt x="248" y="293" on="1"/>
        <pt x="248" y="156" on="1"/>
        <pt x="496" y="156" on="1"/>
        <pt x="496" y="0" on="1"/>
      </contour>
    </TTGlyph>
    <TTGlyph name="E.flat" xMin="56" yMin="0" xMax="496" yMax="725">
      <contour>
        <pt x="56" y="0" on="1"/>
        <pt x="56" y="725" on="1"/>
        <pt x="488" y="725" on="1"/>
        <pt x="488" y="569" on="1"/>
        <pt x="248" y="569" on="1"/>
        <pt x="248" y="450" on="1"/>
        <pt x="437" y="450" on="1"/>
        <pt x="437" y="293" on="1"/>
        <pt x="248" y="293" on="1"/>
        <pt x="248" y="156" on="1"/>
        <pt x="496" y="156" on="1"/>
        <pt x="496" y="0" on="1"/>
      </contour>
    </TTGlyph>
    <TTGlyph name="Eacute" xMin="56" yMin="0" xMax="496" yMax="927">
      <component glyphName="acute.cap" x="108" y="201" flags="0x4"/>
      <component glyphName="E" x="0" y="0" flags="0x4"/>
    </TTGlyph>
    <TTGlyph name="Eacute.flat" xMin="56" yMin="0" xMax="496" yMax="927">
      <component glyphName="E.flat" x="0" y="0" flags="0x204"/>
      <component glyphName="acute.cap" x="108" y="201" flags="0x4"/>
    </TTGlyph>
    <TTGlyph name="Ebreve" xMin="56" yMin="0" xMax="496" yMax="928">
      <component glyphName="breve.cap" x="55" y="201" flags="0x4"/>
      <component glyphName="E" x="0" y="0" flags="0x4"/>
    </TTGlyph>
    <TTGlyph name="Ebreve.flat" xMin="56" yMin="0" xMax="496" yMax="928">
      <component glyphName="breve.cap" x="55" y="201" flags="0x4"/>
      <component glyphName="E.flat" x="0" y="0" flags="0x4"/>
    </TTGlyph>
    <TTGlyph name="Ecaron" xMin="56" yMin="0" xMax="496" yMax="925">
      <component glyphName="caron.cap" x="56" y="201" flags="0x4"/>
      <component glyphName="E" x="0" y="0" flags="0x4"/>
    </TTGlyph>
    <TTGlyph name="Ecaron.flat" xMin="56" yMin="0" xMax="496" yMax="925">
      <component glyphName="E.flat" x="0" y="0" flags="0x204"/>
      <component glyphName="caron.cap" x="56" y="201" flags="0x4"/>
    </TTGlyph>
    <TTGlyph name="Ecircumflex" xMin="56" yMin="0" xMax="496" yMax="925">
      <component glyphName="E" x="0" y="0" flags="0x204"/>
      <component glyphName="circumflex.cap" x="54" y="201" flags="0x4"/>
    </TTGlyph>
    <TTGlyph name="Ecircumflex.flat" xMin="56" yMin="0" xMax="496" yMax="925">
      <component glyphName="E.flat" x="0" y="0" flags="0x204"/>
      <component glyphName="circumflex.cap" x="54" y="201" flags="0x4"/>
    </TTGlyph>
    <TTGlyph name="Edieresis" xMin="56" yMin="0" xMax="496" yMax="913">
      <component glyphName="dieresis.cap" x="55" y="201" flags="0x4"/>
      <component glyphName="E" x="0" y="0" flags="0x4"/>
    </TTGlyph>
    <TTGlyph name="Edieresis.flat" xMin="56" yMin="0" xMax="496" yMax="913">
      <component glyphName="E.flat" x="0" y="0" flags="0x204"/>
      <component glyphName="dieresis.cap" x="55" y="201" flags="0x4"/>
    </TTGlyph>
    <TTGlyph name="Edotaccent" xMin="56" yMin="0" xMax="496" yMax="913">
      <component glyphName="dotaccent.cap" x="55" y="201" flags="0x4"/>
      <component glyphName="E" x="0" y="0" flags="0x4"/>
    </TTGlyph>
    <TTGlyph name="Edotaccent.flat" xMin="56" yMin="0" xMax="496" yMax="913">
      <component glyphName="dotaccent.cap" x="55" y="201" flags="0x4"/>
      <component glyphName="E.flat" x="0" y="0" flags="0x4"/>
    </TTGlyph>
    <TTGlyph name="Egrave" xMin="56" yMin="0" xMax="496" yMax="927">
      <component glyphName="grave.cap" x="2" y="201" flags="0x4"/>
      <component glyphName="E" x="0" y="0" flags="0x4"/>
    </TTGlyph>
    <TTGlyph name="Egrave.flat" xMin="56" yMin="0" xMax="496" yMax="927">
      <component glyphName="grave.cap" x="2" y="201" flags="0x4"/>
      <component glyphName="E.flat" x="0" y="0" flags="0x4"/>
    </TTGlyph>
    <TTGlyph name="Emacron" xMin="56" yMin="0" xMax="496" yMax="893">
      <component glyphName="macron.cap" x="55" y="201" flags="0x4"/>
      <component glyphName="E" x="0" y="0" flags="0x4"/>
    </TTGlyph>
    <TTGlyph name="Emacron.flat" xMin="56" yMin="0" xMax="496" yMax="893">
      <component glyphName="E.flat" x="0" y="0" flags="0x204"/>
      <component glyphName="macron.cap" x="55" y="201" flags="0x4"/>
    </TTGlyph>
    <TTGlyph name="Eogonek" xMin="56" yMin="-213" xMax="502" yMax="725">
      <contour>
        <pt x="502" y="-191" on="1"/>
        <pt x="473" y="-202" on="0"/>
        <pt x="423" y="-213" on="0"/>
        <pt x="394" y="-213" on="1"/>
        <pt x="342" y="-213" on="0"/>
        <pt x="284" y="-168" on="0"/>
        <pt x="284" y="-123" on="1"/>
        <pt x="284" y="-95" on="0"/>
        <pt x="314" y="-35" on="0"/>
        <pt x="343" y="0" on="1"/>
        <pt x="56" y="0" on="1"/>
        <pt x="56" y="725" on="1"/>
        <pt x="488" y="725" on="1"/>
        <pt x="488" y="569" on="1"/>
        <pt x="248" y="569" on="1"/>
        <pt x="248" y="450" on="1"/>
        <pt x="424" y="450" on="1"/>
        <pt x="450" y="293" on="1"/>
        <pt x="248" y="293" on="1"/>
        <pt x="248" y="156" on="1"/>
        <pt x="496" y="156" on="1"/>
        <pt x="496" y="0" on="1"/>
        <pt x="447" y="0" on="1"/>
        <pt x="443" y="-6" on="1"/>
        <pt x="427" y="-33" on="0"/>
        <pt x="409" y="-69" on="0"/>
        <pt x="409" y="-85" on="1"/>
        <pt x="409" y="-100" on="0"/>
        <pt x="428" y="-119" on="0"/>
        <pt x="451" y="-119" on="1"/>
        <pt x="465" y="-119" on="0"/>
        <pt x="487" y="-115" on="0"/>
        <pt x="502" y="-111" on="1"/>
        <pt x="502" y="-191" on="1"/>
      </contour>
    </TTGlyph>
    <TTGlyph name="Eogonek.flat" xMin="56" yMin="-213" xMax="502" yMax="725">
      <contour>
        <pt x="502" y="-191" on="1"/>
        <pt x="473" y="-202" on="0"/>
        <pt x="423" y="-213" on="0"/>
        <pt x="394" y="-213" on="1"/>
        <pt x="342" y="-213" on="0"/>
        <pt x="284" y="-168" on="0"/>
        <pt x="284" y="-123" on="1"/>
        <pt x="284" y="-95" on="0"/>
        <pt x="314" y="-35" on="0"/>
        <pt x="343" y="0" on="1"/>
        <pt x="56" y="0" on="1"/>
        <pt x="56" y="725" on="1"/>
        <pt x="488" y="725" on="1"/>
        <pt x="488" y="569" on="1"/>
        <pt x="248" y="569" on="1"/>
        <pt x="248" y="450" on="1"/>
        <pt x="437" y="450" on="1"/>
        <pt x="437" y="293" on="1"/>
        <pt x="248" y="293" on="1"/>
        <pt x="248" y="156" on="1"/>
        <pt x="496" y="156" on="1"/>
        <pt x="496" y="0" on="1"/>
        <pt x="447" y="0" on="1"/>
        <pt x="443" y="-6" on="1"/>
        <pt x="427" y="-33" on="0"/>
        <pt x="409" y="-69" on="0"/>
        <pt x="409" y="-85" on="1"/>
        <pt x="409" y="-100" on="0"/>
        <pt x="428" y="-119" on="0"/>
        <pt x="451" y="-119" on="1"/>
        <pt x="465" y="-119" on="0"/>
        <pt x="487" y="-115" on="0"/>
        <pt x="502" y="-111" on="1"/>
        <pt x="502" y="-191" on="1"/>
      </contour>
    </TTGlyph>
    <TTGlyph name="Eth" xMin="10" yMin="0" xMax="669" yMax="725">
      <contour>
        <pt x="669" y="363" on="1"/>
        <pt x="669" y="191" on="0"/>
        <pt x="486" y="0" on="0"/>
        <pt x="311" y="0" on="1"/>
        <pt x="85" y="0" on="1"/>
        <pt x="85" y="290" on="1"/>
        <pt x="34" y="290" on="1"/>
        <pt x="10" y="449" on="1"/>
        <pt x="85" y="449" on="1"/>
        <pt x="85" y="725" on="1"/>
        <pt x="313" y="725" on="1"/>
        <pt x="403" y="725" on="0"/>
        <pt x="536" y="675" on="0"/>
        <pt x="625" y="582" on="0"/>
        <pt x="669" y="448" on="0"/>
      </contour>
      <contour>
        <pt x="470" y="362" on="1"/>
        <pt x="470" y="420" on="0"/>
        <pt x="448" y="500" on="0"/>
        <pt x="406" y="550" on="0"/>
        <pt x="347" y="572" on="0"/>
        <pt x="310" y="572" on="1"/>
        <pt x="277" y="572" on="1"/>
        <pt x="277" y="445" on="1"/>
        <pt x="376" y="445" on="1"/>
        <pt x="376" y="294" on="1"/>
        <pt x="277" y="294" on="1"/>
        <pt x="277" y="153" on="1"/>
        <pt x="310" y="153" on="1"/>
        <pt x="348" y="153" on="0"/>
        <pt x="407" y="175" on="0"/>
        <pt x="448" y="224" on="0"/>
        <pt x="470" y="304" on="0"/>
      </contour>
    </TTGlyph>
    <TTGlyph name="Eth.flat" xMin="19" yMin="0" xMax="669" yMax="725">
      <contour>
        <pt x="669" y="363" on="1"/>
        <pt x="669" y="191" on="0"/>
        <pt x="486" y="0" on="0"/>
        <pt x="311" y="0" on="1"/>
        <pt x="85" y="0" on="1"/>
        <pt x="85" y="290" on="1"/>
        <pt x="19" y="290" on="1"/>
        <pt x="19" y="449" on="1"/>
        <pt x="85" y="449" on="1"/>
        <pt x="85" y="725" on="1"/>
        <pt x="313" y="725" on="1"/>
        <pt x="403" y="725" on="0"/>
        <pt x="536" y="675" on="0"/>
        <pt x="625" y="582" on="0"/>
        <pt x="669" y="448" on="0"/>
      </contour>
      <contour>
        <pt x="470" y="362" on="1"/>
        <pt x="470" y="420" on="0"/>
        <pt x="448" y="500" on="0"/>
        <pt x="406" y="550" on="0"/>
        <pt x="347" y="572" on="0"/>
        <pt x="310" y="572" on="1"/>
        <pt x="277" y="572" on="1"/>
        <pt x="277" y="445" on="1"/>
        <pt x="376" y="445" on="1"/>
        <pt x="376" y="294" on="1"/>
        <pt x="277" y="294" on="1"/>
        <pt x="277" y="153" on="1"/>
        <pt x="310" y="153" on="1"/>
        <pt x="348" y="153" on="0"/>
        <pt x="407" y="175" on="0"/>
        <pt x="448" y="224" on="0"/>
        <pt x="470" y="304" on="0"/>
      </contour>
    </TTGlyph>
    <TTGlyph name="Euro" xMin="21" yMin="-13" xMax="592" yMax="730">
      <contour>
        <pt x="27" y="484" on="1"/>
        <pt x="110" y="484" on="1"/>
        <pt x="122" y="540" on="0"/>
        <pt x="172" y="631" on="0"/>
        <pt x="245" y="695" on="0"/>
        <pt x="344" y="730" on="0"/>
        <pt x="406" y="730" on="1"/>
        <pt x="460" y="730" on="0"/>
        <pt x="545" y="711" on="0"/>
        <pt x="580" y="693" on="1"/>
        <pt x="556" y="541" on="1"/>
        <pt x="524" y="560" on="0"/>
        <pt x="464" y="580" on="0"/>
        <pt x="428" y="580" on="1"/>
        <pt x="375" y="580" on="0"/>
        <pt x="310" y="531" on="0"/>
        <pt x="295" y="484" on="1"/>
        <pt x="480" y="484" on="1"/>
        <pt x="494" y="402" on="1"/>
        <pt x="280" y="402" on="1"/>
        <pt x="279" y="391" on="0"/>
        <pt x="279" y="370" on="0"/>
        <pt x="279" y="359" on="1"/>
        <pt x="279" y="351" on="0"/>
        <pt x="279" y="333" on="0"/>
        <pt x="280" y="325" on="1"/>
        <pt x="488" y="325" on="1"/>
        <pt x="488" y="244" on="1"/>
        <pt x="292" y="244" on="1"/>
        <pt x="307" y="189" on="0"/>
        <pt x="379" y="139" on="0"/>
        <pt x="438" y="139" on="1"/>
        <pt x="475" y="139" on="0"/>
        <pt x="535" y="155" on="0"/>
        <pt x="568" y="171" on="1"/>
        <pt x="592" y="30" on="1"/>
        <pt x="552" y="10" on="0"/>
        <pt x="463" y="-13" on="0"/>
        <pt x="409" y="-13" on="1"/>
        <pt x="275" y="-13" on="0"/>
        <pt x="127" y="122" on="0"/>
        <pt x="106" y="244" on="1"/>
        <pt x="33" y="244" on="1"/>
        <pt x="21" y="325" on="1"/>
        <pt x="98" y="325" on="1"/>
        <pt x="97" y="333" on="0"/>
        <pt x="97" y="350" on="0"/>
        <pt x="97" y="358" on="1"/>
        <pt x="97" y="369" on="0"/>
        <pt x="97" y="391" on="0"/>
        <pt x="98" y="402" on="1"/>
        <pt x="27" y="402" on="1"/>
      </contour>
    </TTGlyph>
    <TTGlyph name="Euro.flat" xMin="27" yMin="-13" xMax="592" yMax="730">
      <contour>
        <pt x="27" y="484" on="1"/>
        <pt x="110" y="484" on="1"/>
        <pt x="122" y="540" on="0"/>
        <pt x="172" y="631" on="0"/>
        <pt x="245" y="695" on="0"/>
        <pt x="344" y="730" on="0"/>
        <pt x="406" y="730" on="1"/>
        <pt x="460" y="730" on="0"/>
        <pt x="545" y="711" on="0"/>
        <pt x="580" y="693" on="1"/>
        <pt x="556" y="541" on="1"/>
        <pt x="524" y="560" on="0"/>
        <pt x="464" y="580" on="0"/>
        <pt x="428" y="580" on="1"/>
        <pt x="375" y="580" on="0"/>
        <pt x="310" y="531" on="0"/>
        <pt x="295" y="484" on="1"/>
        <pt x="488" y="484" on="1"/>
        <pt x="488" y="402" on="1"/>
        <pt x="280" y="402" on="1"/>
        <pt x="279" y="391" on="0"/>
        <pt x="279" y="370" on="0"/>
        <pt x="279" y="359" on="1"/>
        <pt x="279" y="351" on="0"/>
        <pt x="279" y="333" on="0"/>
        <pt x="280" y="325" on="1"/>
        <pt x="488" y="325" on="1"/>
        <pt x="488" y="244" on="1"/>
        <pt x="292" y="244" on="1"/>
        <pt x="307" y="189" on="0"/>
        <pt x="379" y="139" on="0"/>
        <pt x="438" y="139" on="1"/>
        <pt x="475" y="139" on="0"/>
        <pt x="535" y="155" on="0"/>
        <pt x="568" y="171" on="1"/>
        <pt x="592" y="30" on="1"/>
        <pt x="552" y="10" on="0"/>
        <pt x="463" y="-13" on="0"/>
        <pt x="409" y="-13" on="1"/>
        <pt x="275" y="-13" on="0"/>
        <pt x="127" y="122" on="0"/>
        <pt x="106" y="244" on="1"/>
        <pt x="27" y="244" on="1"/>
        <pt x="27" y="325" on="1"/>
        <pt x="98" y="325" on="1"/>
        <pt x="97" y="333" on="0"/>
        <pt x="97" y="350" on="0"/>
        <pt x="97" y="358" on="1"/>
        <pt x="97" y="369" on="0"/>
        <pt x="97" y="391" on="0"/>
        <pt x="98" y="402" on="1"/>
        <pt x="27" y="402" on="1"/>
      </contour>
    </TTGlyph>
    <TTGlyph name="Euro.tab" xMin="17" yMin="-10" xMax="508" yMax="731">
      <contour>
        <pt x="23" y="483" on="1"/>
        <pt x="92" y="483" on="1"/>
        <pt x="112" y="599" on="0"/>
        <pt x="237" y="731" on="0"/>
        <pt x="349" y="731" on="1"/>
        <pt x="396" y="731" on="0"/>
        <pt x="466" y="713" on="0"/>
        <pt x="498" y="696" on="1"/>
        <pt x="474" y="554" on="1"/>
        <pt x="445" y="574" on="0"/>
        <pt x="396" y="592" on="0"/>
        <pt x="359" y="592" on="1"/>
        <pt x="314" y="592" on="0"/>
        <pt x="263" y="534" on="0"/>
        <pt x="252" y="483" on="1"/>
        <pt x="418" y="483" on="1"/>
        <pt x="431" y="402" on="1"/>
        <pt x="242" y="402" on="1"/>
        <pt x="241" y="392" on="0"/>
        <pt x="241" y="371" on="0"/>
        <pt x="241" y="360" on="1"/>
        <pt x="241" y="352" on="0"/>
        <pt x="241" y="335" on="0"/>
        <pt x="242" y="327" on="1"/>
        <pt x="424" y="327" on="1"/>
        <pt x="424" y="245" on="1"/>
        <pt x="250" y="245" on="1"/>
        <pt x="261" y="188" on="0"/>
        <pt x="319" y="128" on="0"/>
        <pt x="375" y="128" on="1"/>
        <pt x="410" y="128" on="0"/>
        <pt x="456" y="144" on="0"/>
        <pt x="486" y="162" on="1"/>
        <pt x="508" y="30" on="1"/>
        <pt x="475" y="12" on="0"/>
        <pt x="397" y="-10" on="0"/>
        <pt x="347" y="-10" on="1"/>
        <pt x="228" y="-10" on="0"/>
        <pt x="105" y="122" on="0"/>
        <pt x="89" y="245" on="1"/>
        <pt x="30" y="245" on="1"/>
        <pt x="17" y="327" on="1"/>
        <pt x="82" y="327" on="1"/>
        <pt x="82" y="359" on="1"/>
        <pt x="82" y="370" on="0"/>
        <pt x="82" y="391" on="0"/>
        <pt x="83" y="402" on="1"/>
        <pt x="23" y="402" on="1"/>
      </contour>
    </TTGlyph>
    <TTGlyph name="Euro.tab_flat" xMin="23" yMin="-10" xMax="508" yMax="731">
      <contour>
        <pt x="23" y="483" on="1"/>
        <pt x="92" y="483" on="1"/>
        <pt x="112" y="599" on="0"/>
        <pt x="237" y="731" on="0"/>
        <pt x="349" y="731" on="1"/>
        <pt x="396" y="731" on="0"/>
        <pt x="466" y="713" on="0"/>
        <pt x="498" y="696" on="1"/>
        <pt x="474" y="554" on="1"/>
        <pt x="445" y="574" on="0"/>
        <pt x="396" y="592" on="0"/>
        <pt x="359" y="592" on="1"/>
        <pt x="314" y="592" on="0"/>
        <pt x="263" y="534" on="0"/>
        <pt x="252" y="483" on="1"/>
        <pt x="424" y="483" on="1"/>
        <pt x="424" y="402" on="1"/>
        <pt x="242" y="402" on="1"/>
        <pt x="241" y="392" on="0"/>
        <pt x="241" y="371" on="0"/>
        <pt x="241" y="360" on="1"/>
        <pt x="241" y="352" on="0"/>
        <pt x="241" y="335" on="0"/>
        <pt x="242" y="327" on="1"/>
        <pt x="424" y="327" on="1"/>
        <pt x="424" y="245" on="1"/>
        <pt x="250" y="245" on="1"/>
        <pt x="261" y="188" on="0"/>
        <pt x="319" y="128" on="0"/>
        <pt x="375" y="128" on="1"/>
        <pt x="410" y="128" on="0"/>
        <pt x="456" y="144" on="0"/>
        <pt x="486" y="162" on="1"/>
        <pt x="508" y="30" on="1"/>
        <pt x="475" y="12" on="0"/>
        <pt x="397" y="-10" on="0"/>
        <pt x="347" y="-10" on="1"/>
        <pt x="228" y="-10" on="0"/>
        <pt x="105" y="122" on="0"/>
        <pt x="89" y="245" on="1"/>
        <pt x="23" y="245" on="1"/>
        <pt x="23" y="327" on="1"/>
        <pt x="82" y="327" on="1"/>
        <pt x="82" y="359" on="1"/>
        <pt x="82" y="370" on="0"/>
        <pt x="82" y="391" on="0"/>
        <pt x="83" y="402" on="1"/>
        <pt x="23" y="402" on="1"/>
      </contour>
    </TTGlyph>
    <TTGlyph name="F" xMin="56" yMin="0" xMax="471" yMax="725">
      <contour>
        <pt x="250" y="561" on="1"/>
        <pt x="250" y="430" on="1"/>
        <pt x="406" y="430" on="1"/>
        <pt x="433" y="266" on="1"/>
        <pt x="250" y="266" on="1"/>
        <pt x="250" y="0" on="1"/>
        <pt x="56" y="0" on="1"/>
        <pt x="56" y="725" on="1"/>
        <pt x="471" y="725" on="1"/>
        <pt x="471" y="561" on="1"/>
      </contour>
    </TTGlyph>
    <TTGlyph name="F.flat" xMin="56" yMin="0" xMax="471" yMax="725">
      <contour>
        <pt x="250" y="561" on="1"/>
        <pt x="250" y="430" on="1"/>
        <pt x="420" y="430" on="1"/>
        <pt x="420" y="266" on="1"/>
        <pt x="250" y="266" on="1"/>
        <pt x="250" y="0" on="1"/>
        <pt x="56" y="0" on="1"/>
        <pt x="56" y="725" on="1"/>
        <pt x="471" y="725" on="1"/>
        <pt x="471" y="561" on="1"/>
      </contour>
    </TTGlyph>
    <TTGlyph name="G" xMin="36" yMin="-14" xMax="600" yMax="737">
      <contour>
        <pt x="600" y="55" on="1"/>
        <pt x="547" y="23" on="0"/>
        <pt x="429" y="-14" on="0"/>
        <pt x="359" y="-14" on="1"/>
        <pt x="280" y="-14" on="0"/>
        <pt x="159" y="38" on="0"/>
        <pt x="78" y="134" on="0"/>
        <pt x="36" y="272" on="0"/>
        <pt x="36" y="358" on="1"/>
        <pt x="36" y="443" on="0"/>
        <pt x="80" y="582" on="0"/>
        <pt x="165" y="682" on="0"/>
        <pt x="291" y="737" on="0"/>
        <pt x="373" y="737" on="1"/>
        <pt x="432" y="737" on="0"/>
        <pt x="531" y="712" on="0"/>
        <pt x="573" y="691" on="1"/>
        <pt x="546" y="521" on="1"/>
        <pt x="507" y="545" on="0"/>
        <pt x="430" y="572" on="0"/>
        <pt x="386" y="572" on="1"/>
        <pt x="308" y="572" on="0"/>
        <pt x="233" y="464" on="0"/>
        <pt x="233" y="362" on="1"/>
        <pt x="233" y="257" on="0"/>
        <pt x="300" y="144" on="0"/>
        <pt x="372" y="144" on="1"/>
        <pt x="389" y="144" on="0"/>
        <pt x="415" y="151" on="0"/>
        <pt x="429" y="157" on="1"/>
        <pt x="429" y="279" on="1"/>
        <pt x="342" y="279" on="1"/>
        <pt x="320" y="420" on="1"/>
        <pt x="600" y="420" on="1"/>
      </contour>
    </TTGlyph>
    <TTGlyph name="G.flat" xMin="36" yMin="-14" xMax="600" yMax="737">
      <contour>
        <pt x="600" y="55" on="1"/>
        <pt x="547" y="23" on="0"/>
        <pt x="429" y="-14" on="0"/>
        <pt x="359" y="-14" on="1"/>
        <pt x="280" y="-14" on="0"/>
        <pt x="159" y="38" on="0"/>
        <pt x="78" y="134" on="0"/>
        <pt x="36" y="272" on="0"/>
        <pt x="36" y="358" on="1"/>
        <pt x="36" y="443" on="0"/>
        <pt x="80" y="582" on="0"/>
        <pt x="165" y="682" on="0"/>
        <pt x="291" y="737" on="0"/>
        <pt x="373" y="737" on="1"/>
        <pt x="432" y="737" on="0"/>
        <pt x="531" y="712" on="0"/>
        <pt x="573" y="691" on="1"/>
        <pt x="546" y="521" on="1"/>
        <pt x="507" y="545" on="0"/>
        <pt x="430" y="572" on="0"/>
        <pt x="386" y="572" on="1"/>
        <pt x="308" y="572" on="0"/>
        <pt x="233" y="464" on="0"/>
        <pt x="233" y="362" on="1"/>
        <pt x="233" y="257" on="0"/>
        <pt x="300" y="144" on="0"/>
        <pt x="372" y="144" on="1"/>
        <pt x="389" y="144" on="0"/>
        <pt x="415" y="151" on="0"/>
        <pt x="429" y="157" on="1"/>
        <pt x="429" y="279" on="1"/>
        <pt x="332" y="279" on="1"/>
        <pt x="332" y="420" on="1"/>
        <pt x="600" y="420" on="1"/>
      </contour>
    </TTGlyph>
    <TTGlyph name="Gbreve" xMin="36" yMin="-14" xMax="600" yMax="937">
      <component glyphName="breve.cap" x="132" y="210" flags="0x4"/>
      <component glyphName="G" x="0" y="0" flags="0x4"/>
    </TTGlyph>
    <TTGlyph name="Gbreve.flat" xMin="36" yMin="-14" xMax="600" yMax="937">
      <component glyphName="breve.cap" x="132" y="210" flags="0x4"/>
      <component glyphName="G.flat" x="0" y="0" flags="0x4"/>
    </TTGlyph>
    <TTGlyph name="Gcommaaccent" xMin="36" yMin="-265" xMax="600" yMax="737">
      <component glyphName="G" x="0" y="0" flags="0x204"/>
      <component glyphName="commaaccent.cap" x="128" y="-8" flags="0x4"/>
    </TTGlyph>
    <TTGlyph name="Gcommaaccent.flat" xMin="36" yMin="-265" xMax="600" yMax="737">
      <component glyphName="G.flat" x="0" y="0" flags="0x204"/>
      <component glyphName="commaaccent.cap" x="128" y="-8" flags="0x4"/>
    </TTGlyph>
    <TTGlyph name="Gdotaccent" xMin="36" yMin="-14" xMax="600" yMax="922">
      <component glyphName="dotaccent.cap" x="132" y="210" flags="0x4"/>
      <component glyphName="G" x="0" y="0" flags="0x4"/>
    </TTGlyph>
    <TTGlyph name="Gdotaccent.flat" xMin="36" yMin="-14" xMax="600" yMax="922">
      <component glyphName="dotaccent.cap" x="132" y="210" flags="0x4"/>
      <component glyphName="G.flat" x="0" y="0" flags="0x4"/>
    </TTGlyph>
    <TTGlyph name="H" xMin="56" yMin="0" xMax="625" yMax="725">
      <contour>
        <pt x="429" y="0" on="1"/>
        <pt x="429" y="284" on="1"/>
        <pt x="252" y="284" on="1"/>
        <pt x="252" y="0" on="1"/>
        <pt x="56" y="0" on="1"/>
        <pt x="56" y="725" on="1"/>
        <pt x="252" y="725" on="1"/>
        <pt x="252" y="457" on="1"/>
        <pt x="429" y="457" on="1"/>
        <pt x="429" y="725" on="1"/>
        <pt x="625" y="725" on="1"/>
        <pt x="625" y="0" on="1"/>
      </contour>
    </TTGlyph>
    <TTGlyph name="Hbar" xMin="7" yMin="0" xMax="724" yMax="725">
      <contour>
        <pt x="459" y="0" on="1"/>
        <pt x="459" y="281" on="1"/>
        <pt x="282" y="281" on="1"/>
        <pt x="282" y="0" on="1"/>
        <pt x="86" y="0" on="1"/>
        <pt x="86" y="529" on="1"/>
        <pt x="25" y="529" on="1"/>
        <pt x="7" y="653" on="1"/>
        <pt x="86" y="653" on="1"/>
        <pt x="86" y="725" on="1"/>
        <pt x="281" y="725" on="1"/>
        <pt x="281" y="653" on="1"/>
        <pt x="460" y="653" on="1"/>
        <pt x="460" y="725" on="1"/>
        <pt x="655" y="725" on="1"/>
        <pt x="655" y="653" on="1"/>
        <pt x="724" y="653" on="1"/>
        <pt x="724" y="529" on="1"/>
        <pt x="655" y="529" on="1"/>
        <pt x="655" y="0" on="1"/>
      </contour>
      <contour>
        <pt x="460" y="446" on="1"/>
        <pt x="460" y="540" on="1"/>
        <pt x="281" y="540" on="1"/>
        <pt x="281" y="446" on="1"/>
      </contour>
    </TTGlyph>
    <TTGlyph name="Hbar.flat" xMin="16" yMin="0" xMax="724" yMax="725">
      <contour>
        <pt x="459" y="0" on="1"/>
        <pt x="459" y="281" on="1"/>
        <pt x="282" y="281" on="1"/>
        <pt x="282" y="0" on="1"/>
        <pt x="86" y="0" on="1"/>
        <pt x="86" y="529" on="1"/>
        <pt x="16" y="529" on="1"/>
        <pt x="16" y="653" on="1"/>
        <pt x="86" y="653" on="1"/>
        <pt x="86" y="725" on="1"/>
        <pt x="281" y="725" on="1"/>
        <pt x="281" y="653" on="1"/>
        <pt x="460" y="653" on="1"/>
        <pt x="460" y="725" on="1"/>
        <pt x="655" y="725" on="1"/>
        <pt x="655" y="653" on="1"/>
        <pt x="724" y="653" on="1"/>
        <pt x="724" y="529" on="1"/>
        <pt x="655" y="529" on="1"/>
        <pt x="655" y="0" on="1"/>
      </contour>
      <contour>
        <pt x="460" y="446" on="1"/>
        <pt x="460" y="540" on="1"/>
        <pt x="281" y="540" on="1"/>
        <pt x="281" y="446" on="1"/>
      </contour>
    </TTGlyph>
    <TTGlyph name="I" xMin="59" yMin="0" xMax="255" yMax="725">
      <contour>
        <pt x="59" y="0" on="1"/>
        <pt x="59" y="725" on="1"/>
        <pt x="255" y="725" on="1"/>
        <pt x="255" y="0" on="1"/>
      </contour>
    </TTGlyph>
    <TTGlyph name="Iacute" xMin="59" yMin="0" xMax="350" yMax="927">
      <component glyphName="I" x="0" y="0" flags="0x204"/>
      <component glyphName="acute.cap" x="-13" y="201" flags="0x4"/>
    </TTGlyph>
    <TTGlyph name="Ibreve" xMin="-4" yMin="0" xMax="319" yMax="928">
      <component glyphName="I" x="0" y="0" flags="0x204"/>
      <component glyphName="breve.cap" x="-64" y="201" flags="0x4"/>
    </TTGlyph>
    <TTGlyph name="Icircumflex" xMin="-21" yMin="0" xMax="333" yMax="925">
      <component glyphName="I" x="0" y="0" flags="0x204"/>
      <component glyphName="circumflex.cap" x="-66" y="201" flags="0x4"/>
    </TTGlyph>
    <TTGlyph name="Idieresis" xMin="-11" yMin="0" xMax="325" yMax="913">
      <component glyphName="I" x="0" y="0" flags="0x204"/>
      <component glyphName="dieresis.cap" x="-64" y="201" flags="0x4"/>
    </TTGlyph>
    <TTGlyph name="Idotaccent" xMin="59" yMin="0" xMax="255" yMax="913">
      <component glyphName="I" x="0" y="0" flags="0x204"/>
      <component glyphName="dotaccent.cap" x="-64" y="201" flags="0x4"/>
    </TTGlyph>
    <TTGlyph name="Igrave" xMin="-38" yMin="0" xMax="255" yMax="927">
      <component glyphName="I" x="0" y="0" flags="0x204"/>
      <component glyphName="grave.cap" x="-117" y="201" flags="0x4"/>
    </TTGlyph>
    <TTGlyph name="Imacron" xMin="2" yMin="0" xMax="312" yMax="893">
      <component glyphName="I" x="0" y="0" flags="0x204"/>
      <component glyphName="macron.cap" x="-64" y="201" flags="0x4"/>
    </TTGlyph>
    <TTGlyph name="Iogonek" xMin="48" yMin="-212" xMax="266" yMax="725">
      <contour>
        <pt x="266" y="-190" on="1"/>
        <pt x="237" y="-201" on="0"/>
        <pt x="187" y="-212" on="0"/>
        <pt x="158" y="-212" on="1"/>
        <pt x="106" y="-212" on="0"/>
        <pt x="48" y="-167" on="0"/>
        <pt x="48" y="-122" on="1"/>
        <pt x="48" y="-94" on="0"/>
        <pt x="77" y="-35" on="0"/>
        <pt x="106" y="0" on="1"/>
        <pt x="59" y="0" on="1"/>
        <pt x="59" y="725" on="1"/>
        <pt x="255" y="725" on="1"/>
        <pt x="255" y="0" on="1"/>
        <pt x="210" y="0" on="1"/>
        <pt x="207" y="-5" on="1"/>
        <pt x="191" y="-32" on="0"/>
        <pt x="173" y="-68" on="0"/>
        <pt x="173" y="-84" on="1"/>
        <pt x="173" y="-99" on="0"/>
        <pt x="192" y="-118" on="0"/>
        <pt x="215" y="-118" on="1"/>
        <pt x="229" y="-118" on="0"/>
        <pt x="251" y="-114" on="0"/>
        <pt x="266" y="-110" on="1"/>
        <pt x="266" y="-190" on="1"/>
      </contour>
    </TTGlyph>
    <TTGlyph name="J" xMin="19" yMin="-7" xMax="375" yMax="725">
      <contour>
        <pt x="375" y="226" on="1"/>
        <pt x="375" y="163" on="0"/>
        <pt x="343" y="75" on="0"/>
        <pt x="283" y="19" on="0"/>
        <pt x="197" y="-7" on="0"/>
        <pt x="144" y="-7" on="1"/>
        <pt x="116" y="-7" on="0"/>
        <pt x="60" y="-2" on="0"/>
        <pt x="46" y="2" on="1"/>
        <pt x="19" y="166" on="1"/>
        <pt x="35" y="162" on="0"/>
        <pt x="67" y="157" on="0"/>
        <pt x="91" y="157" on="1"/>
        <pt x="133" y="157" on="0"/>
        <pt x="179" y="200" on="0"/>
        <pt x="179" y="255" on="1"/>
        <pt x="179" y="725" on="1"/>
        <pt x="375" y="725" on="1"/>
      </contour>
    </TTGlyph>
    <TTGlyph name="K" xMin="56" yMin="-9" xMax="633" yMax="725">
      <contour>
        <pt x="427" y="-9" on="1"/>
        <pt x="252" y="329" on="1"/>
        <pt x="252" y="0" on="1"/>
        <pt x="56" y="0" on="1"/>
        <pt x="56" y="725" on="1"/>
        <pt x="252" y="725" on="1"/>
        <pt x="252" y="418" on="1"/>
        <pt x="414" y="725" on="1"/>
        <pt x="625" y="725" on="1"/>
        <pt x="430" y="387" on="1"/>
        <pt x="633" y="23" on="1"/>
      </contour>
    </TTGlyph>
    <TTGlyph name="K.flat" xMin="56" yMin="0" xMax="641" yMax="725">
      <contour>
        <pt x="418" y="0" on="1"/>
        <pt x="252" y="329" on="1"/>
        <pt x="252" y="0" on="1"/>
        <pt x="56" y="0" on="1"/>
        <pt x="56" y="725" on="1"/>
        <pt x="252" y="725" on="1"/>
        <pt x="252" y="418" on="1"/>
        <pt x="414" y="725" on="1"/>
        <pt x="625" y="725" on="1"/>
        <pt x="430" y="387" on="1"/>
        <pt x="641" y="0" on="1"/>
      </contour>
    </TTGlyph>
    <TTGlyph name="Kcommaaccent" xMin="56" yMin="-251" xMax="633" yMax="725">
      <component glyphName="K" x="0" y="0" flags="0x204"/>
      <component glyphName="commaaccent.cap" x="105" y="6" flags="0x4"/>
    </TTGlyph>
    <TTGlyph name="Kcommaaccent.flat" xMin="56" yMin="-251" xMax="641" yMax="725">
      <component glyphName="K.flat" x="0" y="0" flags="0x204"/>
      <component glyphName="commaaccent.cap" x="105" y="6" flags="0x4"/>
    </TTGlyph>
    <TTGlyph name="L" xMin="56" yMin="0" xMax="467" yMax="725">
      <contour>
        <pt x="56" y="0" on="1"/>
        <pt x="56" y="725" on="1"/>
        <pt x="252" y="725" on="1"/>
        <pt x="252" y="170" on="1"/>
        <pt x="440" y="170" on="1"/>
        <pt x="467" y="0" on="1"/>
      </contour>
    </TTGlyph>
    <TTGlyph name="L.flat" xMin="56" yMin="0" xMax="457" yMax="725">
      <contour>
        <pt x="56" y="0" on="1"/>
        <pt x="56" y="725" on="1"/>
        <pt x="252" y="725" on="1"/>
        <pt x="252" y="170" on="1"/>
        <pt x="457" y="170" on="1"/>
        <pt x="457" y="0" on="1"/>
      </contour>
    </TTGlyph>
    <TTGlyph name="Lacute" xMin="56" yMin="0" xMax="467" yMax="931">
      <component glyphName="acute.cap" x="7" y="205" flags="0x4"/>
      <component glyphName="L" x="0" y="0" flags="0x4"/>
    </TTGlyph>
    <TTGlyph name="Lacute.flat" xMin="56" yMin="0" xMax="457" yMax="931">
      <component glyphName="acute.cap" x="7" y="205" flags="0x4"/>
      <component glyphName="L.flat" x="0" y="0" flags="0x4"/>
    </TTGlyph>
    <TTGlyph name="Lcaron" xMin="56" yMin="0" xMax="467" yMax="735">
      <component glyphName="L" x="0" y="0" flags="0x204"/>
      <component glyphName="caron.alt.cap" x="146" y="-5" flags="0x4"/>
    </TTGlyph>
    <TTGlyph name="Lcaron.flat" xMin="56" yMin="0" xMax="457" yMax="735">
      <component glyphName="L.flat" x="0" y="0" flags="0x204"/>
      <component glyphName="caron.alt.cap" x="146" y="-5" flags="0x4"/>
    </TTGlyph>
    <TTGlyph name="Lcommaaccent" xMin="56" yMin="-262" xMax="467" yMax="725">
      <component glyphName="L" x="0" y="0" flags="0x204"/>
      <component glyphName="commaaccent.cap" x="34" y="-5" flags="0x4"/>
    </TTGlyph>
    <TTGlyph name="Lcommaaccent.flat" xMin="56" yMin="-262" xMax="457" yMax="725">
      <component glyphName="L.flat" x="0" y="0" flags="0x204"/>
      <component glyphName="commaaccent.cap" x="34" y="-5" flags="0x4"/>
    </TTGlyph>
    <TTGlyph name="Ldot" xMin="56" yMin="0" xMax="467" yMax="725">
      <contour>
        <pt x="323" y="319" on="1"/>
        <pt x="323" y="465" on="1"/>
        <pt x="457" y="465" on="1"/>
        <pt x="457" y="319" on="1"/>
      </contour>
      <contour>
        <pt x="56" y="0" on="1"/>
        <pt x="56" y="725" on="1"/>
        <pt x="252" y="725" on="1"/>
        <pt x="252" y="170" on="1"/>
        <pt x="440" y="170" on="1"/>
        <pt x="467" y="0" on="1"/>
      </contour>
    </TTGlyph>
    <TTGlyph name="Ldot.flat" xMin="56" yMin="0" xMax="458" yMax="725">
      <contour>
        <pt x="325" y="319" on="1"/>
        <pt x="325" y="465" on="1"/>
        <pt x="458" y="465" on="1"/>
        <pt x="458" y="319" on="1"/>
      </contour>
      <contour>
        <pt x="56" y="0" on="1"/>
        <pt x="56" y="725" on="1"/>
        <pt x="252" y="725" on="1"/>
        <pt x="252" y="170" on="1"/>
        <pt x="457" y="170" on="1"/>
        <pt x="457" y="0" on="1"/>
      </contour>
    </TTGlyph>
    <TTGlyph name="Lslash" xMin="10" yMin="0" xMax="497" yMax="725">
      <contour>
        <pt x="281" y="342" on="1"/>
        <pt x="281" y="170" on="1"/>
        <pt x="469" y="170" on="1"/>
        <pt x="497" y="0" on="1"/>
        <pt x="86" y="0" on="1"/>
        <pt x="86" y="255" on="1"/>
        <pt x="34" y="230" on="1"/>
        <pt x="10" y="374" on="1"/>
        <pt x="86" y="407" on="1"/>
        <pt x="86" y="725" on="1"/>
        <pt x="281" y="725" on="1"/>
        <pt x="281" y="494" on="1"/>
        <pt x="387" y="543" on="1"/>
        <pt x="387" y="388" on="1"/>
      </contour>
    </TTGlyph>
    <TTGlyph name="Lslash.flat" xMin="19" yMin="0" xMax="487" yMax="725">
      <contour>
        <pt x="281" y="342" on="1"/>
        <pt x="281" y="170" on="1"/>
        <pt x="486" y="170" on="1"/>
        <pt x="487" y="0" on="1"/>
        <pt x="86" y="0" on="1"/>
        <pt x="86" y="255" on="1"/>
        <pt x="19" y="224" on="1"/>
        <pt x="19" y="379" on="1"/>
        <pt x="86" y="408" on="1"/>
        <pt x="86" y="725" on="1"/>
        <pt x="281" y="725" on="1"/>
        <pt x="281" y="494" on="1"/>
        <pt x="387" y="543" on="1"/>
        <pt x="387" y="388" on="1"/>
      </contour>
    </TTGlyph>
    <TTGlyph name="M" xMin="39" yMin="0" xMax="830" yMax="725">
      <contour>
        <pt x="637" y="0" on="1"/>
        <pt x="613" y="486" on="1"/>
        <pt x="518" y="0" on="1"/>
        <pt x="327" y="0" on="1"/>
        <pt x="232" y="486" on="1"/>
        <pt x="207" y="0" on="1"/>
        <pt x="39" y="0" on="1"/>
        <pt x="79" y="725" on="1"/>
        <pt x="341" y="725" on="1"/>
        <pt x="436" y="252" on="1"/>
        <pt x="532" y="725" on="1"/>
        <pt x="790" y="725" on="1"/>
        <pt x="830" y="0" on="1"/>
      </contour>
    </TTGlyph>
    <TTGlyph name="M.alt" xMin="56" yMin="-4" xMax="810" yMax="725">
      <contour>
        <pt x="624" y="0" on="1"/>
        <pt x="624" y="484" on="1"/>
        <pt x="510" y="-4" on="1"/>
        <pt x="336" y="-4" on="1"/>
        <pt x="221" y="484" on="1"/>
        <pt x="221" y="0" on="1"/>
        <pt x="56" y="0" on="1"/>
        <pt x="56" y="725" on="1"/>
        <pt x="324" y="725" on="1"/>
        <pt x="435" y="257" on="1"/>
        <pt x="546" y="725" on="1"/>
        <pt x="810" y="725" on="1"/>
        <pt x="810" y="0" on="1"/>
      </contour>
    </TTGlyph>
    <TTGlyph name="N" xMin="56" yMin="0" xMax="622" yMax="725">
      <contour>
        <pt x="449" y="0" on="1"/>
        <pt x="236" y="389" on="1"/>
        <pt x="237" y="0" on="1"/>
        <pt x="56" y="0" on="1"/>
        <pt x="56" y="725" on="1"/>
        <pt x="246" y="725" on="1"/>
        <pt x="442" y="363" on="1"/>
        <pt x="442" y="725" on="1"/>
        <pt x="622" y="725" on="1"/>
        <pt x="622" y="0" on="1"/>
      </contour>
    </TTGlyph>
    <TTGlyph name="Nacute" xMin="56" yMin="0" xMax="622" yMax="926">
      <component glyphName="acute.cap" x="173" y="200" flags="0x4"/>
      <component glyphName="N" x="0" y="0" flags="0x4"/>
    </TTGlyph>
    <TTGlyph name="Ncaron" xMin="56" yMin="0" xMax="622" yMax="924">
      <component glyphName="caron.cap" x="121" y="200" flags="0x4"/>
      <component glyphName="N" x="0" y="0" flags="0x4"/>
    </TTGlyph>
    <TTGlyph name="Ncommaaccent" xMin="56" yMin="-251" xMax="622" yMax="725">
      <component glyphName="commaaccent.cap" x="116" y="6" flags="0x4"/>
      <component glyphName="N" x="0" y="0" flags="0x4"/>
    </TTGlyph>
    <TTGlyph name="Ntilde" xMin="56" yMin="0" xMax="622" yMax="937">
      <component glyphName="tilde.cap" x="124" y="200" flags="0x4"/>
      <component glyphName="N" x="0" y="0" flags="0x4"/>
    </TTGlyph>
    <TTGlyph name="O" xMin="36" yMin="-14" xMax="666" yMax="738">
      <contour>
        <pt x="666" y="363" on="1"/>
        <pt x="666" y="277" on="0"/>
        <pt x="623" y="138" on="0"/>
        <pt x="541" y="39" on="0"/>
        <pt x="423" y="-14" on="0"/>
        <pt x="349" y="-14" on="1"/>
        <pt x="276" y="-14" on="0"/>
        <pt x="160" y="39" on="0"/>
        <pt x="79" y="136" on="0"/>
        <pt x="36" y="275" on="0"/>
        <pt x="36" y="361" on="1"/>
        <pt x="36" y="448" on="0"/>
        <pt x="79" y="587" on="0"/>
        <pt x="161" y="685" on="0"/>
        <pt x="278" y="738" on="0"/>
        <pt x="352" y="738" on="1"/>
        <pt x="425" y="738" on="0"/>
        <pt x="542" y="685" on="0"/>
        <pt x="623" y="588" on="0"/>
        <pt x="666" y="449" on="0"/>
      </contour>
      <contour>
        <pt x="467" y="362" on="1"/>
        <pt x="467" y="467" on="0"/>
        <pt x="408" y="584" on="0"/>
        <pt x="351" y="584" on="1"/>
        <pt x="293" y="584" on="0"/>
        <pt x="234" y="467" on="0"/>
        <pt x="234" y="362" on="1"/>
        <pt x="234" y="258" on="0"/>
        <pt x="293" y="140" on="0"/>
        <pt x="351" y="140" on="1"/>
        <pt x="409" y="140" on="0"/>
        <pt x="467" y="258" on="0"/>
      </contour>
    </TTGlyph>
    <TTGlyph name="OE" xMin="36" yMin="0" xMax="851" yMax="725">
      <contour>
        <pt x="393" y="0" on="1"/>
        <pt x="303" y="0" on="0"/>
        <pt x="169" y="49" on="0"/>
        <pt x="80" y="142" on="0"/>
        <pt x="36" y="276" on="0"/>
        <pt x="36" y="361" on="1"/>
        <pt x="36" y="447" on="0"/>
        <pt x="82" y="582" on="0"/>
        <pt x="173" y="676" on="0"/>
        <pt x="306" y="725" on="0"/>
        <pt x="393" y="725" on="1"/>
        <pt x="842" y="725" on="1"/>
        <pt x="842" y="569" on="1"/>
        <pt x="603" y="569" on="1"/>
        <pt x="603" y="450" on="1"/>
        <pt x="779" y="450" on="1"/>
        <pt x="805" y="293" on="1"/>
        <pt x="603" y="293" on="1"/>
        <pt x="603" y="156" on="1"/>
        <pt x="851" y="156" on="1"/>
        <pt x="851" y="0" on="1"/>
      </contour>
      <contour>
        <pt x="413" y="572" on="1"/>
        <pt x="395" y="572" on="1"/>
        <pt x="357" y="572" on="0"/>
        <pt x="298" y="550" on="0"/>
        <pt x="256" y="500" on="0"/>
        <pt x="234" y="420" on="0"/>
        <pt x="234" y="362" on="1"/>
        <pt x="234" y="305" on="0"/>
        <pt x="257" y="225" on="0"/>
        <pt x="299" y="175" on="0"/>
        <pt x="359" y="152" on="0"/>
        <pt x="396" y="152" on="1"/>
        <pt x="413" y="152" on="1"/>
      </contour>
    </TTGlyph>
    <TTGlyph name="OE.flat" xMin="36" yMin="0" xMax="851" yMax="725">
      <contour>
        <pt x="393" y="0" on="1"/>
        <pt x="303" y="0" on="0"/>
        <pt x="169" y="49" on="0"/>
        <pt x="80" y="142" on="0"/>
        <pt x="36" y="276" on="0"/>
        <pt x="36" y="361" on="1"/>
        <pt x="36" y="447" on="0"/>
        <pt x="82" y="582" on="0"/>
        <pt x="173" y="676" on="0"/>
        <pt x="306" y="725" on="0"/>
        <pt x="393" y="725" on="1"/>
        <pt x="842" y="725" on="1"/>
        <pt x="842" y="569" on="1"/>
        <pt x="603" y="569" on="1"/>
        <pt x="603" y="450" on="1"/>
        <pt x="792" y="450" on="1"/>
        <pt x="792" y="293" on="1"/>
        <pt x="603" y="293" on="1"/>
        <pt x="603" y="156" on="1"/>
        <pt x="851" y="156" on="1"/>
        <pt x="851" y="0" on="1"/>
      </contour>
      <contour>
        <pt x="413" y="572" on="1"/>
        <pt x="395" y="572" on="1"/>
        <pt x="357" y="572" on="0"/>
        <pt x="298" y="550" on="0"/>
        <pt x="256" y="500" on="0"/>
        <pt x="234" y="420" on="0"/>
        <pt x="234" y="362" on="1"/>
        <pt x="234" y="305" on="0"/>
        <pt x="257" y="225" on="0"/>
        <pt x="299" y="175" on="0"/>
        <pt x="359" y="152" on="0"/>
        <pt x="396" y="152" on="1"/>
        <pt x="413" y="152" on="1"/>
      </contour>
    </TTGlyph>
    <TTGlyph name="Oacute" xMin="36" yMin="-14" xMax="666" yMax="936">
      <component glyphName="acute.cap" x="182" y="210" flags="0x4"/>
      <component glyphName="O" x="0" y="0" flags="0x4"/>
    </TTGlyph>
    <TTGlyph name="Obreve" xMin="36" yMin="-14" xMax="666" yMax="937">
      <component glyphName="breve.cap" x="130" y="210" flags="0x4"/>
      <component glyphName="O" x="0" y="0" flags="0x4"/>
    </TTGlyph>
    <TTGlyph name="Ocircumflex" xMin="36" yMin="-14" xMax="666" yMax="934">
      <component glyphName="O" x="0" y="0" flags="0x204"/>
      <component glyphName="circumflex.cap" x="129" y="210" flags="0x4"/>
    </TTGlyph>
    <TTGlyph name="Odieresis" xMin="36" yMin="-14" xMax="666" yMax="922">
      <component glyphName="dieresis.cap" x="130" y="210" flags="0x4"/>
      <component glyphName="O" x="0" y="0" flags="0x4"/>
    </TTGlyph>
    <TTGlyph name="Ograve" xMin="36" yMin="-14" xMax="666" yMax="936">
      <component glyphName="grave.cap" x="78" y="210" flags="0x4"/>
      <component glyphName="O" x="0" y="0" flags="0x4"/>
    </TTGlyph>
    <TTGlyph name="Ohungarumlaut" xMin="36" yMin="-14" xMax="666" yMax="936">
      <component glyphName="O" x="0" y="0" flags="0x204"/>
      <component glyphName="hungarumlaut.cap" x="182" y="210" flags="0x4"/>
    </TTGlyph>
    <TTGlyph name="Omacron" xMin="36" yMin="-14" xMax="666" yMax="902">
      <component glyphName="macron.cap" x="130" y="210" flags="0x4"/>
      <component glyphName="O" x="0" y="0" flags="0x4"/>
    </TTGlyph>
    <TTGlyph name="Oslash" xMin="21" yMin="-14" xMax="680" yMax="738">
      <contour>
        <pt x="666" y="362" on="1"/>
        <pt x="666" y="276" on="0"/>
        <pt x="622" y="137" on="0"/>
        <pt x="540" y="39" on="0"/>
        <pt x="424" y="-14" on="0"/>
        <pt x="351" y="-14" on="1"/>
        <pt x="249" y="-14" on="0"/>
        <pt x="175" y="40" on="1"/>
        <pt x="138" y="-10" on="1"/>
        <pt x="21" y="16" on="1"/>
        <pt x="98" y="122" on="1"/>
        <pt x="68" y="170" on="0"/>
        <pt x="36" y="291" on="0"/>
        <pt x="36" y="363" on="1"/>
        <pt x="36" y="449" on="0"/>
        <pt x="79" y="588" on="0"/>
        <pt x="161" y="685" on="0"/>
        <pt x="277" y="738" on="0"/>
        <pt x="351" y="738" on="1"/>
        <pt x="402" y="738" on="0"/>
        <pt x="490" y="711" on="0"/>
        <pt x="526" y="685" on="1"/>
        <pt x="563" y="735" on="1"/>
        <pt x="680" y="709" on="1"/>
        <pt x="603" y="603" on="1"/>
        <pt x="633" y="555" on="0"/>
        <pt x="666" y="434" on="0"/>
      </contour>
      <contour>
        <pt x="351" y="589" on="1"/>
        <pt x="292" y="589" on="0"/>
        <pt x="231" y="471" on="0"/>
        <pt x="231" y="362" on="1"/>
        <pt x="231" y="310" on="0"/>
        <pt x="238" y="272" on="1"/>
        <pt x="429" y="546" on="1"/>
        <pt x="398" y="589" on="0"/>
      </contour>
      <contour>
        <pt x="471" y="362" on="1"/>
        <pt x="471" y="415" on="0"/>
        <pt x="464" y="453" on="1"/>
        <pt x="273" y="179" on="1"/>
        <pt x="303" y="137" on="0"/>
        <pt x="351" y="137" on="1"/>
        <pt x="408" y="137" on="0"/>
        <pt x="471" y="253" on="0"/>
      </contour>
    </TTGlyph>
    <TTGlyph name="Oslashacute" xMin="21" yMin="-14" xMax="680" yMax="936">
      <component glyphName="Oslash" x="0" y="0" flags="0x204"/>
      <component glyphName="acute.cap" x="183" y="210" flags="0x4"/>
    </TTGlyph>
    <TTGlyph name="Otilde" xMin="36" yMin="-14" xMax="666" yMax="947">
      <component glyphName="tilde.cap" x="133" y="210" flags="0x4"/>
      <component glyphName="O" x="0" y="0" flags="0x4"/>
    </TTGlyph>
    <TTGlyph name="P" xMin="56" yMin="0" xMax="562" yMax="725">
      <contour>
        <pt x="562" y="481" on="1"/>
        <pt x="562" y="416" on="0"/>
        <pt x="521" y="322" on="0"/>
        <pt x="445" y="259" on="0"/>
        <pt x="338" y="229" on="0"/>
        <pt x="273" y="229" on="1"/>
        <pt x="251" y="229" on="1"/>
        <pt x="251" y="0" on="1"/>
        <pt x="56" y="0" on="1"/>
        <pt x="56" y="725" on="1"/>
        <pt x="278" y="725" on="1"/>
        <pt x="345" y="725" on="0"/>
        <pt x="450" y="696" on="0"/>
        <pt x="523" y="636" on="0"/>
        <pt x="562" y="544" on="0"/>
      </contour>
      <contour>
        <pt x="373" y="479" on="1"/>
        <pt x="373" y="530" on="0"/>
        <pt x="320" y="578" on="0"/>
        <pt x="269" y="578" on="1"/>
        <pt x="249" y="578" on="1"/>
        <pt x="249" y="375" on="1"/>
        <pt x="267" y="375" on="1"/>
        <pt x="318" y="376" on="0"/>
        <pt x="373" y="424" on="0"/>
      </contour>
    </TTGlyph>
    <TTGlyph name="Q" xMin="36" yMin="-135" xMax="666" yMax="738">
      <contour>
        <pt x="666" y="377" on="1"/>
        <pt x="666" y="264" on="0"/>
        <pt x="594" y="113" on="0"/>
        <pt x="526" y="68" on="1"/>
        <pt x="664" y="29" on="1"/>
        <pt x="628" y="-135" on="1"/>
        <pt x="292" y="-14" on="1"/>
        <pt x="226" y="10" on="0"/>
        <pt x="129" y="74" on="0"/>
        <pt x="66" y="163" on="0"/>
        <pt x="36" y="282" on="0"/>
        <pt x="36" y="361" on="1"/>
        <pt x="36" y="448" on="0"/>
        <pt x="79" y="587" on="0"/>
        <pt x="160" y="685" on="0"/>
        <pt x="278" y="738" on="0"/>
        <pt x="352" y="738" on="1"/>
        <pt x="425" y="738" on="0"/>
        <pt x="542" y="686" on="0"/>
        <pt x="623" y="592" on="0"/>
        <pt x="666" y="458" on="0"/>
      </contour>
      <contour>
        <pt x="467" y="361" on="1"/>
        <pt x="467" y="464" on="0"/>
        <pt x="408" y="584" on="0"/>
        <pt x="351" y="584" on="1"/>
        <pt x="293" y="584" on="0"/>
        <pt x="234" y="464" on="0"/>
        <pt x="234" y="361" on="1"/>
        <pt x="234" y="310" on="0"/>
        <pt x="249" y="228" on="0"/>
        <pt x="278" y="170" on="0"/>
        <pt x="322" y="138" on="0"/>
        <pt x="351" y="138" on="1"/>
        <pt x="380" y="138" on="0"/>
        <pt x="424" y="170" on="0"/>
        <pt x="453" y="228" on="0"/>
        <pt x="467" y="310" on="0"/>
      </contour>
    </TTGlyph>
    <TTGlyph name="Q.alt" xMin="36" yMin="-14" xMax="689" yMax="738">
      <contour>
        <pt x="656" y="-14" on="1"/>
        <pt x="557" y="71" on="1"/>
        <pt x="517" y="32" on="0"/>
        <pt x="413" y="-11" on="0"/>
        <pt x="350" y="-11" on="1"/>
        <pt x="276" y="-11" on="0"/>
        <pt x="160" y="41" on="0"/>
        <pt x="79" y="138" on="0"/>
        <pt x="36" y="276" on="0"/>
        <pt x="36" y="362" on="1"/>
        <pt x="36" y="448" on="0"/>
        <pt x="79" y="587" on="0"/>
        <pt x="160" y="685" on="0"/>
        <pt x="278" y="738" on="0"/>
        <pt x="352" y="738" on="1"/>
        <pt x="428" y="738" on="0"/>
        <pt x="545" y="685" on="0"/>
        <pt x="625" y="588" on="0"/>
        <pt x="666" y="451" on="0"/>
        <pt x="666" y="368" on="1"/>
        <pt x="666" y="321" on="0"/>
        <pt x="652" y="238" on="0"/>
        <pt x="639" y="200" on="1"/>
        <pt x="689" y="163" on="1"/>
      </contour>
      <contour>
        <pt x="471" y="364" on="1"/>
        <pt x="471" y="469" on="0"/>
        <pt x="410" y="584" on="0"/>
        <pt x="353" y="584" on="1"/>
        <pt x="293" y="584" on="0"/>
        <pt x="233" y="468" on="0"/>
        <pt x="233" y="360" on="1"/>
        <pt x="233" y="254" on="0"/>
        <pt x="294" y="138" on="0"/>
        <pt x="353" y="138" on="1"/>
        <pt x="400" y="138" on="0"/>
        <pt x="429" y="178" on="1"/>
        <pt x="308" y="276" on="1"/>
        <pt x="468" y="332" on="1"/>
        <pt x="470" y="330" on="1"/>
        <pt x="471" y="338" on="0"/>
        <pt x="471" y="355" on="0"/>
      </contour>
    </TTGlyph>
    <TTGlyph name="Q.alt_flat" xMin="36" yMin="-14" xMax="679" yMax="738">
      <contour>
        <pt x="679" y="-14" on="1"/>
        <pt x="554" y="70" on="1"/>
        <pt x="515" y="31" on="0"/>
        <pt x="413" y="-11" on="0"/>
        <pt x="350" y="-11" on="1"/>
        <pt x="276" y="-11" on="0"/>
        <pt x="160" y="41" on="0"/>
        <pt x="79" y="138" on="0"/>
        <pt x="36" y="276" on="0"/>
        <pt x="36" y="362" on="1"/>
        <pt x="36" y="448" on="0"/>
        <pt x="79" y="587" on="0"/>
        <pt x="160" y="685" on="0"/>
        <pt x="278" y="738" on="0"/>
        <pt x="352" y="738" on="1"/>
        <pt x="428" y="738" on="0"/>
        <pt x="545" y="685" on="0"/>
        <pt x="625" y="588" on="0"/>
        <pt x="666" y="451" on="0"/>
        <pt x="666" y="368" on="1"/>
        <pt x="666" y="320" on="0"/>
        <pt x="650" y="232" on="0"/>
        <pt x="636" y="194" on="1"/>
        <pt x="679" y="167" on="1"/>
      </contour>
      <contour>
        <pt x="471" y="364" on="1"/>
        <pt x="471" y="469" on="0"/>
        <pt x="410" y="584" on="0"/>
        <pt x="353" y="584" on="1"/>
        <pt x="293" y="584" on="0"/>
        <pt x="233" y="468" on="0"/>
        <pt x="233" y="360" on="1"/>
        <pt x="233" y="254" on="0"/>
        <pt x="295" y="138" on="0"/>
        <pt x="355" y="138" on="1"/>
        <pt x="392" y="138" on="0"/>
        <pt x="418" y="164" on="1"/>
        <pt x="349" y="209" on="1"/>
        <pt x="349" y="377" on="1"/>
        <pt x="468" y="299" on="1"/>
        <pt x="471" y="329" on="0"/>
      </contour>
    </TTGlyph>
    <TTGlyph name="R" xMin="56" yMin="-9" xMax="608" yMax="725">
      <contour>
        <pt x="406" y="-9" on="1"/>
        <pt x="276" y="243" on="1"/>
        <pt x="250" y="243" on="1"/>
        <pt x="250" y="0" on="1"/>
        <pt x="56" y="0" on="1"/>
        <pt x="56" y="725" on="1"/>
        <pt x="297" y="725" on="1"/>
        <pt x="427" y="725" on="0"/>
        <pt x="575" y="609" on="0"/>
        <pt x="575" y="494" on="1"/>
        <pt x="575" y="423" on="0"/>
        <pt x="511" y="324" on="0"/>
        <pt x="455" y="295" on="1"/>
        <pt x="608" y="22" on="1"/>
      </contour>
      <contour>
        <pt x="384" y="482" on="1"/>
        <pt x="384" y="533" on="0"/>
        <pt x="330" y="580" on="0"/>
        <pt x="279" y="580" on="1"/>
        <pt x="248" y="580" on="1"/>
        <pt x="248" y="381" on="1"/>
        <pt x="279" y="381" on="1"/>
        <pt x="330" y="381" on="0"/>
        <pt x="384" y="431" on="0"/>
      </contour>
    </TTGlyph>
    <TTGlyph name="R.flat" xMin="56" yMin="0" xMax="616" yMax="725">
      <contour>
        <pt x="397" y="0" on="1"/>
        <pt x="276" y="243" on="1"/>
        <pt x="250" y="243" on="1"/>
        <pt x="250" y="0" on="1"/>
        <pt x="56" y="0" on="1"/>
        <pt x="56" y="725" on="1"/>
        <pt x="297" y="725" on="1"/>
        <pt x="427" y="725" on="0"/>
        <pt x="575" y="609" on="0"/>
        <pt x="575" y="494" on="1"/>
        <pt x="575" y="423" on="0"/>
        <pt x="511" y="324" on="0"/>
        <pt x="455" y="295" on="1"/>
        <pt x="616" y="0" on="1"/>
      </contour>
      <contour>
        <pt x="384" y="482" on="1"/>
        <pt x="384" y="533" on="0"/>
        <pt x="330" y="580" on="0"/>
        <pt x="279" y="580" on="1"/>
        <pt x="248" y="580" on="1"/>
        <pt x="248" y="381" on="1"/>
        <pt x="279" y="381" on="1"/>
        <pt x="330" y="381" on="0"/>
        <pt x="384" y="431" on="0"/>
      </contour>
    </TTGlyph>
    <TTGlyph name="R_p" xMin="66" yMin="-187" xMax="1069" yMax="717">
      <contour>
        <pt x="278" y="242" on="1"/>
        <pt x="245" y="242" on="1"/>
        <pt x="245" y="0" on="1"/>
        <pt x="66" y="0" on="1"/>
        <pt x="66" y="717" on="1"/>
        <pt x="287" y="717" on="1"/>
        <pt x="418" y="717" on="0"/>
        <pt x="563" y="603" on="0"/>
        <pt x="563" y="489" on="1"/>
        <pt x="563" y="420" on="0"/>
        <pt x="499" y="320" on="0"/>
        <pt x="444" y="291" on="1"/>
        <pt x="592" y="22" on="1"/>
        <pt x="405" y="-9" on="1"/>
      </contour>
      <contour>
        <pt x="1069" y="276" on="1"/>
        <pt x="1069" y="200" on="0"/>
        <pt x="1034" y="94" on="0"/>
        <pt x="976" y="27" on="0"/>
        <pt x="898" y="-4" on="0"/>
        <pt x="856" y="-4" on="1"/>
        <pt x="833" y="-4" on="0"/>
        <pt x="800" y="2" on="0"/>
        <pt x="783" y="7" on="1"/>
        <pt x="783" y="-161" on="1"/>
        <pt x="615" y="-187" on="1"/>
        <pt x="615" y="518" on="1"/>
        <pt x="761" y="518" on="1"/>
        <pt x="771" y="460" on="1"/>
        <pt x="795" y="486" on="0"/>
        <pt x="859" y="528" on="0"/>
        <pt x="903" y="528" on="1"/>
        <pt x="977" y="528" on="0"/>
        <pt x="1069" y="401" on="0"/>
      </contour>
      <contour>
        <pt x="904" y="262" on="1"/>
        <pt x="904" y="325" on="0"/>
        <pt x="867" y="377" on="0"/>
        <pt x="838" y="377" on="1"/>
        <pt x="822" y="377" on="0"/>
        <pt x="796" y="362" on="0"/>
        <pt x="783" y="348" on="1"/>
        <pt x="783" y="138" on="1"/>
        <pt x="791" y="133" on="0"/>
        <pt x="808" y="129" on="0"/>
        <pt x="821" y="129" on="1"/>
        <pt x="858" y="129" on="0"/>
        <pt x="904" y="190" on="0"/>
      </contour>
      <contour>
        <pt x="277" y="376" on="1"/>
        <pt x="328" y="376" on="0"/>
        <pt x="382" y="426" on="0"/>
        <pt x="382" y="478" on="1"/>
        <pt x="382" y="529" on="0"/>
        <pt x="328" y="576" on="0"/>
        <pt x="277" y="576" on="1"/>
        <pt x="243" y="576" on="1"/>
        <pt x="243" y="376" on="1"/>
      </contour>
    </TTGlyph>
    <TTGlyph name="R_p.flat" xMin="66" yMin="-187" xMax="1069" yMax="717">
      <contour>
        <pt x="278" y="242" on="1"/>
        <pt x="245" y="242" on="1"/>
        <pt x="245" y="0" on="1"/>
        <pt x="66" y="0" on="1"/>
        <pt x="66" y="717" on="1"/>
        <pt x="287" y="717" on="1"/>
        <pt x="418" y="717" on="0"/>
        <pt x="563" y="603" on="0"/>
        <pt x="563" y="489" on="1"/>
        <pt x="563" y="420" on="0"/>
        <pt x="499" y="320" on="0"/>
        <pt x="444" y="291" on="1"/>
        <pt x="605" y="0" on="1"/>
        <pt x="401" y="0" on="1"/>
      </contour>
      <contour>
        <pt x="1069" y="276" on="1"/>
        <pt x="1069" y="200" on="0"/>
        <pt x="1034" y="94" on="0"/>
        <pt x="976" y="27" on="0"/>
        <pt x="898" y="-4" on="0"/>
        <pt x="856" y="-4" on="1"/>
        <pt x="833" y="-4" on="0"/>
        <pt x="800" y="2" on="0"/>
        <pt x="783" y="7" on="1"/>
        <pt x="783" y="-161" on="1"/>
        <pt x="615" y="-187" on="1"/>
        <pt x="615" y="518" on="1"/>
        <pt x="761" y="518" on="1"/>
        <pt x="771" y="460" on="1"/>
        <pt x="795" y="486" on="0"/>
        <pt x="859" y="528" on="0"/>
        <pt x="903" y="528" on="1"/>
        <pt x="977" y="528" on="0"/>
        <pt x="1069" y="401" on="0"/>
      </contour>
      <contour>
        <pt x="904" y="262" on="1"/>
        <pt x="904" y="325" on="0"/>
        <pt x="867" y="377" on="0"/>
        <pt x="838" y="377" on="1"/>
        <pt x="822" y="377" on="0"/>
        <pt x="796" y="362" on="0"/>
        <pt x="783" y="348" on="1"/>
        <pt x="783" y="138" on="1"/>
        <pt x="791" y="133" on="0"/>
        <pt x="808" y="129" on="0"/>
        <pt x="821" y="129" on="1"/>
        <pt x="858" y="129" on="0"/>
        <pt x="904" y="190" on="0"/>
      </contour>
      <contour>
        <pt x="277" y="376" on="1"/>
        <pt x="328" y="376" on="0"/>
        <pt x="382" y="426" on="0"/>
        <pt x="382" y="478" on="1"/>
        <pt x="382" y="529" on="0"/>
        <pt x="328" y="576" on="0"/>
        <pt x="277" y="576" on="1"/>
        <pt x="243" y="576" on="1"/>
        <pt x="243" y="376" on="1"/>
      </contour>
    </TTGlyph>
    <TTGlyph name="Racute" xMin="56" yMin="-9" xMax="608" yMax="927">
      <component glyphName="R" x="0" y="0" flags="0x204"/>
      <component glyphName="acute.cap" x="131" y="201" flags="0x4"/>
    </TTGlyph>
    <TTGlyph name="Racute.flat" xMin="56" yMin="0" xMax="616" yMax="927">
      <component glyphName="acute.cap" x="131" y="201" flags="0x4"/>
      <component glyphName="R.flat" x="0" y="0" flags="0x4"/>
    </TTGlyph>
    <TTGlyph name="Rcaron" xMin="56" yMin="-9" xMax="608" yMax="925">
      <component glyphName="caron.cap" x="79" y="201" flags="0x4"/>
      <component glyphName="R" x="0" y="0" flags="0x4"/>
    </TTGlyph>
    <TTGlyph name="Rcaron.flat" xMin="56" yMin="0" xMax="616" yMax="925">
      <component glyphName="caron.cap" x="79" y="201" flags="0x4"/>
      <component glyphName="R.flat" x="0" y="0" flags="0x4"/>
    </TTGlyph>
    <TTGlyph name="Rcommaaccent" xMin="56" yMin="-251" xMax="608" yMax="725">
      <component glyphName="R" x="0" y="0" flags="0x204"/>
      <component glyphName="commaaccent.cap" x="88" y="6" flags="0x4"/>
    </TTGlyph>
    <TTGlyph name="Rcommaaccent.flat" xMin="56" yMin="-251" xMax="616" yMax="725">
      <component glyphName="R.flat" x="0" y="0" flags="0x204"/>
      <component glyphName="commaaccent.cap" x="88" y="6" flags="0x4"/>
    </TTGlyph>
    <TTGlyph name="S" xMin="30" yMin="-10" xMax="520" yMax="735">
      <contour>
        <pt x="520" y="216" on="1"/>
        <pt x="520" y="159" on="0"/>
        <pt x="481" y="74" on="0"/>
        <pt x="414" y="18" on="0"/>
        <pt x="321" y="-10" on="0"/>
        <pt x="267" y="-10" on="1"/>
        <pt x="198" y="-10" on="0"/>
        <pt x="85" y="17" on="0"/>
        <pt x="30" y="43" on="1"/>
        <pt x="56" y="206" on="1"/>
        <pt x="113" y="177" on="0"/>
        <pt x="215" y="144" on="0"/>
        <pt x="261" y="144" on="1"/>
        <pt x="295" y="144" on="0"/>
        <pt x="331" y="172" on="0"/>
        <pt x="331" y="197" on="1"/>
        <pt x="331" y="211" on="0"/>
        <pt x="322" y="233" on="0"/>
        <pt x="298" y="255" on="0"/>
        <pt x="256" y="279" on="0"/>
        <pt x="223" y="296" on="1"/>
        <pt x="178" y="317" on="0"/>
        <pt x="111" y="361" on="0"/>
        <pt x="67" y="414" on="0"/>
        <pt x="45" y="478" on="0"/>
        <pt x="45" y="520" on="1"/>
        <pt x="45" y="571" on="0"/>
        <pt x="81" y="651" on="0"/>
        <pt x="146" y="706" on="0"/>
        <pt x="235" y="735" on="0"/>
        <pt x="288" y="735" on="1"/>
        <pt x="351" y="735" on="0"/>
        <pt x="444" y="712" on="0"/>
        <pt x="490" y="691" on="1"/>
        <pt x="464" y="528" on="1"/>
        <pt x="416" y="555" on="0"/>
        <pt x="330" y="581" on="0"/>
        <pt x="297" y="581" on="1"/>
        <pt x="265" y="581" on="0"/>
        <pt x="233" y="556" on="0"/>
        <pt x="233" y="535" on="1"/>
        <pt x="233" y="523" on="0"/>
        <pt x="241" y="504" on="0"/>
        <pt x="263" y="485" on="0"/>
        <pt x="301" y="462" on="0"/>
        <pt x="330" y="447" on="1"/>
        <pt x="379" y="424" on="0"/>
        <pt x="451" y="378" on="0"/>
        <pt x="497" y="324" on="0"/>
        <pt x="520" y="258" on="0"/>
      </contour>
    </TTGlyph>
    <TTGlyph name="Sacute" xMin="30" yMin="-10" xMax="520" yMax="936">
      <component glyphName="S" x="0" y="0" flags="0x204"/>
      <component glyphName="acute.cap" x="119" y="210" flags="0x4"/>
    </TTGlyph>
    <TTGlyph name="Scaron" xMin="30" yMin="-10" xMax="520" yMax="934">
      <component glyphName="S" x="0" y="0" flags="0x204"/>
      <component glyphName="caron.cap" x="68" y="210" flags="0x4"/>
    </TTGlyph>
    <TTGlyph name="Scedilla" xMin="30" yMin="-191" xMax="520" yMax="735">
      <component glyphName="S" x="0" y="0" flags="0x204"/>
      <component glyphName="cedilla.cap" x="48" y="-5" flags="0x4"/>
    </TTGlyph>
    <TTGlyph name="Scommaaccent" xMin="30" yMin="-265" xMax="520" yMax="735">
      <component glyphName="S" x="0" y="0" flags="0x204"/>
      <component glyphName="commaaccent.cap" x="55" y="-8" flags="0x4"/>
    </TTGlyph>
    <TTGlyph name="T" xMin="25" yMin="0" xMax="576" yMax="725">
      <contour>
        <pt x="394" y="560" on="1"/>
        <pt x="394" y="0" on="1"/>
        <pt x="198" y="0" on="1"/>
        <pt x="198" y="560" on="1"/>
        <pt x="25" y="560" on="1"/>
        <pt x="25" y="725" on="1"/>
        <pt x="549" y="725" on="1"/>
        <pt x="576" y="560" on="1"/>
      </contour>
    </TTGlyph>
    <TTGlyph name="T.flat" xMin="25" yMin="0" xMax="568" yMax="725">
      <contour>
        <pt x="394" y="560" on="1"/>
        <pt x="394" y="0" on="1"/>
        <pt x="198" y="0" on="1"/>
        <pt x="198" y="560" on="1"/>
        <pt x="25" y="560" on="1"/>
        <pt x="25" y="725" on="1"/>
        <pt x="568" y="725" on="1"/>
        <pt x="568" y="560" on="1"/>
      </contour>
    </TTGlyph>
    <TTGlyph name="Tcaron" xMin="25" yMin="0" xMax="576" yMax="925">
      <component glyphName="caron.cap" x="77" y="201" flags="0x4"/>
      <component glyphName="T" x="0" y="0" flags="0x4"/>
    </TTGlyph>
    <TTGlyph name="Tcaron.flat" xMin="25" yMin="0" xMax="568" yMax="925">
      <component glyphName="caron.cap" x="76" y="201" flags="0x4"/>
      <component glyphName="T.flat" x="0" y="0" flags="0x4"/>
    </TTGlyph>
    <TTGlyph name="Tcommaaccent" xMin="25" yMin="-262" xMax="576" yMax="725">
      <component glyphName="T" x="0" y="0" flags="0x204"/>
      <component glyphName="commaaccent.cap" x="72" y="-5" flags="0x4"/>
    </TTGlyph>
    <TTGlyph name="Tcommaaccent.flat" xMin="25" yMin="-262" xMax="568" yMax="725">
      <component glyphName="T.flat" x="0" y="0" flags="0x204"/>
      <component glyphName="commaaccent.cap" x="71" y="-5" flags="0x4"/>
    </TTGlyph>
    <TTGlyph name="Thorn" xMin="56" yMin="0" xMax="562" yMax="725">
      <contour>
        <pt x="562" y="376" on="1"/>
        <pt x="562" y="311" on="0"/>
        <pt x="520" y="217" on="0"/>
        <pt x="444" y="154" on="0"/>
        <pt x="337" y="124" on="0"/>
        <pt x="272" y="124" on="1"/>
        <pt x="251" y="124" on="1"/>
        <pt x="251" y="0" on="1"/>
        <pt x="56" y="0" on="1"/>
        <pt x="56" y="725" on="1"/>
        <pt x="251" y="725" on="1"/>
        <pt x="251" y="619" on="1"/>
        <pt x="278" y="619" on="1"/>
        <pt x="411" y="619" on="0"/>
        <pt x="562" y="501" on="0"/>
      </contour>
      <contour>
        <pt x="373" y="374" on="1"/>
        <pt x="373" y="425" on="0"/>
        <pt x="320" y="473" on="0"/>
        <pt x="269" y="473" on="1"/>
        <pt x="249" y="473" on="1"/>
        <pt x="249" y="270" on="1"/>
        <pt x="267" y="270" on="1"/>
        <pt x="318" y="271" on="0"/>
        <pt x="373" y="319" on="0"/>
      </contour>
    </TTGlyph>
    <TTGlyph name="U" xMin="51" yMin="-11" xMax="615" yMax="725">
      <contour>
        <pt x="615" y="264" on="1"/>
        <pt x="615" y="195" on="0"/>
        <pt x="575" y="92" on="0"/>
        <pt x="501" y="23" on="0"/>
        <pt x="396" y="-11" on="0"/>
        <pt x="332" y="-11" on="1"/>
        <pt x="201" y="-11" on="0"/>
        <pt x="51" y="125" on="0"/>
        <pt x="51" y="263" on="1"/>
        <pt x="51" y="725" on="1"/>
        <pt x="247" y="725" on="1"/>
        <pt x="247" y="256" on="1"/>
        <pt x="247" y="206" on="0"/>
        <pt x="291" y="151" on="0"/>
        <pt x="333" y="151" on="1"/>
        <pt x="377" y="151" on="0"/>
        <pt x="419" y="205" on="0"/>
        <pt x="419" y="255" on="1"/>
        <pt x="419" y="725" on="1"/>
        <pt x="615" y="725" on="1"/>
      </contour>
    </TTGlyph>
    <TTGlyph name="U.alt" xMin="54" yMin="-8" xMax="617" yMax="725">
      <contour>
        <pt x="443" y="57" on="1"/>
        <pt x="396" y="27" on="0"/>
        <pt x="306" y="-8" on="0"/>
        <pt x="250" y="-8" on="1"/>
        <pt x="206" y="-8" on="0"/>
        <pt x="134" y="16" on="0"/>
        <pt x="83" y="68" on="0"/>
        <pt x="54" y="148" on="0"/>
        <pt x="54" y="204" on="1"/>
        <pt x="54" y="725" on="1"/>
        <pt x="250" y="725" on="1"/>
        <pt x="250" y="237" on="1"/>
        <pt x="250" y="163" on="0"/>
        <pt x="320" y="163" on="1"/>
        <pt x="343" y="163" on="0"/>
        <pt x="393" y="183" on="0"/>
        <pt x="422" y="202" on="1"/>
        <pt x="422" y="725" on="1"/>
        <pt x="617" y="725" on="1"/>
        <pt x="617" y="0" on="1"/>
        <pt x="451" y="0" on="1"/>
      </contour>
    </TTGlyph>
    <TTGlyph name="Uacute" xMin="51" yMin="-11" xMax="615" yMax="926">
      <component glyphName="acute.cap" x="165" y="200" flags="0x4"/>
      <component glyphName="U" x="0" y="0" flags="0x4"/>
    </TTGlyph>
    <TTGlyph name="Uacute.alt" xMin="54" yMin="-8" xMax="617" yMax="926">
      <component glyphName="acute.cap" x="167" y="200" flags="0x4"/>
      <component glyphName="U.alt" x="0" y="0" flags="0x4"/>
    </TTGlyph>
    <TTGlyph name="Ubreve" xMin="51" yMin="-11" xMax="615" yMax="924">
      <component glyphName="breve.cap" x="113" y="197" flags="0x4"/>
      <component glyphName="U" x="0" y="0" flags="0x4"/>
    </TTGlyph>
    <TTGlyph name="Ubreve.alt" xMin="54" yMin="-8" xMax="617" yMax="924">
      <component glyphName="breve.cap" x="115" y="197" flags="0x4"/>
      <component glyphName="U.alt" x="0" y="0" flags="0x4"/>
    </TTGlyph>
    <TTGlyph name="Ucircumflex" xMin="51" yMin="-11" xMax="615" yMax="924">
      <component glyphName="U" x="0" y="0" flags="0x204"/>
      <component glyphName="circumflex.cap" x="111" y="200" flags="0x4"/>
    </TTGlyph>
    <TTGlyph name="Ucircumflex.alt" xMin="54" yMin="-8" xMax="617" yMax="924">
      <component glyphName="circumflex.cap" x="113" y="200" flags="0x4"/>
      <component glyphName="U.alt" x="0" y="0" flags="0x4"/>
    </TTGlyph>
    <TTGlyph name="Udieresis" xMin="51" yMin="-11" xMax="615" yMax="912">
      <component glyphName="dieresis.cap" x="113" y="200" flags="0x4"/>
      <component glyphName="U" x="0" y="0" flags="0x4"/>
    </TTGlyph>
    <TTGlyph name="Udieresis.alt" xMin="54" yMin="-8" xMax="617" yMax="912">
      <component glyphName="dieresis.cap" x="115" y="200" flags="0x4"/>
      <component glyphName="U.alt" x="0" y="0" flags="0x4"/>
    </TTGlyph>
    <TTGlyph name="Ugrave" xMin="51" yMin="-11" xMax="615" yMax="926">
      <component glyphName="grave.cap" x="61" y="200" flags="0x4"/>
      <component glyphName="U" x="0" y="0" flags="0x4"/>
    </TTGlyph>
    <TTGlyph name="Ugrave.alt" xMin="54" yMin="-8" xMax="617" yMax="926">
      <component glyphName="grave.cap" x="62" y="200" flags="0x4"/>
      <component glyphName="U.alt" x="0" y="0" flags="0x4"/>
    </TTGlyph>
    <TTGlyph name="Uhungarumlaut" xMin="51" yMin="-11" xMax="615" yMax="926">
      <component glyphName="U" x="0" y="0" flags="0x204"/>
      <component glyphName="hungarumlaut.cap" x="164" y="200" flags="0x4"/>
    </TTGlyph>
    <TTGlyph name="Uhungarumlaut.alt" xMin="54" yMin="-8" xMax="617" yMax="926">
      <component glyphName="U.alt" x="0" y="0" flags="0x204"/>
      <component glyphName="hungarumlaut.cap" x="166" y="200" flags="0x4"/>
    </TTGlyph>
    <TTGlyph name="Umacron" xMin="51" yMin="-11" xMax="615" yMax="892">
      <component glyphName="macron.cap" x="113" y="200" flags="0x4"/>
      <component glyphName="U" x="0" y="0" flags="0x4"/>
    </TTGlyph>
    <TTGlyph name="Umacron.alt" xMin="54" yMin="-8" xMax="617" yMax="892">
      <component glyphName="macron.cap" x="115" y="200" flags="0x4"/>
      <component glyphName="U.alt" x="0" y="0" flags="0x4"/>
    </TTGlyph>
    <TTGlyph name="Uogonek" xMin="51" yMin="-213" xMax="615" yMax="725">
      <contour>
        <pt x="337" y="-213" on="1"/>
        <pt x="285" y="-213" on="0"/>
        <pt x="227" y="-168" on="0"/>
        <pt x="227" y="-123" on="1"/>
        <pt x="227" y="-97" on="0"/>
        <pt x="253" y="-42" on="0"/>
        <pt x="279" y="-8" on="1"/>
        <pt x="172" y="5" on="0"/>
        <pt x="51" y="139" on="0"/>
        <pt x="51" y="263" on="1"/>
        <pt x="51" y="725" on="1"/>
        <pt x="247" y="725" on="1"/>
        <pt x="247" y="256" on="1"/>
        <pt x="247" y="206" on="0"/>
        <pt x="291" y="151" on="0"/>
        <pt x="333" y="151" on="1"/>
        <pt x="377" y="151" on="0"/>
        <pt x="419" y="205" on="0"/>
        <pt x="419" y="255" on="1"/>
        <pt x="419" y="725" on="1"/>
        <pt x="615" y="725" on="1"/>
        <pt x="615" y="264" on="1"/>
        <pt x="615" y="140" on="0"/>
        <pt x="491" y="5" on="0"/>
        <pt x="385" y="-8" on="1"/>
        <pt x="383" y="-11" on="0"/>
        <pt x="380" y="-17" on="0"/>
        <pt x="378" y="-20" on="1"/>
        <pt x="366" y="-41" on="0"/>
        <pt x="352" y="-71" on="0"/>
        <pt x="352" y="-85" on="1"/>
        <pt x="352" y="-100" on="0"/>
        <pt x="371" y="-119" on="0"/>
        <pt x="394" y="-119" on="1"/>
        <pt x="408" y="-119" on="0"/>
        <pt x="430" y="-115" on="0"/>
        <pt x="445" y="-111" on="1"/>
        <pt x="445" y="-191" on="1"/>
        <pt x="416" y="-202" on="0"/>
        <pt x="366" y="-213" on="0"/>
      </contour>
    </TTGlyph>
    <TTGlyph name="Uogonek.alt" xMin="54" yMin="-213" xMax="617" yMax="725">
      <contour>
        <pt x="609" y="-191" on="1"/>
        <pt x="580" y="-202" on="0"/>
        <pt x="530" y="-213" on="0"/>
        <pt x="501" y="-213" on="1"/>
        <pt x="449" y="-213" on="0"/>
        <pt x="391" y="-168" on="0"/>
        <pt x="391" y="-123" on="1"/>
        <pt x="391" y="-97" on="0"/>
        <pt x="416" y="-42" on="0"/>
        <pt x="442" y="-10" on="1"/>
        <pt x="451" y="2" on="1"/>
        <pt x="443" y="57" on="1"/>
        <pt x="396" y="27" on="0"/>
        <pt x="306" y="-8" on="0"/>
        <pt x="250" y="-8" on="1"/>
        <pt x="206" y="-8" on="0"/>
        <pt x="134" y="16" on="0"/>
        <pt x="83" y="68" on="0"/>
        <pt x="54" y="148" on="0"/>
        <pt x="54" y="204" on="1"/>
        <pt x="54" y="725" on="1"/>
        <pt x="250" y="725" on="1"/>
        <pt x="250" y="237" on="1"/>
        <pt x="250" y="163" on="0"/>
        <pt x="320" y="163" on="1"/>
        <pt x="343" y="163" on="0"/>
        <pt x="393" y="183" on="0"/>
        <pt x="422" y="202" on="1"/>
        <pt x="422" y="725" on="1"/>
        <pt x="617" y="725" on="1"/>
        <pt x="617" y="0" on="1"/>
        <pt x="554" y="0" on="1"/>
        <pt x="550" y="-6" on="1"/>
        <pt x="534" y="-33" on="0"/>
        <pt x="516" y="-69" on="0"/>
        <pt x="516" y="-85" on="1"/>
        <pt x="516" y="-100" on="0"/>
        <pt x="535" y="-119" on="0"/>
        <pt x="558" y="-119" on="1"/>
        <pt x="572" y="-119" on="0"/>
        <pt x="594" y="-115" on="0"/>
        <pt x="609" y="-111" on="1"/>
        <pt x="609" y="-191" on="1"/>
      </contour>
    </TTGlyph>
    <TTGlyph name="Uring" xMin="51" yMin="-11" xMax="615" yMax="994">
      <component glyphName="U" x="0" y="0" flags="0x204"/>
      <component glyphName="ring.cap" x="113" y="194" flags="0x4"/>
    </TTGlyph>
    <TTGlyph name="Uring.alt" xMin="54" yMin="-8" xMax="617" yMax="994">
      <component glyphName="ring.cap" x="115" y="194" flags="0x4"/>
      <component glyphName="U.alt" x="0" y="0" flags="0x4"/>
    </TTGlyph>
    <TTGlyph name="V" xMin="12" yMin="-2" xMax="654" yMax="734">
      <contour>
        <pt x="441" y="-2" on="1"/>
        <pt x="222" y="-2" on="1"/>
        <pt x="12" y="702" on="1"/>
        <pt x="222" y="734" on="1"/>
        <pt x="342" y="242" on="1"/>
        <pt x="455" y="725" on="1"/>
        <pt x="654" y="725" on="1"/>
      </contour>
    </TTGlyph>
    <TTGlyph name="V.flat" xMin="12" yMin="-2" xMax="659" yMax="725">
      <contour>
        <pt x="442" y="-2" on="1"/>
        <pt x="228" y="-2" on="1"/>
        <pt x="12" y="725" on="1"/>
        <pt x="231" y="725" on="1"/>
        <pt x="345" y="242" on="1"/>
        <pt x="459" y="725" on="1"/>
        <pt x="659" y="725" on="1"/>
      </contour>
    </TTGlyph>
    <TTGlyph name="W" xMin="16" yMin="0" xMax="938" yMax="734">
      <contour>
        <pt x="770" y="0" on="1"/>
        <pt x="567" y="0" on="1"/>
        <pt x="474" y="453" on="1"/>
        <pt x="383" y="0" on="1"/>
        <pt x="181" y="0" on="1"/>
        <pt x="16" y="704" on="1"/>
        <pt x="224" y="734" on="1"/>
        <pt x="304" y="286" on="1"/>
        <pt x="388" y="725" on="1"/>
        <pt x="589" y="725" on="1"/>
        <pt x="674" y="286" on="1"/>
        <pt x="749" y="725" on="1"/>
        <pt x="938" y="725" on="1"/>
      </contour>
    </TTGlyph>
    <TTGlyph name="W.alt" xMin="14" yMin="-2" xMax="949" yMax="734">
      <contour>
        <pt x="748" y="-2" on="1"/>
        <pt x="554" y="-2" on="1"/>
        <pt x="478" y="291" on="1"/>
        <pt x="398" y="-2" on="1"/>
        <pt x="206" y="-2" on="1"/>
        <pt x="14" y="704" on="1"/>
        <pt x="219" y="734" on="1"/>
        <pt x="331" y="258" on="1"/>
        <pt x="405" y="529" on="1"/>
        <pt x="357" y="705" on="1"/>
        <pt x="559" y="734" on="1"/>
        <pt x="657" y="258" on="1"/>
        <pt x="757" y="725" on="1"/>
        <pt x="949" y="725" on="1"/>
      </contour>
    </TTGlyph>
    <TTGlyph name="W.alt_flat" xMin="12" yMin="-2" xMax="953" yMax="725">
      <contour>
        <pt x="752" y="-2" on="1"/>
        <pt x="557" y="-2" on="1"/>
        <pt x="481" y="291" on="1"/>
        <pt x="402" y="-2" on="1"/>
        <pt x="209" y="-2" on="1"/>
        <pt x="12" y="725" on="1"/>
        <pt x="224" y="725" on="1"/>
        <pt x="335" y="258" on="1"/>
        <pt x="408" y="528" on="1"/>
        <pt x="355" y="725" on="1"/>
        <pt x="565" y="725" on="1"/>
        <pt x="660" y="258" on="1"/>
        <pt x="761" y="725" on="1"/>
        <pt x="953" y="725" on="1"/>
      </contour>
    </TTGlyph>
    <TTGlyph name="W.flat" xMin="15" yMin="0" xMax="941" yMax="725">
      <contour>
        <pt x="774" y="0" on="1"/>
        <pt x="570" y="0" on="1"/>
        <pt x="477" y="453" on="1"/>
        <pt x="386" y="0" on="1"/>
        <pt x="183" y="0" on="1"/>
        <pt x="15" y="725" on="1"/>
        <pt x="228" y="725" on="1"/>
        <pt x="307" y="286" on="1"/>
        <pt x="390" y="725" on="1"/>
        <pt x="592" y="725" on="1"/>
        <pt x="677" y="286" on="1"/>
        <pt x="753" y="725" on="1"/>
        <pt x="941" y="725" on="1"/>
      </contour>
    </TTGlyph>
    <TTGlyph name="Wacute" xMin="16" yMin="0" xMax="938" yMax="927">
      <component glyphName="acute.cap" x="319" y="201" flags="0x4"/>
      <component glyphName="W" x="0" y="0" flags="0x4"/>
    </TTGlyph>
    <TTGlyph name="Wacute.alt" xMin="14" yMin="-2" xMax="949" yMax="927">
      <component glyphName="acute.cap" x="314" y="201" flags="0x4"/>
      <component glyphName="W.alt" x="0" y="0" flags="0x4"/>
    </TTGlyph>
    <TTGlyph name="Wacute.alt_flat" xMin="12" yMin="-2" xMax="953" yMax="927">
      <component glyphName="acute.cap" x="315" y="201" flags="0x4"/>
      <component glyphName="W.alt_flat" x="0" y="0" flags="0x4"/>
    </TTGlyph>
    <TTGlyph name="Wacute.flat" xMin="15" yMin="0" xMax="941" yMax="927">
      <component glyphName="acute.cap" x="323" y="201" flags="0x4"/>
      <component glyphName="W.flat" x="0" y="0" flags="0x4"/>
    </TTGlyph>
    <TTGlyph name="Wcircumflex" xMin="16" yMin="0" xMax="938" yMax="925">
      <component glyphName="W" x="0" y="0" flags="0x204"/>
      <component glyphName="circumflex.cap" x="266" y="201" flags="0x4"/>
    </TTGlyph>
    <TTGlyph name="Wcircumflex.alt" xMin="14" yMin="-2" xMax="949" yMax="925">
      <component glyphName="W.alt" x="0" y="0" flags="0x204"/>
      <component glyphName="circumflex.cap" x="260" y="201" flags="0x4"/>
    </TTGlyph>
    <TTGlyph name="Wcircumflex.alt_flat" xMin="12" yMin="-2" xMax="953" yMax="925">
      <component glyphName="W.alt_flat" x="0" y="0" flags="0x204"/>
      <component glyphName="circumflex.cap" x="261" y="201" flags="0x4"/>
    </TTGlyph>
    <TTGlyph name="Wcircumflex.flat" xMin="15" yMin="0" xMax="941" yMax="925">
      <component glyphName="W.flat" x="0" y="0" flags="0x204"/>
      <component glyphName="circumflex.cap" x="269" y="201" flags="0x4"/>
    </TTGlyph>
    <TTGlyph name="Wdieresis" xMin="16" yMin="0" xMax="938" yMax="913">
      <component glyphName="dieresis.cap" x="267" y="201" flags="0x4"/>
      <component glyphName="W" x="0" y="0" flags="0x4"/>
    </TTGlyph>
    <TTGlyph name="Wdieresis.alt" xMin="14" yMin="-2" xMax="949" yMax="913">
      <component glyphName="dieresis.cap" x="261" y="201" flags="0x4"/>
      <component glyphName="W.alt" x="0" y="0" flags="0x4"/>
    </TTGlyph>
    <TTGlyph name="Wdieresis.alt_flat" xMin="12" yMin="-2" xMax="953" yMax="913">
      <component glyphName="dieresis.cap" x="263" y="201" flags="0x4"/>
      <component glyphName="W.alt_flat" x="0" y="0" flags="0x4"/>
    </TTGlyph>
    <TTGlyph name="Wdieresis.flat" xMin="15" yMin="0" xMax="941" yMax="913">
      <component glyphName="dieresis.cap" x="271" y="201" flags="0x4"/>
      <component glyphName="W.flat" x="0" y="0" flags="0x4"/>
    </TTGlyph>
    <TTGlyph name="Wgrave" xMin="16" yMin="0" xMax="938" yMax="927">
      <component glyphName="grave.cap" x="215" y="201" flags="0x4"/>
      <component glyphName="W" x="0" y="0" flags="0x4"/>
    </TTGlyph>
    <TTGlyph name="Wgrave.alt" xMin="14" yMin="-2" xMax="949" yMax="927">
      <component glyphName="grave.cap" x="208" y="201" flags="0x4"/>
      <component glyphName="W.alt" x="0" y="0" flags="0x4"/>
    </TTGlyph>
    <TTGlyph name="Wgrave.alt_flat" xMin="12" yMin="-2" xMax="953" yMax="927">
      <component glyphName="grave.cap" x="210" y="201" flags="0x4"/>
      <component glyphName="W.alt_flat" x="0" y="0" flags="0x4"/>
    </TTGlyph>
    <TTGlyph name="Wgrave.flat" xMin="15" yMin="0" xMax="941" yMax="927">
      <component glyphName="grave.cap" x="218" y="201" flags="0x4"/>
      <component glyphName="W.flat" x="0" y="0" flags="0x4"/>
    </TTGlyph>
    <TTGlyph name="X" xMin="10" yMin="-9" xMax="629" yMax="734">
      <contour>
        <pt x="425" y="-9" on="1"/>
        <pt x="314" y="229" on="1"/>
        <pt x="209" y="0" on="1"/>
        <pt x="10" y="0" on="1"/>
        <pt x="201" y="365" on="1"/>
        <pt x="23" y="704" on="1"/>
        <pt x="227" y="734" on="1"/>
        <pt x="325" y="520" on="1"/>
        <pt x="416" y="725" on="1"/>
        <pt x="616" y="725" on="1"/>
        <pt x="437" y="381" on="1"/>
        <pt x="629" y="21" on="1"/>
      </contour>
    </TTGlyph>
    <TTGlyph name="X.flat" xMin="10" yMin="0" xMax="628" yMax="725">
      <contour>
        <pt x="409" y="0" on="1"/>
        <pt x="312" y="222" on="1"/>
        <pt x="209" y="0" on="1"/>
        <pt x="10" y="0" on="1"/>
        <pt x="202" y="362" on="1"/>
        <pt x="18" y="725" on="1"/>
        <pt x="236" y="725" on="1"/>
        <pt x="326" y="518" on="1"/>
        <pt x="420" y="725" on="1"/>
        <pt x="619" y="725" on="1"/>
        <pt x="437" y="377" on="1"/>
        <pt x="628" y="0" on="1"/>
      </contour>
    </TTGlyph>
    <TTGlyph name="Y" xMin="6" yMin="0" xMax="647" yMax="734">
      <contour>
        <pt x="421" y="258" on="1"/>
        <pt x="421" y="0" on="1"/>
        <pt x="226" y="0" on="1"/>
        <pt x="226" y="253" on="1"/>
        <pt x="6" y="706" on="1"/>
        <pt x="213" y="734" on="1"/>
        <pt x="332" y="448" on="1"/>
        <pt x="443" y="725" on="1"/>
        <pt x="647" y="725" on="1"/>
      </contour>
    </TTGlyph>
    <TTGlyph name="Y.flat" xMin="2" yMin="0" xMax="647" yMax="725">
      <contour>
        <pt x="422" y="258" on="1"/>
        <pt x="422" y="0" on="1"/>
        <pt x="227" y="0" on="1"/>
        <pt x="227" y="253" on="1"/>
        <pt x="2" y="725" on="1"/>
        <pt x="222" y="725" on="1"/>
        <pt x="333" y="448" on="1"/>
        <pt x="444" y="725" on="1"/>
        <pt x="647" y="725" on="1"/>
      </contour>
    </TTGlyph>
    <TTGlyph name="Yacute" xMin="6" yMin="0" xMax="647" yMax="926">
      <component glyphName="Y" x="0" y="0" flags="0x204"/>
      <component glyphName="acute.cap" x="166" y="200" flags="0x4"/>
    </TTGlyph>
    <TTGlyph name="Yacute.flat" xMin="2" yMin="0" xMax="647" yMax="926">
      <component glyphName="acute.cap" x="166" y="200" flags="0x4"/>
      <component glyphName="Y.flat" x="0" y="0" flags="0x4"/>
    </TTGlyph>
    <TTGlyph name="Ycircumflex" xMin="6" yMin="0" xMax="647" yMax="924">
      <component glyphName="Y" x="0" y="0" flags="0x204"/>
      <component glyphName="circumflex.cap" x="112" y="200" flags="0x4"/>
    </TTGlyph>
    <TTGlyph name="Ycircumflex.flat" xMin="2" yMin="0" xMax="647" yMax="924">
      <component glyphName="Y.flat" x="0" y="0" flags="0x204"/>
      <component glyphName="circumflex.cap" x="112" y="200" flags="0x4"/>
    </TTGlyph>
    <TTGlyph name="Ydieresis" xMin="6" yMin="0" xMax="647" yMax="912">
      <component glyphName="Y" x="0" y="0" flags="0x204"/>
      <component glyphName="dieresis.cap" x="114" y="200" flags="0x4"/>
    </TTGlyph>
    <TTGlyph name="Ydieresis.flat" xMin="2" yMin="0" xMax="647" yMax="912">
      <component glyphName="dieresis.cap" x="114" y="200" flags="0x4"/>
      <component glyphName="Y.flat" x="0" y="0" flags="0x4"/>
    </TTGlyph>
    <TTGlyph name="Ygrave" xMin="6" yMin="0" xMax="647" yMax="926">
      <component glyphName="Y" x="0" y="0" flags="0x204"/>
      <component glyphName="grave.cap" x="61" y="200" flags="0x4"/>
    </TTGlyph>
    <TTGlyph name="Ygrave.flat" xMin="2" yMin="0" xMax="647" yMax="926">
      <component glyphName="grave.cap" x="61" y="200" flags="0x4"/>
      <component glyphName="Y.flat" x="0" y="0" flags="0x4"/>
    </TTGlyph>
    <TTGlyph name="Z" xMin="37" yMin="0" xMax="553" yMax="725">
      <contour>
        <pt x="37" y="0" on="1"/>
        <pt x="37" y="144" on="1"/>
        <pt x="313" y="571" on="1"/>
        <pt x="69" y="571" on="1"/>
        <pt x="45" y="725" on="1"/>
        <pt x="544" y="725" on="1"/>
        <pt x="544" y="581" on="1"/>
        <pt x="269" y="155" on="1"/>
        <pt x="529" y="155" on="1"/>
        <pt x="553" y="0" on="1"/>
      </contour>
    </TTGlyph>
    <TTGlyph name="Z.flat" xMin="37" yMin="0" xMax="544" yMax="725">
      <contour>
        <pt x="37" y="0" on="1"/>
        <pt x="37" y="144" on="1"/>
        <pt x="313" y="571" on="1"/>
        <pt x="55" y="571" on="1"/>
        <pt x="55" y="725" on="1"/>
        <pt x="544" y="725" on="1"/>
        <pt x="544" y="581" on="1"/>
        <pt x="269" y="155" on="1"/>
        <pt x="544" y="155" on="1"/>
        <pt x="544" y="0" on="1"/>
      </contour>
    </TTGlyph>
    <TTGlyph name="Zacute" xMin="37" yMin="0" xMax="553" yMax="927">
      <component glyphName="Z" x="0" y="0" flags="0x204"/>
      <component glyphName="acute.cap" x="131" y="201" flags="0x4"/>
    </TTGlyph>
    <TTGlyph name="Zacute.flat" xMin="37" yMin="0" xMax="544" yMax="927">
      <component glyphName="acute.cap" x="131" y="201" flags="0x4"/>
      <component glyphName="Z.flat" x="0" y="0" flags="0x4"/>
    </TTGlyph>
    <TTGlyph name="Zcaron" xMin="37" yMin="0" xMax="553" yMax="925">
      <component glyphName="caron.cap" x="79" y="201" flags="0x4"/>
      <component glyphName="Z" x="0" y="0" flags="0x4"/>
    </TTGlyph>
    <TTGlyph name="Zcaron.flat" xMin="37" yMin="0" xMax="544" yMax="925">
      <component glyphName="caron.cap" x="79" y="201" flags="0x4"/>
      <component glyphName="Z.flat" x="0" y="0" flags="0x4"/>
    </TTGlyph>
    <TTGlyph name="Zdotaccent" xMin="37" yMin="0" xMax="553" yMax="913">
      <component glyphName="dotaccent.cap" x="78" y="201" flags="0x4"/>
      <component glyphName="Z" x="0" y="0" flags="0x4"/>
    </TTGlyph>
    <TTGlyph name="Zdotaccent.flat" xMin="37" yMin="0" xMax="544" yMax="913">
      <component glyphName="dotaccent.cap" x="78" y="201" flags="0x4"/>
      <component glyphName="Z.flat" x="0" y="0" flags="0x4"/>
    </TTGlyph>
    <TTGlyph name="a" xMin="29" yMin="-11" xMax="490" yMax="561">
      <contour>
        <pt x="331" y="0" on="1"/>
        <pt x="319" y="62" on="1"/>
        <pt x="287" y="29" on="0"/>
        <pt x="214" y="-11" on="0"/>
        <pt x="167" y="-11" on="1"/>
        <pt x="106" y="-11" on="0"/>
        <pt x="29" y="66" on="0"/>
        <pt x="29" y="141" on="1"/>
        <pt x="29" y="235" on="0"/>
        <pt x="168" y="332" on="0"/>
        <pt x="310" y="348" on="1"/>
        <pt x="310" y="360" on="1"/>
        <pt x="310" y="392" on="0"/>
        <pt x="277" y="422" on="0"/>
        <pt x="240" y="422" on="1"/>
        <pt x="201" y="422" on="0"/>
        <pt x="123" y="400" on="0"/>
        <pt x="81" y="380" on="1"/>
        <pt x="60" y="518" on="1"/>
        <pt x="105" y="538" on="0"/>
        <pt x="211" y="561" on="0"/>
        <pt x="273" y="561" on="1"/>
        <pt x="380" y="561" on="0"/>
        <pt x="490" y="474" on="0"/>
        <pt x="490" y="368" on="1"/>
        <pt x="490" y="0" on="1"/>
      </contour>
      <contour>
        <pt x="310" y="263" on="1"/>
        <pt x="249" y="249" on="0"/>
        <pt x="200" y="200" on="0"/>
        <pt x="200" y="165" on="1"/>
        <pt x="200" y="141" on="0"/>
        <pt x="225" y="115" on="0"/>
        <pt x="244" y="115" on="1"/>
        <pt x="261" y="115" on="0"/>
        <pt x="291" y="130" on="0"/>
        <pt x="310" y="144" on="1"/>
      </contour>
    </TTGlyph>
    <TTGlyph name="aacute" xMin="29" yMin="-11" xMax="490" yMax="778">
      <component glyphName="a" x="0" y="0" flags="0x204"/>
      <component glyphName="acute" x="94" y="3" flags="0x4"/>
    </TTGlyph>
    <TTGlyph name="abreve" xMin="29" yMin="-11" xMax="490" yMax="778">
      <component glyphName="a" x="0" y="0" flags="0x204"/>
      <component glyphName="breve" x="37" y="3" flags="0x4"/>
    </TTGlyph>
    <TTGlyph name="acircumflex" xMin="29" yMin="-11" xMax="490" yMax="775">
      <component glyphName="a" x="0" y="0" flags="0x204"/>
      <component glyphName="circumflex" x="37" y="3" flags="0x4"/>
    </TTGlyph>
    <TTGlyph name="acute" xMin="110" yMin="605" xMax="385" yMax="775">
      <contour>
        <pt x="225" y="605" on="1"/>
        <pt x="110" y="605" on="1"/>
        <pt x="166" y="775" on="1"/>
        <pt x="385" y="738" on="1"/>
      </contour>
    </TTGlyph>
    <TTGlyph name="acute.cap" xMin="103" yMin="567" xMax="363" yMax="726">
      <contour>
        <pt x="212" y="567" on="1"/>
        <pt x="103" y="567" on="1"/>
        <pt x="155" y="726" on="1"/>
        <pt x="363" y="692" on="1"/>
      </contour>
    </TTGlyph>
    <TTGlyph name="adieresis" xMin="29" yMin="-11" xMax="490" yMax="761">
      <component glyphName="a" x="0" y="0" flags="0x204"/>
      <component glyphName="dieresis" x="37" y="3" flags="0x4"/>
    </TTGlyph>
    <TTGlyph name="ae" xMin="29" yMin="-11" xMax="782" yMax="563">
      <contour>
        <pt x="782" y="282" on="1"/>
        <pt x="782" y="268" on="0"/>
        <pt x="781" y="231" on="0"/>
        <pt x="779" y="224" on="1"/>
        <pt x="485" y="224" on="1"/>
        <pt x="493" y="170" on="0"/>
        <pt x="555" y="124" on="0"/>
        <pt x="603" y="124" on="1"/>
        <pt x="643" y="124" on="0"/>
        <pt x="721" y="148" on="0"/>
        <pt x="762" y="170" on="1"/>
        <pt x="781" y="43" on="1"/>
        <pt x="740" y="19" on="0"/>
        <pt x="636" y="-11" on="0"/>
        <pt x="574" y="-11" on="1"/>
        <pt x="511" y="-11" on="0"/>
        <pt x="409" y="26" on="0"/>
        <pt x="374" y="63" on="1"/>
        <pt x="332" y="29" on="0"/>
        <pt x="243" y="-11" on="0"/>
        <pt x="190" y="-11" on="1"/>
        <pt x="117" y="-11" on="0"/>
        <pt x="29" y="66" on="0"/>
        <pt x="29" y="141" on="1"/>
        <pt x="29" y="234" on="0"/>
        <pt x="167" y="331" on="0"/>
        <pt x="309" y="347" on="1"/>
        <pt x="309" y="360" on="1"/>
        <pt x="309" y="392" on="0"/>
        <pt x="277" y="422" on="0"/>
        <pt x="241" y="422" on="1"/>
        <pt x="201" y="422" on="0"/>
        <pt x="123" y="400" on="0"/>
        <pt x="81" y="380" on="1"/>
        <pt x="60" y="518" on="1"/>
        <pt x="104" y="538" on="0"/>
        <pt x="206" y="561" on="0"/>
        <pt x="263" y="561" on="1"/>
        <pt x="320" y="561" on="0"/>
        <pt x="394" y="532" on="0"/>
        <pt x="418" y="500" on="1"/>
        <pt x="445" y="530" on="0"/>
        <pt x="515" y="563" on="0"/>
        <pt x="563" y="563" on="1"/>
        <pt x="619" y="563" on="0"/>
        <pt x="701" y="521" on="0"/>
        <pt x="755" y="446" on="0"/>
        <pt x="782" y="343" on="0"/>
      </contour>
      <contour>
        <pt x="613" y="325" on="1"/>
        <pt x="611" y="385" on="0"/>
        <pt x="577" y="443" on="0"/>
        <pt x="548" y="443" on="1"/>
        <pt x="519" y="443" on="0"/>
        <pt x="484" y="388" on="0"/>
        <pt x="482" y="325" on="1"/>
      </contour>
      <contour>
        <pt x="322" y="150" on="1"/>
        <pt x="306" y="201" on="0"/>
        <pt x="305" y="261" on="1"/>
        <pt x="305" y="262" on="1"/>
        <pt x="246" y="248" on="0"/>
        <pt x="200" y="199" on="0"/>
        <pt x="200" y="168" on="1"/>
        <pt x="200" y="142" on="0"/>
        <pt x="226" y="116" on="0"/>
        <pt x="247" y="116" on="1"/>
        <pt x="267" y="116" on="0"/>
        <pt x="302" y="133" on="0"/>
      </contour>
    </TTGlyph>
    <TTGlyph name="aeacute" xMin="29" yMin="-11" xMax="782" yMax="775">
      <component glyphName="acute" x="236" y="0" flags="0x4"/>
      <component glyphName="ae" x="0" y="0" flags="0x4"/>
    </TTGlyph>
    <TTGlyph name="agrave" xMin="29" yMin="-11" xMax="490" yMax="778">
      <component glyphName="a" x="0" y="0" flags="0x204"/>
      <component glyphName="grave" x="-19" y="3" flags="0x4"/>
    </TTGlyph>
    <TTGlyph name="amacron" xMin="29" yMin="-11" xMax="490" yMax="740">
      <component glyphName="a" x="0" y="0" flags="0x204"/>
      <component glyphName="macron" x="37" y="3" flags="0x4"/>
    </TTGlyph>
    <TTGlyph name="ampersand" xMin="26" yMin="-13" xMax="655" yMax="738">
      <contour>
        <pt x="467" y="-6" on="1"/>
        <pt x="421" y="54" on="1"/>
        <pt x="383" y="21" on="0"/>
        <pt x="294" y="-13" on="0"/>
        <pt x="240" y="-13" on="1"/>
        <pt x="192" y="-13" on="0"/>
        <pt x="113" y="15" on="0"/>
        <pt x="57" y="68" on="0"/>
        <pt x="26" y="142" on="0"/>
        <pt x="26" y="189" on="1"/>
        <pt x="26" y="262" on="0"/>
        <pt x="98" y="366" on="0"/>
        <pt x="160" y="401" on="1"/>
        <pt x="129" y="446" on="0"/>
        <pt x="105" y="517" on="0"/>
        <pt x="105" y="558" on="1"/>
        <pt x="105" y="597" on="0"/>
        <pt x="134" y="663" on="0"/>
        <pt x="188" y="711" on="0"/>
        <pt x="265" y="738" on="0"/>
        <pt x="313" y="738" on="1"/>
        <pt x="369" y="738" on="0"/>
        <pt x="456" y="716" on="0"/>
        <pt x="496" y="699" on="1"/>
        <pt x="470" y="545" on="1"/>
        <pt x="429" y="565" on="0"/>
        <pt x="366" y="586" on="0"/>
        <pt x="337" y="586" on="1"/>
        <pt x="310" y="586" on="0"/>
        <pt x="283" y="561" on="0"/>
        <pt x="283" y="540" on="1"/>
        <pt x="283" y="524" on="0"/>
        <pt x="298" y="494" on="0"/>
        <pt x="315" y="471" on="1"/>
        <pt x="431" y="316" on="1"/>
        <pt x="439" y="342" on="0"/>
        <pt x="451" y="402" on="0"/>
        <pt x="456" y="437" on="1"/>
        <pt x="599" y="400" on="1"/>
        <pt x="589" y="337" on="0"/>
        <pt x="553" y="231" on="0"/>
        <pt x="528" y="186" on="1"/>
        <pt x="655" y="16" on="1"/>
      </contour>
      <contour>
        <pt x="271" y="127" on="1"/>
        <pt x="309" y="127" on="0"/>
        <pt x="342" y="160" on="1"/>
        <pt x="239" y="296" on="1"/>
        <pt x="219" y="275" on="0"/>
        <pt x="198" y="229" on="0"/>
        <pt x="198" y="203" on="1"/>
        <pt x="198" y="168" on="0"/>
        <pt x="238" y="127" on="0"/>
      </contour>
    </TTGlyph>
    <TTGlyph name="ampersand.flat" xMin="26" yMin="-13" xMax="663" yMax="738">
      <contour>
        <pt x="459" y="0" on="1"/>
        <pt x="420" y="53" on="1"/>
        <pt x="382" y="21" on="0"/>
        <pt x="294" y="-13" on="0"/>
        <pt x="240" y="-13" on="1"/>
        <pt x="192" y="-13" on="0"/>
        <pt x="113" y="15" on="0"/>
        <pt x="57" y="68" on="0"/>
        <pt x="26" y="142" on="0"/>
        <pt x="26" y="189" on="1"/>
        <pt x="26" y="262" on="0"/>
        <pt x="98" y="366" on="0"/>
        <pt x="160" y="401" on="1"/>
        <pt x="129" y="446" on="0"/>
        <pt x="105" y="517" on="0"/>
        <pt x="105" y="558" on="1"/>
        <pt x="105" y="597" on="0"/>
        <pt x="134" y="663" on="0"/>
        <pt x="188" y="711" on="0"/>
        <pt x="265" y="738" on="0"/>
        <pt x="313" y="738" on="1"/>
        <pt x="369" y="738" on="0"/>
        <pt x="456" y="716" on="0"/>
        <pt x="496" y="699" on="1"/>
        <pt x="470" y="545" on="1"/>
        <pt x="429" y="565" on="0"/>
        <pt x="366" y="586" on="0"/>
        <pt x="337" y="586" on="1"/>
        <pt x="310" y="586" on="0"/>
        <pt x="283" y="561" on="0"/>
        <pt x="283" y="540" on="1"/>
        <pt x="283" y="524" on="0"/>
        <pt x="298" y="494" on="0"/>
        <pt x="315" y="471" on="1"/>
        <pt x="430" y="315" on="1"/>
        <pt x="438" y="341" on="0"/>
        <pt x="451" y="402" on="0"/>
        <pt x="456" y="437" on="1"/>
        <pt x="599" y="400" on="1"/>
        <pt x="578" y="274" on="0"/>
        <pt x="527" y="184" on="1"/>
        <pt x="663" y="0" on="1"/>
      </contour>
      <contour>
        <pt x="271" y="127" on="1"/>
        <pt x="307" y="127" on="0"/>
        <pt x="342" y="160" on="1"/>
        <pt x="239" y="296" on="1"/>
        <pt x="219" y="275" on="0"/>
        <pt x="198" y="229" on="0"/>
        <pt x="198" y="203" on="1"/>
        <pt x="198" y="168" on="0"/>
        <pt x="238" y="127" on="0"/>
      </contour>
    </TTGlyph>
    <TTGlyph name="aogonek" xMin="29" yMin="-226" xMax="498" yMax="561">
      <contour>
        <pt x="439" y="0" on="1"/>
        <pt x="435" y="-7" on="1"/>
        <pt x="418" y="-36" on="0"/>
        <pt x="400" y="-73" on="0"/>
        <pt x="400" y="-90" on="1"/>
        <pt x="400" y="-107" on="0"/>
        <pt x="420" y="-127" on="0"/>
        <pt x="444" y="-127" on="1"/>
        <pt x="458" y="-127" on="0"/>
        <pt x="482" y="-123" on="0"/>
        <pt x="498" y="-118" on="1"/>
        <pt x="498" y="-203" on="1"/>
        <pt x="468" y="-214" on="0"/>
        <pt x="415" y="-226" on="0"/>
        <pt x="384" y="-226" on="1"/>
        <pt x="329" y="-226" on="0"/>
        <pt x="268" y="-179" on="0"/>
        <pt x="268" y="-131" on="1"/>
        <pt x="268" y="-77" on="0"/>
        <pt x="323" y="-9" on="1"/>
        <pt x="325" y="-6" on="0"/>
        <pt x="329" y="-1" on="0"/>
        <pt x="331" y="1" on="1"/>
        <pt x="319" y="62" on="1"/>
        <pt x="287" y="29" on="0"/>
        <pt x="214" y="-11" on="0"/>
        <pt x="167" y="-11" on="1"/>
        <pt x="106" y="-11" on="0"/>
        <pt x="29" y="66" on="0"/>
        <pt x="29" y="141" on="1"/>
        <pt x="29" y="235" on="0"/>
        <pt x="168" y="332" on="0"/>
        <pt x="310" y="348" on="1"/>
        <pt x="310" y="360" on="1"/>
        <pt x="310" y="392" on="0"/>
        <pt x="277" y="422" on="0"/>
        <pt x="240" y="422" on="1"/>
        <pt x="201" y="422" on="0"/>
        <pt x="123" y="400" on="0"/>
        <pt x="81" y="380" on="1"/>
        <pt x="60" y="518" on="1"/>
        <pt x="105" y="538" on="0"/>
        <pt x="211" y="561" on="0"/>
        <pt x="273" y="561" on="1"/>
        <pt x="380" y="561" on="0"/>
        <pt x="490" y="474" on="0"/>
        <pt x="490" y="368" on="1"/>
        <pt x="490" y="0" on="1"/>
      </contour>
      <contour>
        <pt x="310" y="263" on="1"/>
        <pt x="249" y="249" on="0"/>
        <pt x="200" y="200" on="0"/>
        <pt x="200" y="165" on="1"/>
        <pt x="200" y="141" on="0"/>
        <pt x="225" y="115" on="0"/>
        <pt x="244" y="115" on="1"/>
        <pt x="261" y="115" on="0"/>
        <pt x="291" y="130" on="0"/>
        <pt x="310" y="144" on="1"/>
      </contour>
    </TTGlyph>
    <TTGlyph name="aring" xMin="29" yMin="-11" xMax="490" yMax="856">
      <component glyphName="a" x="0" y="0" flags="0x204"/>
      <component glyphName="ring" x="37" y="3" flags="0x4"/>
    </TTGlyph>
    <TTGlyph name="aringacute" xMin="29" yMin="-11" xMax="490" yMax="1049">
      <contour>
        <pt x="331" y="0" on="1"/>
        <pt x="319" y="62" on="1"/>
        <pt x="287" y="29" on="0"/>
        <pt x="214" y="-11" on="0"/>
        <pt x="167" y="-11" on="1"/>
        <pt x="106" y="-11" on="0"/>
        <pt x="29" y="66" on="0"/>
        <pt x="29" y="141" on="1"/>
        <pt x="29" y="235" on="0"/>
        <pt x="168" y="332" on="0"/>
        <pt x="310" y="348" on="1"/>
        <pt x="310" y="360" on="1"/>
        <pt x="310" y="392" on="0"/>
        <pt x="277" y="422" on="0"/>
        <pt x="240" y="422" on="1"/>
        <pt x="201" y="422" on="0"/>
        <pt x="123" y="400" on="0"/>
        <pt x="81" y="380" on="1"/>
        <pt x="60" y="518" on="1"/>
        <pt x="105" y="538" on="0"/>
        <pt x="211" y="561" on="0"/>
        <pt x="273" y="561" on="1"/>
        <pt x="380" y="561" on="0"/>
        <pt x="490" y="474" on="0"/>
        <pt x="490" y="368" on="1"/>
        <pt x="490" y="0" on="1"/>
      </contour>
      <contour>
        <pt x="310" y="263" on="1"/>
        <pt x="249" y="249" on="0"/>
        <pt x="200" y="200" on="0"/>
        <pt x="200" y="165" on="1"/>
        <pt x="200" y="141" on="0"/>
        <pt x="225" y="115" on="0"/>
        <pt x="244" y="115" on="1"/>
        <pt x="261" y="115" on="0"/>
        <pt x="291" y="130" on="0"/>
        <pt x="310" y="144" on="1"/>
      </contour>
      <contour>
        <pt x="328" y="879" on="1"/>
        <pt x="213" y="879" on="1"/>
        <pt x="269" y="1049" on="1"/>
        <pt x="488" y="1012" on="1"/>
      </contour>
      <contour>
        <pt x="428" y="730" on="1"/>
        <pt x="428" y="673" on="0"/>
        <pt x="346" y="603" on="0"/>
        <pt x="274" y="603" on="1"/>
        <pt x="202" y="603" on="0"/>
        <pt x="121" y="673" on="0"/>
        <pt x="121" y="730" on="1"/>
        <pt x="121" y="787" on="0"/>
        <pt x="202" y="856" on="0"/>
        <pt x="274" y="856" on="1"/>
        <pt x="346" y="856" on="0"/>
        <pt x="428" y="787" on="0"/>
      </contour>
      <contour>
        <pt x="328" y="730" on="1"/>
        <pt x="328" y="757" on="0"/>
        <pt x="300" y="790" on="0"/>
        <pt x="274" y="790" on="1"/>
        <pt x="248" y="790" on="0"/>
        <pt x="221" y="757" on="0"/>
        <pt x="221" y="730" on="1"/>
        <pt x="221" y="703" on="0"/>
        <pt x="248" y="670" on="0"/>
        <pt x="274" y="670" on="1"/>
        <pt x="300" y="670" on="0"/>
        <pt x="328" y="703" on="0"/>
      </contour>
    </TTGlyph>
    <TTGlyph name="asciicircum" xMin="45" yMin="538" xMax="401" yMax="731">
      <contour>
        <pt x="287" y="538" on="1"/>
        <pt x="223" y="623" on="1"/>
        <pt x="160" y="538" on="1"/>
        <pt x="45" y="538" on="1"/>
        <pt x="155" y="731" on="1"/>
        <pt x="291" y="731" on="1"/>
        <pt x="401" y="538" on="1"/>
      </contour>
    </TTGlyph>
    <TTGlyph name="asciitilde" xMin="38" yMin="242" xMax="420" yMax="430">
      <contour>
        <pt x="420" y="414" on="1"/>
        <pt x="409" y="324" on="0"/>
        <pt x="357" y="246" on="0"/>
        <pt x="310" y="246" on="1"/>
        <pt x="290" y="246" on="0"/>
        <pt x="252" y="259" on="0"/>
        <pt x="228" y="272" on="1"/>
        <pt x="201" y="285" on="0"/>
        <pt x="173" y="297" on="0"/>
        <pt x="161" y="297" on="1"/>
        <pt x="149" y="297" on="0"/>
        <pt x="135" y="275" on="0"/>
        <pt x="127" y="242" on="1"/>
        <pt x="38" y="258" on="1"/>
        <pt x="49" y="348" on="0"/>
        <pt x="101" y="425" on="0"/>
        <pt x="148" y="425" on="1"/>
        <pt x="169" y="425" on="0"/>
        <pt x="205" y="412" on="0"/>
        <pt x="231" y="400" on="1"/>
        <pt x="258" y="386" on="0"/>
        <pt x="285" y="375" on="0"/>
        <pt x="298" y="375" on="1"/>
        <pt x="309" y="375" on="0"/>
        <pt x="324" y="397" on="0"/>
        <pt x="331" y="430" on="1"/>
      </contour>
    </TTGlyph>
    <TTGlyph name="asterisk" xMin="30" yMin="397" xMax="432" yMax="779">
      <contour>
        <pt x="322" y="544" on="1"/>
        <pt x="368" y="418" on="1"/>
        <pt x="336" y="397" on="1"/>
        <pt x="231" y="478" on="1"/>
        <pt x="127" y="397" on="1"/>
        <pt x="94" y="418" on="1"/>
        <pt x="141" y="544" on="1"/>
        <pt x="30" y="619" on="1"/>
        <pt x="41" y="656" on="1"/>
        <pt x="176" y="653" on="1"/>
        <pt x="210" y="779" on="1"/>
        <pt x="251" y="779" on="1"/>
        <pt x="287" y="653" on="1"/>
        <pt x="421" y="656" on="1"/>
        <pt x="432" y="619" on="1"/>
      </contour>
    </TTGlyph>
    <TTGlyph name="at" xMin="41" yMin="-155" xMax="825" yMax="715">
      <contour>
        <pt x="610" y="49" on="1"/>
        <pt x="556" y="49" on="0"/>
        <pt x="482" y="98" on="0"/>
        <pt x="470" y="142" on="1"/>
        <pt x="432" y="93" on="0"/>
        <pt x="362" y="49" on="0"/>
        <pt x="324" y="49" on="1"/>
        <pt x="272" y="49" on="0"/>
        <pt x="212" y="128" on="0"/>
        <pt x="212" y="200" on="1"/>
        <pt x="212" y="270" on="0"/>
        <pt x="253" y="388" on="0"/>
        <pt x="326" y="474" on="0"/>
        <pt x="427" y="522" on="0"/>
        <pt x="486" y="522" on="1"/>
        <pt x="530" y="522" on="0"/>
        <pt x="618" y="503" on="0"/>
        <pt x="653" y="488" on="1"/>
        <pt x="608" y="213" on="1"/>
        <pt x="606" y="203" on="0"/>
        <pt x="604" y="178" on="0"/>
        <pt x="604" y="167" on="1"/>
        <pt x="604" y="144" on="0"/>
        <pt x="628" y="116" on="0"/>
        <pt x="655" y="116" on="1"/>
        <pt x="679" y="116" on="0"/>
        <pt x="722" y="150" on="0"/>
        <pt x="756" y="215" on="0"/>
        <pt x="776" y="307" on="0"/>
        <pt x="776" y="364" on="1"/>
        <pt x="776" y="445" on="0"/>
        <pt x="734" y="562" on="0"/>
        <pt x="659" y="638" on="0"/>
        <pt x="552" y="675" on="0"/>
        <pt x="488" y="675" on="1"/>
        <pt x="406" y="675" on="0"/>
        <pt x="261" y="602" on="0"/>
        <pt x="152" y="475" on="0"/>
        <pt x="89" y="304" on="0"/>
        <pt x="89" y="207" on="1"/>
        <pt x="89" y="124" on="0"/>
        <pt x="132" y="3" on="0"/>
        <pt x="212" y="-77" on="0"/>
        <pt x="322" y="-115" on="0"/>
        <pt x="390" y="-115" on="1"/>
        <pt x="452" y="-115" on="0"/>
        <pt x="562" y="-85" on="0"/>
        <pt x="611" y="-57" on="1"/>
        <pt x="618" y="-98" on="1"/>
        <pt x="573" y="-122" on="0"/>
        <pt x="456" y="-155" on="0"/>
        <pt x="387" y="-155" on="1"/>
        <pt x="306" y="-155" on="0"/>
        <pt x="178" y="-108" on="0"/>
        <pt x="89" y="-17" on="0"/>
        <pt x="41" y="118" on="0"/>
        <pt x="41" y="206" on="1"/>
        <pt x="41" y="309" on="0"/>
        <pt x="112" y="494" on="0"/>
        <pt x="234" y="633" on="0"/>
        <pt x="398" y="715" on="0"/>
        <pt x="492" y="715" on="1"/>
        <pt x="567" y="715" on="0"/>
        <pt x="689" y="670" on="0"/>
        <pt x="777" y="581" on="0"/>
        <pt x="825" y="451" on="0"/>
        <pt x="825" y="366" on="1"/>
        <pt x="825" y="293" on="0"/>
        <pt x="795" y="176" on="0"/>
        <pt x="739" y="93" on="0"/>
        <pt x="659" y="49" on="0"/>
      </contour>
      <contour>
        <pt x="389" y="174" on="1"/>
        <pt x="405" y="174" on="0"/>
        <pt x="442" y="201" on="0"/>
        <pt x="468" y="231" on="1"/>
        <pt x="495" y="402" on="1"/>
        <pt x="490" y="404" on="0"/>
        <pt x="477" y="407" on="0"/>
        <pt x="468" y="407" on="1"/>
        <pt x="446" y="407" on="0"/>
        <pt x="406" y="379" on="0"/>
        <pt x="375" y="331" on="0"/>
        <pt x="357" y="267" on="0"/>
        <pt x="357" y="231" on="1"/>
        <pt x="357" y="200" on="0"/>
        <pt x="375" y="174" on="0"/>
      </contour>
    </TTGlyph>
    <TTGlyph name="atilde" xMin="29" yMin="-11" xMax="490" yMax="788">
      <component glyphName="a" x="0" y="0" flags="0x204"/>
      <component glyphName="tilde" x="41" y="3" flags="0x4"/>
    </TTGlyph>
    <TTGlyph name="b" xMin="52" yMin="-7" xMax="544" yMax="809">
      <contour>
        <pt x="544" y="295" on="1"/>
        <pt x="544" y="215" on="0"/>
        <pt x="506" y="101" on="0"/>
        <pt x="435" y="28" on="0"/>
        <pt x="333" y="-7" on="0"/>
        <pt x="269" y="-7" on="1"/>
        <pt x="206" y="-7" on="0"/>
        <pt x="95" y="14" on="0"/>
        <pt x="52" y="31" on="1"/>
        <pt x="52" y="781" on="1"/>
        <pt x="233" y="809" on="1"/>
        <pt x="233" y="504" on="1"/>
        <pt x="258" y="527" on="0"/>
        <pt x="318" y="562" on="0"/>
        <pt x="361" y="562" on="1"/>
        <pt x="400" y="562" on="0"/>
        <pt x="467" y="528" on="0"/>
        <pt x="516" y="461" on="0"/>
        <pt x="544" y="361" on="0"/>
      </contour>
      <contour>
        <pt x="364" y="281" on="1"/>
        <pt x="364" y="348" on="0"/>
        <pt x="324" y="405" on="0"/>
        <pt x="295" y="405" on="1"/>
        <pt x="278" y="405" on="0"/>
        <pt x="248" y="389" on="0"/>
        <pt x="233" y="375" on="1"/>
        <pt x="233" y="145" on="1"/>
        <pt x="243" y="141" on="0"/>
        <pt x="258" y="139" on="0"/>
        <pt x="269" y="139" on="1"/>
        <pt x="311" y="139" on="0"/>
        <pt x="364" y="203" on="0"/>
      </contour>
    </TTGlyph>
    <TTGlyph name="backslash" xMin="11" yMin="-141" xMax="533" yMax="783">
      <contour>
        <pt x="392" y="-141" on="1"/>
        <pt x="11" y="753" on="1"/>
        <pt x="152" y="783" on="1"/>
        <pt x="533" y="-111" on="1"/>
      </contour>
    </TTGlyph>
    <TTGlyph name="baht" xMin="-15" yMin="-129" xMax="534" yMax="784">
      <contour>
        <pt x="-15" y="-111" on="1"/>
        <pt x="59" y="33" on="1"/>
        <pt x="59" y="721" on="1"/>
        <pt x="274" y="721" on="1"/>
        <pt x="340" y="721" on="0"/>
        <pt x="393" y="704" on="1"/>
        <pt x="434" y="784" on="1"/>
        <pt x="509" y="764" on="1"/>
        <pt x="460" y="670" on="1"/>
        <pt x="519" y="622" on="0"/>
        <pt x="519" y="540" on="1"/>
        <pt x="519" y="479" on="0"/>
        <pt x="460" y="398" on="0"/>
        <pt x="412" y="380" on="1"/>
        <pt x="468" y="357" on="0"/>
        <pt x="534" y="278" on="0"/>
        <pt x="534" y="207" on="1"/>
        <pt x="534" y="154" on="0"/>
        <pt x="495" y="77" on="0"/>
        <pt x="425" y="25" on="0"/>
        <pt x="327" y="0" on="0"/>
        <pt x="267" y="0" on="1"/>
        <pt x="128" y="0" on="1"/>
        <pt x="61" y="-129" on="1"/>
      </contour>
      <contour>
        <pt x="225" y="315" on="1"/>
        <pt x="225" y="130" on="1"/>
        <pt x="262" y="130" on="1"/>
        <pt x="310" y="130" on="0"/>
        <pt x="361" y="178" on="0"/>
        <pt x="361" y="221" on="1"/>
        <pt x="361" y="315" on="0"/>
        <pt x="259" y="315" on="1"/>
      </contour>
      <contour>
        <pt x="225" y="590" on="1"/>
        <pt x="225" y="425" on="1"/>
        <pt x="265" y="425" on="1"/>
        <pt x="309" y="425" on="0"/>
        <pt x="355" y="469" on="0"/>
        <pt x="355" y="508" on="1"/>
        <pt x="355" y="546" on="0"/>
        <pt x="312" y="590" on="0"/>
        <pt x="266" y="590" on="1"/>
      </contour>
    </TTGlyph>
    <TTGlyph name="bar" xMin="85" yMin="-208" xMax="229" yMax="808">
      <contour>
        <pt x="85" y="-208" on="1"/>
        <pt x="85" y="786" on="1"/>
        <pt x="229" y="808" on="1"/>
        <pt x="229" y="-187" on="1"/>
      </contour>
    </TTGlyph>
    <TTGlyph name="bar.tab" xMin="62" yMin="-148" xMax="202" yMax="909">
      <contour>
        <pt x="62" y="-148" on="1"/>
        <pt x="62" y="888" on="1"/>
        <pt x="202" y="909" on="1"/>
        <pt x="202" y="-127" on="1"/>
      </contour>
    </TTGlyph>
    <TTGlyph name="braceleft" xMin="27" yMin="-115" xMax="489" yMax="775">
      <contour>
        <pt x="335" y="-115" on="1"/>
        <pt x="247" y="-115" on="0"/>
        <pt x="157" y="-36" on="0"/>
        <pt x="157" y="32" on="1"/>
        <pt x="157" y="71" on="0"/>
        <pt x="173" y="142" on="0"/>
        <pt x="173" y="178" on="1"/>
        <pt x="173" y="233" on="0"/>
        <pt x="115" y="273" on="0"/>
        <pt x="63" y="273" on="1"/>
        <pt x="44" y="273" on="1"/>
        <pt x="27" y="388" on="1"/>
        <pt x="60" y="388" on="1"/>
        <pt x="114" y="388" on="0"/>
        <pt x="173" y="428" on="0"/>
        <pt x="173" y="482" on="1"/>
        <pt x="173" y="519" on="0"/>
        <pt x="157" y="589" on="0"/>
        <pt x="157" y="628" on="1"/>
        <pt x="157" y="695" on="0"/>
        <pt x="247" y="775" on="0"/>
        <pt x="335" y="775" on="1"/>
        <pt x="483" y="775" on="1"/>
        <pt x="483" y="664" on="1"/>
        <pt x="405" y="664" on="1"/>
        <pt x="330" y="664" on="0"/>
        <pt x="330" y="603" on="1"/>
        <pt x="330" y="570" on="0"/>
        <pt x="345" y="510" on="0"/>
        <pt x="345" y="472" on="1"/>
        <pt x="345" y="410" on="0"/>
        <pt x="279" y="345" on="0"/>
        <pt x="215" y="331" on="1"/>
        <pt x="215" y="329" on="1"/>
        <pt x="279" y="315" on="0"/>
        <pt x="345" y="250" on="0"/>
        <pt x="345" y="188" on="1"/>
        <pt x="345" y="151" on="0"/>
        <pt x="330" y="90" on="0"/>
        <pt x="330" y="57" on="1"/>
        <pt x="330" y="-3" on="0"/>
        <pt x="405" y="-3" on="1"/>
        <pt x="471" y="-3" on="1"/>
        <pt x="489" y="-115" on="1"/>
      </contour>
    </TTGlyph>
    <TTGlyph name="braceleft.flat" xMin="34" yMin="-115" xMax="483" yMax="775">
      <contour>
        <pt x="335" y="-115" on="1"/>
        <pt x="247" y="-115" on="0"/>
        <pt x="157" y="-36" on="0"/>
        <pt x="157" y="32" on="1"/>
        <pt x="157" y="71" on="0"/>
        <pt x="173" y="142" on="0"/>
        <pt x="173" y="178" on="1"/>
        <pt x="173" y="233" on="0"/>
        <pt x="115" y="273" on="0"/>
        <pt x="63" y="273" on="1"/>
        <pt x="34" y="273" on="1"/>
        <pt x="34" y="388" on="1"/>
        <pt x="60" y="388" on="1"/>
        <pt x="114" y="388" on="0"/>
        <pt x="173" y="428" on="0"/>
        <pt x="173" y="482" on="1"/>
        <pt x="173" y="519" on="0"/>
        <pt x="157" y="589" on="0"/>
        <pt x="157" y="628" on="1"/>
        <pt x="157" y="695" on="0"/>
        <pt x="247" y="775" on="0"/>
        <pt x="335" y="775" on="1"/>
        <pt x="483" y="775" on="1"/>
        <pt x="483" y="664" on="1"/>
        <pt x="405" y="664" on="1"/>
        <pt x="330" y="664" on="0"/>
        <pt x="330" y="603" on="1"/>
        <pt x="330" y="570" on="0"/>
        <pt x="345" y="510" on="0"/>
        <pt x="345" y="472" on="1"/>
        <pt x="345" y="410" on="0"/>
        <pt x="279" y="345" on="0"/>
        <pt x="215" y="331" on="1"/>
        <pt x="215" y="329" on="1"/>
        <pt x="279" y="315" on="0"/>
        <pt x="345" y="250" on="0"/>
        <pt x="345" y="188" on="1"/>
        <pt x="345" y="151" on="0"/>
        <pt x="330" y="90" on="0"/>
        <pt x="330" y="57" on="1"/>
        <pt x="330" y="-3" on="0"/>
        <pt x="405" y="-3" on="1"/>
        <pt x="483" y="-3" on="1"/>
        <pt x="483" y="-115" on="1"/>
      </contour>
    </TTGlyph>
    <TTGlyph name="braceright" xMin="31" yMin="-115" xMax="493" yMax="775">
      <contour>
        <pt x="184" y="775" on="1"/>
        <pt x="272" y="775" on="0"/>
        <pt x="362" y="696" on="0"/>
        <pt x="362" y="628" on="1"/>
        <pt x="362" y="589" on="0"/>
        <pt x="346" y="518" on="0"/>
        <pt x="346" y="482" on="1"/>
        <pt x="346" y="428" on="0"/>
        <pt x="404" y="387" on="0"/>
        <pt x="456" y="387" on="1"/>
        <pt x="475" y="387" on="1"/>
        <pt x="493" y="272" on="1"/>
        <pt x="460" y="272" on="1"/>
        <pt x="406" y="272" on="0"/>
        <pt x="346" y="232" on="0"/>
        <pt x="346" y="178" on="1"/>
        <pt x="346" y="141" on="0"/>
        <pt x="362" y="71" on="0"/>
        <pt x="362" y="32" on="1"/>
        <pt x="362" y="-36" on="0"/>
        <pt x="272" y="-115" on="0"/>
        <pt x="184" y="-115" on="1"/>
        <pt x="36" y="-115" on="1"/>
        <pt x="36" y="-3" on="1"/>
        <pt x="114" y="-3" on="1"/>
        <pt x="189" y="-3" on="0"/>
        <pt x="189" y="58" on="1"/>
        <pt x="189" y="74" on="0"/>
        <pt x="184" y="105" on="0"/>
        <pt x="179" y="136" on="0"/>
        <pt x="174" y="169" on="0"/>
        <pt x="174" y="188" on="1"/>
        <pt x="174" y="250" on="0"/>
        <pt x="241" y="315" on="0"/>
        <pt x="305" y="329" on="1"/>
        <pt x="305" y="331" on="1"/>
        <pt x="241" y="345" on="0"/>
        <pt x="174" y="411" on="0"/>
        <pt x="174" y="473" on="1"/>
        <pt x="174" y="510" on="0"/>
        <pt x="189" y="570" on="0"/>
        <pt x="189" y="603" on="1"/>
        <pt x="189" y="664" on="0"/>
        <pt x="114" y="664" on="1"/>
        <pt x="49" y="664" on="1"/>
        <pt x="31" y="775" on="1"/>
      </contour>
    </TTGlyph>
    <TTGlyph name="braceright.flat" xMin="36" yMin="-115" xMax="484" yMax="775">
      <contour>
        <pt x="184" y="775" on="1"/>
        <pt x="272" y="775" on="0"/>
        <pt x="362" y="696" on="0"/>
        <pt x="362" y="628" on="1"/>
        <pt x="362" y="589" on="0"/>
        <pt x="346" y="518" on="0"/>
        <pt x="346" y="482" on="1"/>
        <pt x="346" y="428" on="0"/>
        <pt x="404" y="387" on="0"/>
        <pt x="456" y="387" on="1"/>
        <pt x="484" y="387" on="1"/>
        <pt x="484" y="272" on="1"/>
        <pt x="460" y="272" on="1"/>
        <pt x="406" y="272" on="0"/>
        <pt x="346" y="232" on="0"/>
        <pt x="346" y="178" on="1"/>
        <pt x="346" y="141" on="0"/>
        <pt x="362" y="71" on="0"/>
        <pt x="362" y="32" on="1"/>
        <pt x="362" y="-36" on="0"/>
        <pt x="272" y="-115" on="0"/>
        <pt x="184" y="-115" on="1"/>
        <pt x="36" y="-115" on="1"/>
        <pt x="36" y="-3" on="1"/>
        <pt x="114" y="-3" on="1"/>
        <pt x="189" y="-3" on="0"/>
        <pt x="189" y="58" on="1"/>
        <pt x="189" y="74" on="0"/>
        <pt x="184" y="105" on="0"/>
        <pt x="179" y="136" on="0"/>
        <pt x="174" y="169" on="0"/>
        <pt x="174" y="188" on="1"/>
        <pt x="174" y="250" on="0"/>
        <pt x="241" y="315" on="0"/>
        <pt x="305" y="329" on="1"/>
        <pt x="305" y="331" on="1"/>
        <pt x="241" y="345" on="0"/>
        <pt x="174" y="411" on="0"/>
        <pt x="174" y="473" on="1"/>
        <pt x="174" y="510" on="0"/>
        <pt x="189" y="570" on="0"/>
        <pt x="189" y="603" on="1"/>
        <pt x="189" y="664" on="0"/>
        <pt x="114" y="664" on="1"/>
        <pt x="36" y="664" on="1"/>
        <pt x="36" y="775" on="1"/>
      </contour>
    </TTGlyph>
    <TTGlyph name="bracketleft" xMin="70" yMin="-115" xMax="398" yMax="775">
      <contour>
        <pt x="70" y="-115" on="1"/>
        <pt x="70" y="775" on="1"/>
        <pt x="392" y="775" on="1"/>
        <pt x="392" y="664" on="1"/>
        <pt x="240" y="664" on="1"/>
        <pt x="240" y="-3" on="1"/>
        <pt x="380" y="-3" on="1"/>
        <pt x="398" y="-115" on="1"/>
      </contour>
    </TTGlyph>
    <TTGlyph name="bracketleft.flat" xMin="70" yMin="-115" xMax="392" yMax="775">
      <contour>
        <pt x="70" y="-115" on="1"/>
        <pt x="70" y="775" on="1"/>
        <pt x="392" y="775" on="1"/>
        <pt x="392" y="664" on="1"/>
        <pt x="240" y="664" on="1"/>
        <pt x="240" y="-3" on="1"/>
        <pt x="392" y="-3" on="1"/>
        <pt x="392" y="-115" on="1"/>
      </contour>
    </TTGlyph>
    <TTGlyph name="bracketright" xMin="30" yMin="-115" xMax="358" yMax="775">
      <contour>
        <pt x="358" y="775" on="1"/>
        <pt x="358" y="-115" on="1"/>
        <pt x="37" y="-115" on="1"/>
        <pt x="37" y="-3" on="1"/>
        <pt x="188" y="-3" on="1"/>
        <pt x="188" y="664" on="1"/>
        <pt x="48" y="664" on="1"/>
        <pt x="30" y="775" on="1"/>
      </contour>
    </TTGlyph>
    <TTGlyph name="bracketright.flat" xMin="37" yMin="-115" xMax="358" yMax="775">
      <contour>
        <pt x="358" y="775" on="1"/>
        <pt x="358" y="-115" on="1"/>
        <pt x="37" y="-115" on="1"/>
        <pt x="37" y="-3" on="1"/>
        <pt x="188" y="-3" on="1"/>
        <pt x="188" y="664" on="1"/>
        <pt x="37" y="664" on="1"/>
        <pt x="37" y="775" on="1"/>
      </contour>
    </TTGlyph>
    <TTGlyph name="breve" xMin="64" yMin="603" xMax="407" yMax="775">
      <contour>
        <pt x="407" y="759" on="1"/>
        <pt x="396" y="684" on="0"/>
        <pt x="312" y="603" on="0"/>
        <pt x="235" y="603" on="1"/>
        <pt x="159" y="603" on="0"/>
        <pt x="75" y="684" on="0"/>
        <pt x="64" y="759" on="1"/>
        <pt x="159" y="775" on="1"/>
        <pt x="170" y="741" on="0"/>
        <pt x="206" y="713" on="0"/>
        <pt x="235" y="713" on="1"/>
        <pt x="264" y="713" on="0"/>
        <pt x="300" y="741" on="0"/>
        <pt x="311" y="775" on="1"/>
      </contour>
    </TTGlyph>
    <TTGlyph name="breve.cap" xMin="60" yMin="565" xMax="383" yMax="727">
      <contour>
        <pt x="383" y="712" on="1"/>
        <pt x="372" y="642" on="0"/>
        <pt x="293" y="565" on="0"/>
        <pt x="221" y="565" on="1"/>
        <pt x="149" y="565" on="0"/>
        <pt x="70" y="642" on="0"/>
        <pt x="60" y="712" on="1"/>
        <pt x="150" y="727" on="1"/>
        <pt x="160" y="695" on="0"/>
        <pt x="194" y="669" on="0"/>
        <pt x="221" y="669" on="1"/>
        <pt x="248" y="669" on="0"/>
        <pt x="282" y="695" on="0"/>
        <pt x="292" y="727" on="1"/>
      </contour>
    </TTGlyph>
    <TTGlyph name="bullet" xMin="72" yMin="182" xMax="401" yMax="542">
      <contour>
        <pt x="377" y="204" on="1"/>
        <pt x="236" y="182" on="1"/>
        <pt x="97" y="204" on="1"/>
        <pt x="72" y="361" on="1"/>
        <pt x="97" y="520" on="1"/>
        <pt x="236" y="542" on="1"/>
        <pt x="377" y="520" on="1"/>
        <pt x="401" y="361" on="1"/>
      </contour>
    </TTGlyph>
    <TTGlyph name="c" xMin="31" yMin="-9" xMax="445" yMax="561">
      <contour>
        <pt x="445" y="33" on="1"/>
        <pt x="410" y="13" on="0"/>
        <pt x="330" y="-9" on="0"/>
        <pt x="285" y="-9" on="1"/>
        <pt x="226" y="-9" on="0"/>
        <pt x="132" y="29" on="0"/>
        <pt x="66" y="102" on="0"/>
        <pt x="31" y="207" on="0"/>
        <pt x="31" y="273" on="1"/>
        <pt x="31" y="343" on="0"/>
        <pt x="70" y="450" on="0"/>
        <pt x="140" y="523" on="0"/>
        <pt x="237" y="561" on="0"/>
        <pt x="296" y="561" on="1"/>
        <pt x="341" y="561" on="0"/>
        <pt x="410" y="543" on="0"/>
        <pt x="440" y="529" on="1"/>
        <pt x="415" y="374" on="1"/>
        <pt x="389" y="390" on="0"/>
        <pt x="343" y="406" on="0"/>
        <pt x="317" y="406" on="1"/>
        <pt x="272" y="406" on="0"/>
        <pt x="212" y="343" on="0"/>
        <pt x="212" y="277" on="1"/>
        <pt x="212" y="243" on="0"/>
        <pt x="229" y="193" on="0"/>
        <pt x="259" y="161" on="0"/>
        <pt x="298" y="146" on="0"/>
        <pt x="319" y="146" on="1"/>
        <pt x="346" y="146" on="0"/>
        <pt x="394" y="161" on="0"/>
        <pt x="423" y="178" on="1"/>
      </contour>
    </TTGlyph>
    <TTGlyph name="cacute" xMin="31" yMin="-9" xMax="485" yMax="778">
      <component glyphName="acute" x="100" y="3" flags="0x4"/>
      <component glyphName="c" x="0" y="0" flags="0x4"/>
    </TTGlyph>
    <TTGlyph name="caron" xMin="47" yMin="605" xMax="422" yMax="772">
      <contour>
        <pt x="164" y="772" on="1"/>
        <pt x="235" y="709" on="1"/>
        <pt x="305" y="772" on="1"/>
        <pt x="422" y="772" on="1"/>
        <pt x="314" y="605" on="1"/>
        <pt x="155" y="605" on="1"/>
        <pt x="47" y="772" on="1"/>
      </contour>
    </TTGlyph>
    <TTGlyph name="caron.alt" xMin="154" yMin="556" xMax="312" yMax="790">
      <contour>
        <pt x="300" y="790" on="1"/>
        <pt x="312" y="748" on="0"/>
        <pt x="312" y="713" on="1"/>
        <pt x="312" y="673" on="0"/>
        <pt x="274" y="591" on="0"/>
        <pt x="239" y="556" on="1"/>
        <pt x="154" y="574" on="1"/>
        <pt x="168" y="606" on="0"/>
        <pt x="180" y="657" on="0"/>
        <pt x="180" y="682" on="1"/>
        <pt x="180" y="720" on="0"/>
        <pt x="161" y="772" on="1"/>
      </contour>
    </TTGlyph>
    <TTGlyph name="caron.alt.cap" xMin="145" yMin="521" xMax="293" yMax="740">
      <contour>
        <pt x="282" y="740" on="1"/>
        <pt x="293" y="699" on="0"/>
        <pt x="293" y="668" on="1"/>
        <pt x="293" y="630" on="0"/>
        <pt x="258" y="554" on="0"/>
        <pt x="225" y="521" on="1"/>
        <pt x="145" y="537" on="1"/>
        <pt x="158" y="568" on="0"/>
        <pt x="168" y="616" on="0"/>
        <pt x="168" y="639" on="1"/>
        <pt x="168" y="676" on="0"/>
        <pt x="150" y="723" on="1"/>
      </contour>
    </TTGlyph>
    <TTGlyph name="caron.cap" xMin="44" yMin="567" xMax="397" yMax="724">
      <contour>
        <pt x="154" y="724" on="1"/>
        <pt x="220" y="665" on="1"/>
        <pt x="287" y="724" on="1"/>
        <pt x="397" y="724" on="1"/>
        <pt x="296" y="567" on="1"/>
        <pt x="145" y="567" on="1"/>
        <pt x="44" y="724" on="1"/>
      </contour>
    </TTGlyph>
    <TTGlyph name="ccaron" xMin="31" yMin="-9" xMax="467" yMax="775">
      <component glyphName="caron" x="45" y="3" flags="0x4"/>
      <component glyphName="c" x="0" y="0" flags="0x4"/>
    </TTGlyph>
    <TTGlyph name="ccedilla" xMin="31" yMin="-199" xMax="445" yMax="561">
      <component glyphName="c" x="0" y="0" flags="0x204"/>
      <component glyphName="cedilla" x="20" y="0" flags="0x4"/>
    </TTGlyph>
    <TTGlyph name="cdotaccent" xMin="31" yMin="-9" xMax="445" yMax="761">
      <component glyphName="c" x="0" y="0" flags="0x204"/>
      <component glyphName="dotaccent" x="44" y="3" flags="0x4"/>
    </TTGlyph>
    <TTGlyph name="cedilla" xMin="102" yMin="-199" xMax="371" yMax="-45">
      <contour>
        <pt x="217" y="-199" on="1"/>
        <pt x="102" y="-199" on="1"/>
        <pt x="151" y="-45" on="1"/>
        <pt x="371" y="-81" on="1"/>
      </contour>
    </TTGlyph>
    <TTGlyph name="cedilla.cap" xMin="95" yMin="-186" xMax="349" yMax="-42">
      <contour>
        <pt x="205" y="-186" on="1"/>
        <pt x="95" y="-186" on="1"/>
        <pt x="141" y="-42" on="1"/>
        <pt x="349" y="-76" on="1"/>
      </contour>
    </TTGlyph>
    <TTGlyph name="cent" xMin="37" yMin="-11" xMax="463" yMax="727">
      <contour>
        <pt x="463" y="133" on="1"/>
        <pt x="430" y="115" on="0"/>
        <pt x="361" y="95" on="0"/>
        <pt x="320" y="93" on="1"/>
        <pt x="316" y="92" on="0"/>
        <pt x="309" y="92" on="1"/>
        <pt x="293" y="-11" on="1"/>
        <pt x="210" y="9" on="1"/>
        <pt x="224" y="99" on="1"/>
        <pt x="140" y="118" on="0"/>
        <pt x="37" y="249" on="0"/>
        <pt x="37" y="356" on="1"/>
        <pt x="37" y="420" on="0"/>
        <pt x="76" y="519" on="0"/>
        <pt x="145" y="586" on="0"/>
        <pt x="240" y="622" on="0"/>
        <pt x="295" y="624" on="1"/>
        <pt x="306" y="624" on="1"/>
        <pt x="322" y="727" on="1"/>
        <pt x="405" y="708" on="1"/>
        <pt x="390" y="615" on="1"/>
        <pt x="425" y="606" on="0"/>
        <pt x="458" y="591" on="1"/>
        <pt x="438" y="452" on="1"/>
        <pt x="420" y="462" on="0"/>
        <pt x="382" y="477" on="0"/>
        <pt x="360" y="481" on="1"/>
        <pt x="322" y="232" on="1"/>
        <pt x="332" y="232" on="1"/>
        <pt x="358" y="234" on="0"/>
        <pt x="411" y="249" on="0"/>
        <pt x="445" y="267" on="1"/>
      </contour>
      <contour>
        <pt x="202" y="358" on="1"/>
        <pt x="202" y="318" on="0"/>
        <pt x="229" y="260" on="0"/>
        <pt x="256" y="244" on="1"/>
        <pt x="294" y="486" on="1"/>
        <pt x="291" y="486" on="0"/>
        <pt x="289" y="485" on="1"/>
        <pt x="245" y="478" on="0"/>
        <pt x="202" y="411" on="0"/>
      </contour>
    </TTGlyph>
    <TTGlyph name="cent.tab" xMin="53" yMin="-12" xMax="476" yMax="726">
      <contour>
        <pt x="476" y="135" on="1"/>
        <pt x="444" y="117" on="0"/>
        <pt x="376" y="96" on="0"/>
        <pt x="338" y="93" on="1"/>
        <pt x="335" y="93" on="0"/>
        <pt x="328" y="92" on="0"/>
        <pt x="324" y="92" on="1"/>
        <pt x="308" y="-12" on="1"/>
        <pt x="227" y="8" on="1"/>
        <pt x="240" y="99" on="1"/>
        <pt x="156" y="118" on="0"/>
        <pt x="53" y="249" on="0"/>
        <pt x="53" y="356" on="1"/>
        <pt x="53" y="419" on="0"/>
        <pt x="92" y="517" on="0"/>
        <pt x="160" y="584" on="0"/>
        <pt x="253" y="621" on="0"/>
        <pt x="307" y="623" on="1"/>
        <pt x="319" y="623" on="1"/>
        <pt x="334" y="726" on="1"/>
        <pt x="417" y="707" on="1"/>
        <pt x="402" y="614" on="1"/>
        <pt x="422" y="610" on="0"/>
        <pt x="456" y="597" on="0"/>
        <pt x="472" y="589" on="1"/>
        <pt x="451" y="451" on="1"/>
        <pt x="433" y="461" on="0"/>
        <pt x="394" y="476" on="0"/>
        <pt x="372" y="481" on="1"/>
        <pt x="335" y="231" on="1"/>
        <pt x="343" y="231" on="0"/>
        <pt x="347" y="232" on="1"/>
        <pt x="373" y="234" on="0"/>
        <pt x="427" y="250" on="0"/>
        <pt x="459" y="267" on="1"/>
      </contour>
      <contour>
        <pt x="210" y="355" on="1"/>
        <pt x="210" y="313" on="0"/>
        <pt x="241" y="254" on="0"/>
        <pt x="271" y="240" on="1"/>
        <pt x="307" y="485" on="1"/>
        <pt x="304" y="485" on="1"/>
        <pt x="257" y="480" on="0"/>
        <pt x="210" y="412" on="0"/>
      </contour>
    </TTGlyph>
    <TTGlyph name="circumflex" xMin="49" yMin="605" xMax="424" yMax="772">
      <contour>
        <pt x="307" y="605" on="1"/>
        <pt x="236" y="669" on="1"/>
        <pt x="165" y="605" on="1"/>
        <pt x="49" y="605" on="1"/>
        <pt x="157" y="772" on="1"/>
        <pt x="316" y="772" on="1"/>
        <pt x="424" y="605" on="1"/>
      </contour>
    </TTGlyph>
    <TTGlyph name="circumflex.cap" xMin="45" yMin="567" xMax="399" yMax="724">
      <contour>
        <pt x="288" y="567" on="1"/>
        <pt x="222" y="627" on="1"/>
        <pt x="156" y="567" on="1"/>
        <pt x="45" y="567" on="1"/>
        <pt x="147" y="724" on="1"/>
        <pt x="297" y="724" on="1"/>
        <pt x="399" y="567" on="1"/>
      </contour>
    </TTGlyph>
    <TTGlyph name="colon" xMin="50" yMin="0" xMax="237" yMax="552">
      <contour>
        <pt x="50" y="349" on="1"/>
        <pt x="50" y="552" on="1"/>
        <pt x="237" y="552" on="1"/>
        <pt x="237" y="349" on="1"/>
      </contour>
      <contour>
        <pt x="50" y="0" on="1"/>
        <pt x="50" y="204" on="1"/>
        <pt x="237" y="204" on="1"/>
        <pt x="237" y="0" on="1"/>
      </contour>
    </TTGlyph>
    <TTGlyph name="colon.tab" xMin="41" yMin="0" xMax="223" yMax="552">
      <contour>
        <pt x="41" y="347" on="1"/>
        <pt x="41" y="552" on="1"/>
        <pt x="223" y="552" on="1"/>
        <pt x="223" y="347" on="1"/>
      </contour>
      <contour>
        <pt x="41" y="0" on="1"/>
        <pt x="41" y="206" on="1"/>
        <pt x="223" y="206" on="1"/>
        <pt x="223" y="0" on="1"/>
      </contour>
    </TTGlyph>
    <TTGlyph name="colonmonetary" xMin="39" yMin="-127" xMax="543" yMax="799">
      <contour>
        <pt x="191" y="-109" on="1"/>
        <pt x="212" y="20" on="1"/>
        <pt x="126" y="55" on="0"/>
        <pt x="39" y="226" on="0"/>
        <pt x="39" y="357" on="1"/>
        <pt x="39" y="438" on="0"/>
        <pt x="77" y="569" on="0"/>
        <pt x="150" y="663" on="0"/>
        <pt x="257" y="717" on="0"/>
        <pt x="325" y="721" on="1"/>
        <pt x="337" y="799" on="1"/>
        <pt x="411" y="782" on="1"/>
        <pt x="401" y="718" on="1"/>
        <pt x="428" y="714" on="0"/>
        <pt x="453" y="706" on="1"/>
        <pt x="468" y="799" on="1"/>
        <pt x="543" y="782" on="1"/>
        <pt x="441" y="154" on="1"/>
        <pt x="455" y="159" on="0"/>
        <pt x="484" y="171" on="0"/>
        <pt x="499" y="179" on="1"/>
        <pt x="522" y="39" on="1"/>
        <pt x="498" y="27" on="0"/>
        <pt x="446" y="8" on="0"/>
        <pt x="417" y="3" on="1"/>
        <pt x="396" y="-127" on="1"/>
        <pt x="322" y="-109" on="1"/>
        <pt x="339" y="-4" on="1"/>
        <pt x="321" y="-4" on="1"/>
        <pt x="312" y="-3" on="0"/>
        <pt x="294" y="-2" on="0"/>
        <pt x="285" y="0" on="1"/>
        <pt x="264" y="-127" on="1"/>
      </contour>
      <contour>
        <pt x="207" y="345" on="1"/>
        <pt x="207" y="221" on="0"/>
        <pt x="252" y="175" on="1"/>
        <pt x="317" y="576" on="1"/>
        <pt x="257" y="562" on="0"/>
        <pt x="207" y="442" on="0"/>
      </contour>
      <contour>
        <pt x="355" y="138" on="1"/>
        <pt x="361" y="138" on="0"/>
        <pt x="374" y="138" on="0"/>
        <pt x="380" y="139" on="1"/>
        <pt x="447" y="558" on="1"/>
        <pt x="409" y="574" on="0"/>
        <pt x="377" y="578" on="1"/>
        <pt x="307" y="144" on="1"/>
        <pt x="328" y="138" on="0"/>
      </contour>
    </TTGlyph>
    <TTGlyph name="comma" xMin="27" yMin="-151" xMax="259" yMax="205">
      <contour>
        <pt x="129" y="-151" on="1"/>
        <pt x="27" y="-125" on="1"/>
        <pt x="61" y="205" on="1"/>
        <pt x="259" y="205" on="1"/>
      </contour>
    </TTGlyph>
    <TTGlyph name="comma.alt" xMin="13" yMin="-152" xMax="244" yMax="205">
      <contour>
        <pt x="232" y="205" on="1"/>
        <pt x="237" y="185" on="0"/>
        <pt x="244" y="140" on="0"/>
        <pt x="244" y="118" on="1"/>
        <pt x="244" y="47" on="0"/>
        <pt x="179" y="-81" on="0"/>
        <pt x="111" y="-152" on="1"/>
        <pt x="13" y="-119" on="1"/>
        <pt x="41" y="-60" on="0"/>
        <pt x="63" y="36" on="0"/>
        <pt x="64" y="83" on="1"/>
        <pt x="64" y="113" on="0"/>
        <pt x="57" y="173" on="0"/>
        <pt x="49" y="205" on="1"/>
      </contour>
    </TTGlyph>
    <TTGlyph name="comma.tab" xMin="18" yMin="-154" xMax="252" yMax="209">
      <contour>
        <pt x="124" y="-154" on="1"/>
        <pt x="18" y="-133" on="1"/>
        <pt x="59" y="209" on="1"/>
        <pt x="252" y="209" on="1"/>
      </contour>
    </TTGlyph>
    <TTGlyph name="comma.tab_alt" xMin="11" yMin="-155" xMax="238" yMax="209">
      <contour>
        <pt x="227" y="209" on="1"/>
        <pt x="238" y="165" on="0"/>
        <pt x="238" y="120" on="1"/>
        <pt x="238" y="48" on="0"/>
        <pt x="171" y="-82" on="0"/>
        <pt x="101" y="-155" on="1"/>
        <pt x="11" y="-121" on="1"/>
        <pt x="41" y="-60" on="0"/>
        <pt x="66" y="37" on="0"/>
        <pt x="66" y="86" on="1"/>
        <pt x="66" y="117" on="0"/>
        <pt x="57" y="177" on="0"/>
        <pt x="49" y="209" on="1"/>
      </contour>
    </TTGlyph>
    <TTGlyph name="commaaccent" xMin="130" yMin="-274" xMax="335" yMax="-45">
      <contour>
        <pt x="292" y="-45" on="1"/>
        <pt x="313" y="-66" on="0"/>
        <pt x="335" y="-110" on="0"/>
        <pt x="335" y="-136" on="1"/>
        <pt x="335" y="-172" on="0"/>
        <pt x="288" y="-241" on="0"/>
        <pt x="237" y="-274" on="1"/>
        <pt x="130" y="-256" on="1"/>
        <pt x="157" y="-224" on="0"/>
        <pt x="181" y="-176" on="0"/>
        <pt x="181" y="-153" on="1"/>
        <pt x="181" y="-135" on="0"/>
        <pt x="165" y="-97" on="0"/>
        <pt x="145" y="-72" on="1"/>
      </contour>
    </TTGlyph>
    <TTGlyph name="commaaccent.cap" xMin="122" yMin="-257" xMax="316" yMax="-42">
      <contour>
        <pt x="275" y="-42" on="1"/>
        <pt x="295" y="-62" on="0"/>
        <pt x="316" y="-103" on="0"/>
        <pt x="316" y="-127" on="1"/>
        <pt x="316" y="-196" on="0"/>
        <pt x="224" y="-257" on="1"/>
        <pt x="122" y="-240" on="1"/>
        <pt x="148" y="-210" on="0"/>
        <pt x="170" y="-165" on="0"/>
        <pt x="170" y="-144" on="1"/>
        <pt x="170" y="-126" on="0"/>
        <pt x="155" y="-91" on="0"/>
        <pt x="136" y="-68" on="1"/>
      </contour>
    </TTGlyph>
    <TTGlyph name="commaaccent.rot" xMin="172" yMin="600" xMax="377" yMax="829">
      <contour>
        <pt x="215" y="600" on="1"/>
        <pt x="194" y="621" on="0"/>
        <pt x="172" y="664" on="0"/>
        <pt x="172" y="690" on="1"/>
        <pt x="172" y="764" on="0"/>
        <pt x="269" y="829" on="1"/>
        <pt x="377" y="811" on="1"/>
        <pt x="350" y="779" on="0"/>
        <pt x="326" y="731" on="0"/>
        <pt x="326" y="708" on="1"/>
        <pt x="326" y="689" on="0"/>
        <pt x="341" y="652" on="0"/>
        <pt x="361" y="627" on="1"/>
      </contour>
    </TTGlyph>
    <TTGlyph name="copyright" xMin="52" yMin="-19" xMax="707" yMax="743">
      <contour>
        <pt x="707" y="363" on="1"/>
        <pt x="707" y="278" on="0"/>
        <pt x="659" y="138" on="0"/>
        <pt x="572" y="37" on="0"/>
        <pt x="451" y="-19" on="0"/>
        <pt x="378" y="-19" on="1"/>
        <pt x="305" y="-19" on="0"/>
        <pt x="185" y="36" on="0"/>
        <pt x="99" y="136" on="0"/>
        <pt x="52" y="276" on="0"/>
        <pt x="52" y="361" on="1"/>
        <pt x="52" y="446" on="0"/>
        <pt x="100" y="587" on="0"/>
        <pt x="186" y="688" on="0"/>
        <pt x="306" y="743" on="0"/>
        <pt x="379" y="743" on="1"/>
        <pt x="452" y="743" on="0"/>
        <pt x="573" y="688" on="0"/>
        <pt x="660" y="588" on="0"/>
        <pt x="707" y="448" on="0"/>
      </contour>
      <contour>
        <pt x="662" y="362" on="1"/>
        <pt x="662" y="444" on="0"/>
        <pt x="618" y="572" on="0"/>
        <pt x="541" y="660" on="0"/>
        <pt x="438" y="706" on="0"/>
        <pt x="379" y="706" on="1"/>
        <pt x="320" y="706" on="0"/>
        <pt x="217" y="660" on="0"/>
        <pt x="141" y="572" on="0"/>
        <pt x="97" y="444" on="0"/>
        <pt x="97" y="362" on="1"/>
        <pt x="97" y="281" on="0"/>
        <pt x="141" y="153" on="0"/>
        <pt x="217" y="66" on="0"/>
        <pt x="320" y="20" on="0"/>
        <pt x="379" y="20" on="1"/>
        <pt x="439" y="20" on="0"/>
        <pt x="542" y="66" on="0"/>
        <pt x="618" y="153" on="0"/>
        <pt x="662" y="281" on="0"/>
      </contour>
      <contour>
        <pt x="519" y="175" on="1"/>
        <pt x="490" y="160" on="0"/>
        <pt x="434" y="146" on="0"/>
        <pt x="399" y="146" on="1"/>
        <pt x="306" y="146" on="0"/>
        <pt x="204" y="262" on="0"/>
        <pt x="204" y="365" on="1"/>
        <pt x="204" y="416" on="0"/>
        <pt x="231" y="498" on="0"/>
        <pt x="282" y="555" on="0"/>
        <pt x="354" y="586" on="0"/>
        <pt x="399" y="586" on="1"/>
        <pt x="434" y="586" on="0"/>
        <pt x="488" y="572" on="0"/>
        <pt x="512" y="561" on="1"/>
        <pt x="495" y="453" on="1"/>
        <pt x="471" y="468" on="0"/>
        <pt x="436" y="480" on="0"/>
        <pt x="414" y="480" on="1"/>
        <pt x="377" y="480" on="0"/>
        <pt x="336" y="421" on="0"/>
        <pt x="336" y="366" on="1"/>
        <pt x="336" y="310" on="0"/>
        <pt x="378" y="251" on="0"/>
        <pt x="420" y="251" on="1"/>
        <pt x="438" y="251" on="0"/>
        <pt x="477" y="263" on="0"/>
        <pt x="503" y="278" on="1"/>
      </contour>
    </TTGlyph>
    <TTGlyph name="d" xMin="33" yMin="-10" xMax="528" yMax="809">
      <contour>
        <pt x="369" y="0" on="1"/>
        <pt x="359" y="62" on="1"/>
        <pt x="331" y="35" on="0"/>
        <pt x="264" y="-10" on="0"/>
        <pt x="219" y="-10" on="1"/>
        <pt x="178" y="-10" on="0"/>
        <pt x="110" y="24" on="0"/>
        <pt x="60" y="92" on="0"/>
        <pt x="33" y="192" on="0"/>
        <pt x="33" y="258" on="1"/>
        <pt x="33" y="339" on="0"/>
        <pt x="71" y="452" on="0"/>
        <pt x="135" y="523" on="0"/>
        <pt x="219" y="556" on="0"/>
        <pt x="265" y="556" on="1"/>
        <pt x="290" y="556" on="0"/>
        <pt x="327" y="550" on="0"/>
        <pt x="346" y="545" on="1"/>
        <pt x="346" y="781" on="1"/>
        <pt x="528" y="809" on="1"/>
        <pt x="528" y="0" on="1"/>
      </contour>
      <contour>
        <pt x="346" y="405" on="1"/>
        <pt x="336" y="410" on="0"/>
        <pt x="316" y="414" on="0"/>
        <pt x="302" y="414" on="1"/>
        <pt x="263" y="414" on="0"/>
        <pt x="214" y="348" on="0"/>
        <pt x="214" y="271" on="1"/>
        <pt x="214" y="204" on="0"/>
        <pt x="254" y="148" on="0"/>
        <pt x="283" y="148" on="1"/>
        <pt x="301" y="148" on="0"/>
        <pt x="331" y="165" on="0"/>
        <pt x="346" y="179" on="1"/>
      </contour>
    </TTGlyph>
    <TTGlyph name="dagger" xMin="47" yMin="-112" xMax="473" yMax="725">
      <contour>
        <pt x="276" y="513" on="1"/>
        <pt x="245" y="513" on="1"/>
        <pt x="194" y="648" on="1"/>
        <pt x="194" y="725" on="1"/>
        <pt x="327" y="725" on="1"/>
        <pt x="327" y="648" on="1"/>
      </contour>
      <contour>
        <pt x="430" y="410" on="1"/>
        <pt x="300" y="460" on="1"/>
        <pt x="300" y="489" on="1"/>
        <pt x="430" y="540" on="1"/>
        <pt x="473" y="540" on="1"/>
        <pt x="473" y="410" on="1"/>
      </contour>
      <contour>
        <pt x="91" y="410" on="1"/>
        <pt x="47" y="410" on="1"/>
        <pt x="47" y="540" on="1"/>
        <pt x="91" y="540" on="1"/>
        <pt x="221" y="489" on="1"/>
        <pt x="221" y="460" on="1"/>
      </contour>
      <contour>
        <pt x="275" y="-112" on="1"/>
        <pt x="245" y="-112" on="1"/>
        <pt x="202" y="20" on="1"/>
        <pt x="202" y="308" on="1"/>
        <pt x="245" y="437" on="1"/>
        <pt x="276" y="437" on="1"/>
        <pt x="318" y="308" on="1"/>
        <pt x="318" y="20" on="1"/>
      </contour>
    </TTGlyph>
    <TTGlyph name="daggerdbl" xMin="52" yMin="-182" xMax="478" yMax="725">
      <contour>
        <pt x="281" y="513" on="1"/>
        <pt x="249" y="513" on="1"/>
        <pt x="198" y="648" on="1"/>
        <pt x="198" y="725" on="1"/>
        <pt x="332" y="725" on="1"/>
        <pt x="332" y="648" on="1"/>
      </contour>
      <contour>
        <pt x="435" y="411" on="1"/>
        <pt x="305" y="460" on="1"/>
        <pt x="305" y="489" on="1"/>
        <pt x="435" y="538" on="1"/>
        <pt x="478" y="538" on="1"/>
        <pt x="478" y="411" on="1"/>
      </contour>
      <contour>
        <pt x="95" y="411" on="1"/>
        <pt x="52" y="411" on="1"/>
        <pt x="52" y="538" on="1"/>
        <pt x="95" y="538" on="1"/>
        <pt x="225" y="489" on="1"/>
        <pt x="225" y="460" on="1"/>
      </contour>
      <contour>
        <pt x="281" y="108" on="1"/>
        <pt x="249" y="108" on="1"/>
        <pt x="203" y="236" on="1"/>
        <pt x="203" y="308" on="1"/>
        <pt x="249" y="437" on="1"/>
        <pt x="281" y="437" on="1"/>
        <pt x="328" y="308" on="1"/>
        <pt x="328" y="236" on="1"/>
      </contour>
      <contour>
        <pt x="435" y="6" on="1"/>
        <pt x="305" y="55" on="1"/>
        <pt x="305" y="85" on="1"/>
        <pt x="435" y="133" on="1"/>
        <pt x="478" y="133" on="1"/>
        <pt x="478" y="6" on="1"/>
      </contour>
      <contour>
        <pt x="95" y="6" on="1"/>
        <pt x="52" y="6" on="1"/>
        <pt x="52" y="133" on="1"/>
        <pt x="95" y="133" on="1"/>
        <pt x="225" y="85" on="1"/>
        <pt x="225" y="55" on="1"/>
      </contour>
      <contour>
        <pt x="198" y="-182" on="1"/>
        <pt x="198" y="-104" on="1"/>
        <pt x="249" y="32" on="1"/>
        <pt x="281" y="32" on="1"/>
        <pt x="332" y="-104" on="1"/>
        <pt x="332" y="-182" on="1"/>
      </contour>
    </TTGlyph>
    <TTGlyph name="dcaron" xMin="33" yMin="-10" xMax="716" yMax="812">
      <component glyphName="caron.alt" x="404" y="22" flags="0x4"/>
      <component glyphName="d" x="0" y="0" flags="0x4"/>
    </TTGlyph>
    <TTGlyph name="dcroat" xMin="33" yMin="-11" xMax="591" yMax="809">
      <contour>
        <pt x="369" y="0" on="1"/>
        <pt x="359" y="62" on="1"/>
        <pt x="333" y="35" on="0"/>
        <pt x="264" y="-11" on="0"/>
        <pt x="217" y="-11" on="1"/>
        <pt x="177" y="-11" on="0"/>
        <pt x="109" y="23" on="0"/>
        <pt x="60" y="91" on="0"/>
        <pt x="33" y="192" on="0"/>
        <pt x="33" y="258" on="1"/>
        <pt x="33" y="339" on="0"/>
        <pt x="71" y="452" on="0"/>
        <pt x="135" y="523" on="0"/>
        <pt x="219" y="556" on="0"/>
        <pt x="265" y="556" on="1"/>
        <pt x="290" y="556" on="0"/>
        <pt x="327" y="550" on="0"/>
        <pt x="346" y="545" on="1"/>
        <pt x="346" y="614" on="1"/>
        <pt x="232" y="614" on="1"/>
        <pt x="215" y="722" on="1"/>
        <pt x="346" y="722" on="1"/>
        <pt x="346" y="781" on="1"/>
        <pt x="528" y="809" on="1"/>
        <pt x="528" y="722" on="1"/>
        <pt x="591" y="722" on="1"/>
        <pt x="591" y="613" on="1"/>
        <pt x="528" y="613" on="1"/>
        <pt x="528" y="0" on="1"/>
      </contour>
      <contour>
        <pt x="346" y="405" on="1"/>
        <pt x="336" y="410" on="0"/>
        <pt x="316" y="414" on="0"/>
        <pt x="302" y="414" on="1"/>
        <pt x="263" y="414" on="0"/>
        <pt x="214" y="349" on="0"/>
        <pt x="214" y="273" on="1"/>
        <pt x="214" y="206" on="0"/>
        <pt x="254" y="151" on="0"/>
        <pt x="283" y="151" on="1"/>
        <pt x="301" y="151" on="0"/>
        <pt x="331" y="168" on="0"/>
        <pt x="346" y="182" on="1"/>
      </contour>
    </TTGlyph>
    <TTGlyph name="dcroat.flat" xMin="33" yMin="-11" xMax="591" yMax="809">
      <contour>
        <pt x="369" y="0" on="1"/>
        <pt x="359" y="62" on="1"/>
        <pt x="333" y="35" on="0"/>
        <pt x="264" y="-11" on="0"/>
        <pt x="217" y="-11" on="1"/>
        <pt x="177" y="-11" on="0"/>
        <pt x="109" y="23" on="0"/>
        <pt x="60" y="91" on="0"/>
        <pt x="33" y="192" on="0"/>
        <pt x="33" y="258" on="1"/>
        <pt x="33" y="339" on="0"/>
        <pt x="71" y="452" on="0"/>
        <pt x="135" y="523" on="0"/>
        <pt x="219" y="556" on="0"/>
        <pt x="265" y="556" on="1"/>
        <pt x="290" y="556" on="0"/>
        <pt x="327" y="550" on="0"/>
        <pt x="346" y="545" on="1"/>
        <pt x="346" y="614" on="1"/>
        <pt x="224" y="614" on="1"/>
        <pt x="224" y="722" on="1"/>
        <pt x="346" y="722" on="1"/>
        <pt x="346" y="781" on="1"/>
        <pt x="528" y="809" on="1"/>
        <pt x="528" y="722" on="1"/>
        <pt x="591" y="722" on="1"/>
        <pt x="591" y="613" on="1"/>
        <pt x="528" y="613" on="1"/>
        <pt x="528" y="0" on="1"/>
      </contour>
      <contour>
        <pt x="346" y="405" on="1"/>
        <pt x="336" y="410" on="0"/>
        <pt x="316" y="414" on="0"/>
        <pt x="302" y="414" on="1"/>
        <pt x="263" y="414" on="0"/>
        <pt x="214" y="349" on="0"/>
        <pt x="214" y="273" on="1"/>
        <pt x="214" y="206" on="0"/>
        <pt x="254" y="151" on="0"/>
        <pt x="283" y="151" on="1"/>
        <pt x="301" y="151" on="0"/>
        <pt x="331" y="168" on="0"/>
        <pt x="346" y="182" on="1"/>
      </contour>
    </TTGlyph>
    <TTGlyph name="degree" xMin="43" yMin="375" xMax="393" yMax="725">
      <contour>
        <pt x="393" y="550" on="1"/>
        <pt x="393" y="512" on="0"/>
        <pt x="367" y="447" on="0"/>
        <pt x="320" y="401" on="0"/>
        <pt x="256" y="375" on="0"/>
        <pt x="217" y="375" on="1"/>
        <pt x="179" y="375" on="0"/>
        <pt x="115" y="401" on="0"/>
        <pt x="69" y="447" on="0"/>
        <pt x="43" y="511" on="0"/>
        <pt x="43" y="549" on="1"/>
        <pt x="43" y="587" on="0"/>
        <pt x="69" y="651" on="0"/>
        <pt x="115" y="698" on="0"/>
        <pt x="179" y="725" on="0"/>
        <pt x="217" y="725" on="1"/>
        <pt x="256" y="725" on="0"/>
        <pt x="320" y="698" on="0"/>
        <pt x="367" y="652" on="0"/>
        <pt x="393" y="587" on="0"/>
      </contour>
      <contour>
        <pt x="295" y="550" on="1"/>
        <pt x="295" y="586" on="0"/>
        <pt x="252" y="634" on="0"/>
        <pt x="217" y="634" on="1"/>
        <pt x="182" y="634" on="0"/>
        <pt x="140" y="586" on="0"/>
        <pt x="140" y="549" on="1"/>
        <pt x="140" y="512" on="0"/>
        <pt x="182" y="464" on="0"/>
        <pt x="217" y="464" on="1"/>
        <pt x="253" y="464" on="0"/>
        <pt x="295" y="513" on="0"/>
      </contour>
    </TTGlyph>
    <TTGlyph name="degree.tab" xMin="70" yMin="343" xMax="458" yMax="729">
      <contour>
        <pt x="458" y="535" on="1"/>
        <pt x="458" y="493" on="0"/>
        <pt x="429" y="422" on="0"/>
        <pt x="378" y="371" on="0"/>
        <pt x="306" y="343" on="0"/>
        <pt x="264" y="343" on="1"/>
        <pt x="222" y="343" on="0"/>
        <pt x="150" y="371" on="0"/>
        <pt x="99" y="422" on="0"/>
        <pt x="70" y="493" on="0"/>
        <pt x="70" y="535" on="1"/>
        <pt x="70" y="577" on="0"/>
        <pt x="99" y="648" on="0"/>
        <pt x="150" y="700" on="0"/>
        <pt x="222" y="729" on="0"/>
        <pt x="264" y="729" on="1"/>
        <pt x="306" y="729" on="0"/>
        <pt x="378" y="700" on="0"/>
        <pt x="429" y="648" on="0"/>
        <pt x="458" y="577" on="0"/>
      </contour>
      <contour>
        <pt x="168" y="535" on="1"/>
        <pt x="168" y="490" on="0"/>
        <pt x="221" y="433" on="0"/>
        <pt x="264" y="433" on="1"/>
        <pt x="308" y="433" on="0"/>
        <pt x="361" y="490" on="0"/>
        <pt x="361" y="535" on="1"/>
        <pt x="361" y="580" on="0"/>
        <pt x="308" y="639" on="0"/>
        <pt x="264" y="639" on="1"/>
        <pt x="221" y="639" on="0"/>
        <pt x="168" y="580" on="0"/>
      </contour>
    </TTGlyph>
    <TTGlyph name="dieresis" xMin="57" yMin="606" xMax="414" yMax="758">
      <contour>
        <pt x="57" y="606" on="1"/>
        <pt x="57" y="758" on="1"/>
        <pt x="204" y="758" on="1"/>
        <pt x="204" y="606" on="1"/>
      </contour>
      <contour>
        <pt x="266" y="606" on="1"/>
        <pt x="266" y="758" on="1"/>
        <pt x="414" y="758" on="1"/>
        <pt x="414" y="606" on="1"/>
      </contour>
    </TTGlyph>
    <TTGlyph name="dieresis.cap" xMin="53" yMin="568" xMax="389" yMax="712">
      <contour>
        <pt x="53" y="568" on="1"/>
        <pt x="53" y="712" on="1"/>
        <pt x="192" y="712" on="1"/>
        <pt x="192" y="568" on="1"/>
      </contour>
      <contour>
        <pt x="250" y="568" on="1"/>
        <pt x="250" y="712" on="1"/>
        <pt x="389" y="712" on="1"/>
        <pt x="389" y="568" on="1"/>
      </contour>
    </TTGlyph>
    <TTGlyph name="divide" xMin="50" yMin="93" xMax="494" yMax="624">
      <contour>
        <pt x="200" y="486" on="1"/>
        <pt x="200" y="624" on="1"/>
        <pt x="344" y="624" on="1"/>
        <pt x="344" y="486" on="1"/>
      </contour>
      <contour>
        <pt x="50" y="294" on="1"/>
        <pt x="50" y="423" on="1"/>
        <pt x="494" y="423" on="1"/>
        <pt x="494" y="294" on="1"/>
      </contour>
      <contour>
        <pt x="200" y="93" on="1"/>
        <pt x="200" y="231" on="1"/>
        <pt x="344" y="231" on="1"/>
        <pt x="344" y="93" on="1"/>
      </contour>
    </TTGlyph>
    <TTGlyph name="divide.tab" xMin="42" yMin="93" xMax="486" yMax="624">
      <contour>
        <pt x="193" y="486" on="1"/>
        <pt x="193" y="624" on="1"/>
        <pt x="337" y="624" on="1"/>
        <pt x="337" y="486" on="1"/>
      </contour>
      <contour>
        <pt x="42" y="294" on="1"/>
        <pt x="42" y="423" on="1"/>
        <pt x="486" y="423" on="1"/>
        <pt x="486" y="294" on="1"/>
      </contour>
      <contour>
        <pt x="193" y="93" on="1"/>
        <pt x="193" y="231" on="1"/>
        <pt x="337" y="231" on="1"/>
        <pt x="337" y="93" on="1"/>
      </contour>
    </TTGlyph>
    <TTGlyph name="dollar" xMin="24" yMin="-129" xMax="530" yMax="801">
      <contour>
        <pt x="383" y="713" on="1"/>
        <pt x="454" y="699" on="0"/>
        <pt x="508" y="666" on="1"/>
        <pt x="482" y="516" on="1"/>
        <pt x="417" y="558" on="0"/>
        <pt x="354" y="573" on="1"/>
        <pt x="333" y="438" on="1"/>
        <pt x="381" y="420" on="0"/>
        <pt x="454" y="382" on="0"/>
        <pt x="504" y="331" on="0"/>
        <pt x="530" y="263" on="0"/>
        <pt x="530" y="215" on="1"/>
        <pt x="530" y="156" on="0"/>
        <pt x="489" y="73" on="0"/>
        <pt x="420" y="20" on="0"/>
        <pt x="329" y="-5" on="0"/>
        <pt x="278" y="-5" on="1"/>
        <pt x="274" y="-5" on="1"/>
        <pt x="254" y="-129" on="1"/>
        <pt x="172" y="-111" on="1"/>
        <pt x="190" y="4" on="1"/>
        <pt x="145" y="12" on="0"/>
        <pt x="62" y="43" on="0"/>
        <pt x="24" y="64" on="1"/>
        <pt x="49" y="214" on="1"/>
        <pt x="95" y="188" on="0"/>
        <pt x="179" y="152" on="0"/>
        <pt x="221" y="144" on="1"/>
        <pt x="244" y="296" on="1"/>
        <pt x="199" y="312" on="0"/>
        <pt x="126" y="349" on="0"/>
        <pt x="73" y="399" on="0"/>
        <pt x="45" y="466" on="0"/>
        <pt x="45" y="514" on="1"/>
        <pt x="45" y="565" on="0"/>
        <pt x="82" y="643" on="0"/>
        <pt x="148" y="695" on="0"/>
        <pt x="239" y="722" on="0"/>
        <pt x="293" y="722" on="1"/>
        <pt x="300" y="722" on="1"/>
        <pt x="312" y="801" on="1"/>
        <pt x="394" y="783" on="1"/>
      </contour>
      <contour>
        <pt x="372" y="199" on="1"/>
        <pt x="372" y="222" on="0"/>
        <pt x="346" y="255" on="0"/>
        <pt x="308" y="272" on="1"/>
        <pt x="287" y="137" on="1"/>
        <pt x="291" y="137" on="1"/>
        <pt x="328" y="139" on="0"/>
        <pt x="372" y="171" on="0"/>
      </contour>
      <contour>
        <pt x="204" y="527" on="1"/>
        <pt x="204" y="507" on="0"/>
        <pt x="230" y="479" on="0"/>
        <pt x="269" y="462" on="1"/>
        <pt x="288" y="581" on="1"/>
        <pt x="282" y="581" on="1"/>
        <pt x="244" y="581" on="0"/>
        <pt x="204" y="552" on="0"/>
      </contour>
    </TTGlyph>
    <TTGlyph name="dollar.tab" xMin="23" yMin="-127" xMax="495" yMax="798">
      <contour>
        <pt x="157" y="-112" on="1"/>
        <pt x="173" y="1" on="1"/>
        <pt x="132" y="9" on="0"/>
        <pt x="59" y="38" on="0"/>
        <pt x="23" y="56" on="1"/>
        <pt x="46" y="202" on="1"/>
        <pt x="86" y="179" on="0"/>
        <pt x="164" y="144" on="0"/>
        <pt x="202" y="135" on="1"/>
        <pt x="225" y="298" on="1"/>
        <pt x="177" y="314" on="0"/>
        <pt x="107" y="353" on="0"/>
        <pt x="61" y="403" on="0"/>
        <pt x="39" y="468" on="0"/>
        <pt x="39" y="511" on="1"/>
        <pt x="39" y="610" on="0"/>
        <pt x="158" y="722" on="0"/>
        <pt x="269" y="722" on="1"/>
        <pt x="275" y="722" on="1"/>
        <pt x="286" y="798" on="1"/>
        <pt x="368" y="783" on="1"/>
        <pt x="357" y="713" on="1"/>
        <pt x="392" y="705" on="0"/>
        <pt x="451" y="681" on="0"/>
        <pt x="476" y="667" on="1"/>
        <pt x="452" y="520" on="1"/>
        <pt x="426" y="536" on="0"/>
        <pt x="363" y="569" on="0"/>
        <pt x="330" y="580" on="1"/>
        <pt x="309" y="434" on="1"/>
        <pt x="358" y="417" on="0"/>
        <pt x="429" y="377" on="0"/>
        <pt x="474" y="326" on="0"/>
        <pt x="495" y="261" on="0"/>
        <pt x="495" y="219" on="1"/>
        <pt x="495" y="164" on="0"/>
        <pt x="460" y="81" on="0"/>
        <pt x="399" y="26" on="0"/>
        <pt x="317" y="-4" on="0"/>
        <pt x="270" y="-6" on="1"/>
        <pt x="255" y="-6" on="1"/>
        <pt x="238" y="-127" on="1"/>
      </contour>
      <contour>
        <pt x="187" y="525" on="1"/>
        <pt x="187" y="500" on="0"/>
        <pt x="213" y="467" on="0"/>
        <pt x="247" y="453" on="1"/>
        <pt x="267" y="591" on="1"/>
        <pt x="264" y="591" on="1"/>
        <pt x="262" y="591" on="1"/>
        <pt x="227" y="591" on="0"/>
        <pt x="187" y="554" on="0"/>
      </contour>
      <contour>
        <pt x="346" y="203" on="1"/>
        <pt x="346" y="229" on="0"/>
        <pt x="319" y="266" on="0"/>
        <pt x="287" y="280" on="1"/>
        <pt x="266" y="128" on="1"/>
        <pt x="269" y="128" on="1"/>
        <pt x="305" y="130" on="0"/>
        <pt x="346" y="170" on="0"/>
      </contour>
    </TTGlyph>
    <TTGlyph name="dotaccent" xMin="158" yMin="606" xMax="312" yMax="758">
      <contour>
        <pt x="158" y="606" on="1"/>
        <pt x="158" y="758" on="1"/>
        <pt x="312" y="758" on="1"/>
        <pt x="312" y="606" on="1"/>
      </contour>
    </TTGlyph>
    <TTGlyph name="dotaccent.cap" xMin="148" yMin="568" xMax="294" yMax="712">
      <contour>
        <pt x="148" y="568" on="1"/>
        <pt x="148" y="712" on="1"/>
        <pt x="294" y="712" on="1"/>
        <pt x="294" y="568" on="1"/>
      </contour>
    </TTGlyph>
    <TTGlyph name="dotlessi" xMin="54" yMin="0" xMax="236" yMax="552">
      <contour>
        <pt x="54" y="0" on="1"/>
        <pt x="54" y="552" on="1"/>
        <pt x="236" y="552" on="1"/>
        <pt x="236" y="0" on="1"/>
      </contour>
    </TTGlyph>
    <TTGlyph name="e" xMin="31" yMin="-11" xMax="509" yMax="563">
      <contour>
        <pt x="508" y="43" on="1"/>
        <pt x="466" y="19" on="0"/>
        <pt x="363" y="-11" on="0"/>
        <pt x="301" y="-11" on="1"/>
        <pt x="238" y="-11" on="0"/>
        <pt x="138" y="24" on="0"/>
        <pt x="68" y="95" on="0"/>
        <pt x="31" y="203" on="0"/>
        <pt x="31" y="275" on="1"/>
        <pt x="31" y="339" on="0"/>
        <pt x="66" y="445" on="0"/>
        <pt x="130" y="521" on="0"/>
        <pt x="221" y="563" on="0"/>
        <pt x="278" y="563" on="1"/>
        <pt x="337" y="563" on="0"/>
        <pt x="424" y="521" on="0"/>
        <pt x="481" y="446" on="0"/>
        <pt x="509" y="343" on="0"/>
        <pt x="509" y="282" on="1"/>
        <pt x="509" y="267" on="0"/>
        <pt x="507" y="232" on="0"/>
        <pt x="505" y="224" on="1"/>
        <pt x="210" y="224" on="1"/>
        <pt x="218" y="168" on="0"/>
        <pt x="281" y="123" on="0"/>
        <pt x="330" y="123" on="1"/>
        <pt x="368" y="123" on="0"/>
        <pt x="447" y="147" on="0"/>
        <pt x="489" y="170" on="1"/>
      </contour>
      <contour>
        <pt x="274" y="443" on="1"/>
        <pt x="246" y="443" on="0"/>
        <pt x="210" y="386" on="0"/>
        <pt x="207" y="325" on="1"/>
        <pt x="339" y="325" on="1"/>
        <pt x="338" y="385" on="0"/>
        <pt x="304" y="443" on="0"/>
      </contour>
    </TTGlyph>
    <TTGlyph name="eacute" xMin="31" yMin="-11" xMax="509" yMax="778">
      <component glyphName="acute" x="100" y="3" flags="0x4"/>
      <component glyphName="e" x="0" y="0" flags="0x4"/>
    </TTGlyph>
    <TTGlyph name="ebreve" xMin="31" yMin="-11" xMax="509" yMax="778">
      <component glyphName="e" x="0" y="0" flags="0x204"/>
      <component glyphName="breve" x="44" y="3" flags="0x4"/>
    </TTGlyph>
    <TTGlyph name="ecaron" xMin="31" yMin="-11" xMax="509" yMax="775">
      <component glyphName="caron" x="45" y="3" flags="0x4"/>
      <component glyphName="e" x="0" y="0" flags="0x4"/>
    </TTGlyph>
    <TTGlyph name="ecircumflex" xMin="31" yMin="-11" xMax="509" yMax="775">
      <component glyphName="circumflex" x="43" y="3" flags="0x4"/>
      <component glyphName="e" x="0" y="0" flags="0x4"/>
    </TTGlyph>
    <TTGlyph name="edieresis" xMin="31" yMin="-11" xMax="509" yMax="761">
      <component glyphName="dieresis" x="44" y="3" flags="0x4"/>
      <component glyphName="e" x="0" y="0" flags="0x4"/>
    </TTGlyph>
    <TTGlyph name="edotaccent" xMin="31" yMin="-11" xMax="509" yMax="761">
      <component glyphName="e" x="0" y="0" flags="0x204"/>
      <component glyphName="dotaccent" x="44" y="3" flags="0x4"/>
    </TTGlyph>
    <TTGlyph name="egrave" xMin="31" yMin="-11" xMax="509" yMax="778">
      <component glyphName="e" x="0" y="0" flags="0x204"/>
      <component glyphName="grave" x="-13" y="3" flags="0x4"/>
    </TTGlyph>
    <TTGlyph name="eight" xMin="36" yMin="-14" xMax="565" yMax="731">
      <contour>
        <pt x="36" y="187" on="1"/>
        <pt x="36" y="244" on="0"/>
        <pt x="98" y="335" on="0"/>
        <pt x="153" y="369" on="1"/>
        <pt x="105" y="401" on="0"/>
        <pt x="55" y="481" on="0"/>
        <pt x="55" y="535" on="1"/>
        <pt x="55" y="580" on="0"/>
        <pt x="90" y="652" on="0"/>
        <pt x="155" y="703" on="0"/>
        <pt x="248" y="731" on="0"/>
        <pt x="305" y="731" on="1"/>
        <pt x="361" y="731" on="0"/>
        <pt x="451" y="704" on="0"/>
        <pt x="514" y="655" on="0"/>
        <pt x="548" y="587" on="0"/>
        <pt x="548" y="545" on="1"/>
        <pt x="548" y="448" on="0"/>
        <pt x="448" y="381" on="1"/>
        <pt x="508" y="348" on="0"/>
        <pt x="565" y="261" on="0"/>
        <pt x="565" y="197" on="1"/>
        <pt x="565" y="152" on="0"/>
        <pt x="529" y="74" on="0"/>
        <pt x="462" y="18" on="0"/>
        <pt x="364" y="-14" on="0"/>
        <pt x="302" y="-14" on="1"/>
        <pt x="237" y="-14" on="0"/>
        <pt x="137" y="16" on="0"/>
        <pt x="70" y="69" on="0"/>
        <pt x="36" y="143" on="0"/>
      </contour>
      <contour>
        <pt x="215" y="201" on="1"/>
        <pt x="215" y="162" on="0"/>
        <pt x="264" y="114" on="0"/>
        <pt x="304" y="114" on="1"/>
        <pt x="338" y="114" on="0"/>
        <pt x="386" y="158" on="0"/>
        <pt x="386" y="195" on="1"/>
        <pt x="386" y="233" on="0"/>
        <pt x="335" y="283" on="0"/>
        <pt x="271" y="311" on="1"/>
        <pt x="245" y="287" on="0"/>
        <pt x="215" y="232" on="0"/>
      </contour>
      <contour>
        <pt x="228" y="539" on="1"/>
        <pt x="228" y="510" on="0"/>
        <pt x="268" y="463" on="0"/>
        <pt x="326" y="438" on="1"/>
        <pt x="350" y="459" on="0"/>
        <pt x="375" y="505" on="0"/>
        <pt x="375" y="534" on="1"/>
        <pt x="375" y="568" on="0"/>
        <pt x="335" y="609" on="0"/>
        <pt x="301" y="609" on="1"/>
        <pt x="267" y="609" on="0"/>
        <pt x="228" y="568" on="0"/>
      </contour>
    </TTGlyph>
    <TTGlyph name="eight.den" xMin="30" yMin="-11" xMax="323" yMax="388">
      <component glyphName="eight.num" x="0" y="-343" flags="0x204"/>
    </TTGlyph>
    <TTGlyph name="eight.inf" xMin="30" yMin="-168" xMax="323" yMax="231">
      <component glyphName="eight.num" x="0" y="-500" flags="0x204"/>
    </TTGlyph>
    <TTGlyph name="eight.num" xMin="30" yMin="332" xMax="323" yMax="731">
      <contour>
        <pt x="30" y="442" on="1"/>
        <pt x="30" y="471" on="0"/>
        <pt x="60" y="519" on="0"/>
        <pt x="94" y="538" on="1"/>
        <pt x="37" y="569" on="0"/>
        <pt x="37" y="624" on="1"/>
        <pt x="37" y="673" on="0"/>
        <pt x="112" y="731" on="0"/>
        <pt x="178" y="731" on="1"/>
        <pt x="238" y="731" on="0"/>
        <pt x="315" y="678" on="0"/>
        <pt x="315" y="633" on="1"/>
        <pt x="315" y="601" on="0"/>
        <pt x="282" y="558" on="0"/>
        <pt x="255" y="543" on="1"/>
        <pt x="291" y="526" on="0"/>
        <pt x="323" y="480" on="0"/>
        <pt x="323" y="447" on="1"/>
        <pt x="323" y="397" on="0"/>
        <pt x="247" y="332" on="0"/>
        <pt x="175" y="332" on="1"/>
        <pt x="103" y="332" on="0"/>
        <pt x="30" y="394" on="0"/>
      </contour>
      <contour>
        <pt x="219" y="449" on="1"/>
        <pt x="219" y="467" on="0"/>
        <pt x="193" y="498" on="0"/>
        <pt x="160" y="512" on="1"/>
        <pt x="133" y="482" on="0"/>
        <pt x="133" y="452" on="1"/>
        <pt x="133" y="431" on="0"/>
        <pt x="159" y="408" on="0"/>
        <pt x="177" y="408" on="1"/>
        <pt x="196" y="408" on="0"/>
        <pt x="219" y="429" on="0"/>
      </contour>
      <contour>
        <pt x="137" y="621" on="1"/>
        <pt x="137" y="605" on="0"/>
        <pt x="162" y="578" on="0"/>
        <pt x="195" y="565" on="1"/>
        <pt x="215" y="590" on="0"/>
        <pt x="215" y="617" on="1"/>
        <pt x="215" y="637" on="0"/>
        <pt x="194" y="658" on="0"/>
        <pt x="176" y="658" on="1"/>
        <pt x="158" y="658" on="0"/>
        <pt x="137" y="638" on="0"/>
      </contour>
    </TTGlyph>
    <TTGlyph name="eight.sup" xMin="30" yMin="431" xMax="323" yMax="830">
      <component glyphName="eight.num" x="0" y="99" flags="0x204"/>
    </TTGlyph>
    <TTGlyph name="eight.tab" xMin="27" yMin="-11" xMax="500" yMax="733">
      <contour>
        <pt x="500" y="196" on="1"/>
        <pt x="500" y="151" on="0"/>
        <pt x="468" y="76" on="0"/>
        <pt x="407" y="20" on="0"/>
        <pt x="319" y="-11" on="0"/>
        <pt x="264" y="-11" on="1"/>
        <pt x="206" y="-11" on="0"/>
        <pt x="117" y="19" on="0"/>
        <pt x="57" y="72" on="0"/>
        <pt x="27" y="144" on="0"/>
        <pt x="27" y="186" on="1"/>
        <pt x="27" y="246" on="0"/>
        <pt x="84" y="341" on="0"/>
        <pt x="138" y="376" on="1"/>
        <pt x="40" y="437" on="0"/>
        <pt x="40" y="537" on="1"/>
        <pt x="40" y="580" on="0"/>
        <pt x="72" y="652" on="0"/>
        <pt x="131" y="704" on="0"/>
        <pt x="215" y="733" on="0"/>
        <pt x="268" y="733" on="1"/>
        <pt x="320" y="733" on="0"/>
        <pt x="403" y="705" on="0"/>
        <pt x="460" y="656" on="0"/>
        <pt x="490" y="587" on="0"/>
        <pt x="490" y="547" on="1"/>
        <pt x="490" y="488" on="0"/>
        <pt x="433" y="407" on="0"/>
        <pt x="390" y="376" on="1"/>
        <pt x="448" y="341" on="0"/>
        <pt x="500" y="252" on="0"/>
      </contour>
      <contour>
        <pt x="334" y="196" on="1"/>
        <pt x="334" y="234" on="0"/>
        <pt x="293" y="301" on="0"/>
        <pt x="242" y="327" on="1"/>
        <pt x="218" y="303" on="0"/>
        <pt x="193" y="239" on="0"/>
        <pt x="193" y="204" on="1"/>
        <pt x="193" y="158" on="0"/>
        <pt x="234" y="113" on="0"/>
        <pt x="266" y="113" on="1"/>
        <pt x="296" y="113" on="0"/>
        <pt x="334" y="158" on="0"/>
      </contour>
      <contour>
        <pt x="201" y="538" on="1"/>
        <pt x="201" y="502" on="0"/>
        <pt x="239" y="448" on="0"/>
        <pt x="287" y="425" on="1"/>
        <pt x="327" y="466" on="0"/>
        <pt x="327" y="532" on="1"/>
        <pt x="327" y="572" on="0"/>
        <pt x="292" y="611" on="0"/>
        <pt x="264" y="611" on="1"/>
        <pt x="235" y="611" on="0"/>
        <pt x="201" y="570" on="0"/>
      </contour>
    </TTGlyph>
    <TTGlyph name="ellipsis" xMin="48" yMin="0" xMax="763" yMax="202">
      <contour>
        <pt x="581" y="0" on="1"/>
        <pt x="581" y="202" on="1"/>
        <pt x="763" y="202" on="1"/>
        <pt x="763" y="0" on="1"/>
      </contour>
      <contour>
        <pt x="314" y="0" on="1"/>
        <pt x="314" y="202" on="1"/>
        <pt x="497" y="202" on="1"/>
        <pt x="497" y="0" on="1"/>
      </contour>
      <contour>
        <pt x="48" y="0" on="1"/>
        <pt x="48" y="202" on="1"/>
        <pt x="231" y="202" on="1"/>
        <pt x="231" y="0" on="1"/>
      </contour>
    </TTGlyph>
    <TTGlyph name="emacron" xMin="31" yMin="-11" xMax="509" yMax="740">
      <component glyphName="e" x="0" y="0" flags="0x204"/>
      <component glyphName="macron" x="44" y="3" flags="0x4"/>
    </TTGlyph>
    <TTGlyph name="emdash" xMin="40" yMin="244" xMax="873" yMax="411">
      <contour>
        <pt x="40" y="244" on="1"/>
        <pt x="40" y="411" on="1"/>
        <pt x="873" y="411" on="1"/>
        <pt x="873" y="244" on="1"/>
      </contour>
    </TTGlyph>
    <TTGlyph name="endash" xMin="40" yMin="243" xMax="449" yMax="413">
      <contour>
        <pt x="40" y="243" on="1"/>
        <pt x="40" y="413" on="1"/>
        <pt x="449" y="413" on="1"/>
        <pt x="449" y="243" on="1"/>
      </contour>
    </TTGlyph>
    <TTGlyph name="eogonek" xMin="31" yMin="-226" xMax="509" yMax="563">
      <contour>
        <pt x="382" y="-226" on="1"/>
        <pt x="327" y="-226" on="0"/>
        <pt x="266" y="-179" on="0"/>
        <pt x="267" y="-131" on="1"/>
        <pt x="267" y="-77" on="0"/>
        <pt x="333" y="-9" on="1"/>
        <pt x="326" y="-10" on="0"/>
        <pt x="310" y="-11" on="0"/>
        <pt x="301" y="-11" on="1"/>
        <pt x="238" y="-11" on="0"/>
        <pt x="138" y="24" on="0"/>
        <pt x="68" y="95" on="0"/>
        <pt x="31" y="203" on="0"/>
        <pt x="31" y="275" on="1"/>
        <pt x="31" y="339" on="0"/>
        <pt x="66" y="445" on="0"/>
        <pt x="130" y="521" on="0"/>
        <pt x="221" y="563" on="0"/>
        <pt x="278" y="563" on="1"/>
        <pt x="337" y="563" on="0"/>
        <pt x="424" y="521" on="0"/>
        <pt x="481" y="446" on="0"/>
        <pt x="509" y="343" on="0"/>
        <pt x="509" y="282" on="1"/>
        <pt x="509" y="268" on="0"/>
        <pt x="507" y="231" on="0"/>
        <pt x="505" y="224" on="1"/>
        <pt x="210" y="224" on="1"/>
        <pt x="218" y="169" on="0"/>
        <pt x="281" y="123" on="0"/>
        <pt x="330" y="123" on="1"/>
        <pt x="368" y="123" on="0"/>
        <pt x="447" y="147" on="0"/>
        <pt x="489" y="170" on="1"/>
        <pt x="506" y="55" on="1"/>
        <pt x="456" y="2" on="1"/>
        <pt x="426" y="-30" on="0"/>
        <pt x="398" y="-73" on="0"/>
        <pt x="398" y="-90" on="1"/>
        <pt x="398" y="-107" on="0"/>
        <pt x="419" y="-127" on="0"/>
        <pt x="443" y="-127" on="1"/>
        <pt x="457" y="-127" on="0"/>
        <pt x="480" y="-123" on="0"/>
        <pt x="497" y="-118" on="1"/>
        <pt x="497" y="-203" on="1"/>
        <pt x="466" y="-214" on="0"/>
        <pt x="414" y="-226" on="0"/>
      </contour>
      <contour>
        <pt x="339" y="325" on="1"/>
        <pt x="338" y="385" on="0"/>
        <pt x="304" y="443" on="0"/>
        <pt x="274" y="443" on="1"/>
        <pt x="247" y="443" on="0"/>
        <pt x="211" y="386" on="0"/>
        <pt x="208" y="325" on="1"/>
      </contour>
    </TTGlyph>
    <TTGlyph name="equal" xMin="63" yMin="179" xMax="492" yMax="540">
      <contour>
        <pt x="63" y="410" on="1"/>
        <pt x="63" y="540" on="1"/>
        <pt x="492" y="540" on="1"/>
        <pt x="492" y="410" on="1"/>
      </contour>
      <contour>
        <pt x="63" y="179" on="1"/>
        <pt x="63" y="308" on="1"/>
        <pt x="492" y="308" on="1"/>
        <pt x="492" y="179" on="1"/>
      </contour>
    </TTGlyph>
    <TTGlyph name="equal.tab" xMin="50" yMin="179" xMax="479" yMax="540">
      <contour>
        <pt x="50" y="410" on="1"/>
        <pt x="50" y="540" on="1"/>
        <pt x="479" y="540" on="1"/>
        <pt x="479" y="410" on="1"/>
      </contour>
      <contour>
        <pt x="50" y="179" on="1"/>
        <pt x="50" y="308" on="1"/>
        <pt x="479" y="308" on="1"/>
        <pt x="479" y="179" on="1"/>
      </contour>
    </TTGlyph>
    <TTGlyph name="eth" xMin="31" yMin="-12" xMax="543" yMax="809">
      <contour>
        <pt x="160" y="559" on="1"/>
        <pt x="214" y="640" on="1"/>
        <pt x="179" y="655" on="0"/>
        <pt x="138" y="667" on="1"/>
        <pt x="159" y="809" on="1"/>
        <pt x="197" y="801" on="0"/>
        <pt x="265" y="777" on="0"/>
        <pt x="296" y="763" on="1"/>
        <pt x="326" y="809" on="1"/>
        <pt x="424" y="787" on="1"/>
        <pt x="375" y="717" on="1"/>
        <pt x="456" y="657" on="0"/>
        <pt x="543" y="476" on="0"/>
        <pt x="543" y="348" on="1"/>
        <pt x="543" y="243" on="0"/>
        <pt x="495" y="99" on="0"/>
        <pt x="450" y="54" on="1"/>
        <pt x="416" y="19" on="0"/>
        <pt x="331" y="-12" on="0"/>
        <pt x="277" y="-12" on="1"/>
        <pt x="227" y="-12" on="0"/>
        <pt x="138" y="23" on="0"/>
        <pt x="70" y="91" on="0"/>
        <pt x="31" y="190" on="0"/>
        <pt x="31" y="255" on="1"/>
        <pt x="31" y="315" on="0"/>
        <pt x="61" y="412" on="0"/>
        <pt x="113" y="480" on="0"/>
        <pt x="183" y="517" on="0"/>
        <pt x="223" y="517" on="1"/>
        <pt x="265" y="517" on="0"/>
        <pt x="333" y="487" on="0"/>
        <pt x="364" y="458" on="1"/>
        <pt x="352" y="544" on="0"/>
        <pt x="287" y="597" on="1"/>
        <pt x="259" y="559" on="1"/>
      </contour>
      <contour>
        <pt x="285" y="132" on="1"/>
        <pt x="323" y="132" on="0"/>
        <pt x="368" y="224" on="0"/>
        <pt x="368" y="331" on="1"/>
        <pt x="368" y="338" on="1"/>
        <pt x="323" y="376" on="0"/>
        <pt x="279" y="376" on="1"/>
        <pt x="208" y="376" on="0"/>
        <pt x="208" y="248" on="1"/>
        <pt x="208" y="197" on="0"/>
        <pt x="249" y="132" on="0"/>
      </contour>
    </TTGlyph>
    <TTGlyph name="exclam" xMin="45" yMin="0" xMax="254" yMax="725">
      <contour>
        <pt x="201" y="270" on="1"/>
        <pt x="101" y="252" on="1"/>
        <pt x="45" y="725" on="1"/>
        <pt x="254" y="725" on="1"/>
      </contour>
      <contour>
        <pt x="61" y="0" on="1"/>
        <pt x="61" y="191" on="1"/>
        <pt x="238" y="191" on="1"/>
        <pt x="238" y="0" on="1"/>
      </contour>
    </TTGlyph>
    <TTGlyph name="exclam.flat" xMin="45" yMin="0" xMax="254" yMax="725">
      <contour>
        <pt x="199" y="261" on="1"/>
        <pt x="100" y="261" on="1"/>
        <pt x="45" y="725" on="1"/>
        <pt x="254" y="725" on="1"/>
      </contour>
      <contour>
        <pt x="61" y="0" on="1"/>
        <pt x="61" y="191" on="1"/>
        <pt x="238" y="191" on="1"/>
        <pt x="238" y="0" on="1"/>
      </contour>
    </TTGlyph>
    <TTGlyph name="exclamdown" xMin="45" yMin="0" xMax="254" yMax="725">
      <contour>
        <pt x="61" y="534" on="1"/>
        <pt x="61" y="725" on="1"/>
        <pt x="238" y="725" on="1"/>
        <pt x="238" y="534" on="1"/>
      </contour>
      <contour>
        <pt x="45" y="0" on="1"/>
        <pt x="98" y="454" on="1"/>
        <pt x="198" y="473" on="1"/>
        <pt x="254" y="0" on="1"/>
      </contour>
    </TTGlyph>
    <TTGlyph name="exclamdown.flat" xMin="45" yMin="0" xMax="254" yMax="725">
      <contour>
        <pt x="61" y="534" on="1"/>
        <pt x="61" y="725" on="1"/>
        <pt x="238" y="725" on="1"/>
        <pt x="238" y="534" on="1"/>
      </contour>
      <contour>
        <pt x="45" y="0" on="1"/>
        <pt x="100" y="464" on="1"/>
        <pt x="199" y="464" on="1"/>
        <pt x="254" y="0" on="1"/>
      </contour>
    </TTGlyph>
    <TTGlyph name="f" xMin="18" yMin="0" xMax="384" yMax="801">
      <contour>
        <pt x="384" y="654" on="1"/>
        <pt x="371" y="657" on="0"/>
        <pt x="343" y="661" on="0"/>
        <pt x="327" y="661" on="1"/>
        <pt x="266" y="661" on="0"/>
        <pt x="266" y="599" on="1"/>
        <pt x="266" y="552" on="1"/>
        <pt x="354" y="552" on="1"/>
        <pt x="377" y="404" on="1"/>
        <pt x="266" y="404" on="1"/>
        <pt x="266" y="0" on="1"/>
        <pt x="86" y="0" on="1"/>
        <pt x="86" y="404" on="1"/>
        <pt x="18" y="404" on="1"/>
        <pt x="18" y="552" on="1"/>
        <pt x="86" y="552" on="1"/>
        <pt x="86" y="620" on="1"/>
        <pt x="86" y="715" on="0"/>
        <pt x="190" y="801" on="0"/>
        <pt x="286" y="801" on="1"/>
        <pt x="307" y="801" on="0"/>
        <pt x="345" y="797" on="0"/>
        <pt x="362" y="794" on="1"/>
      </contour>
    </TTGlyph>
    <TTGlyph name="f.flat" xMin="18" yMin="0" xMax="384" yMax="801">
      <contour>
        <pt x="384" y="654" on="1"/>
        <pt x="371" y="657" on="0"/>
        <pt x="343" y="661" on="0"/>
        <pt x="327" y="661" on="1"/>
        <pt x="266" y="661" on="0"/>
        <pt x="266" y="599" on="1"/>
        <pt x="266" y="552" on="1"/>
        <pt x="366" y="552" on="1"/>
        <pt x="366" y="404" on="1"/>
        <pt x="266" y="404" on="1"/>
        <pt x="266" y="0" on="1"/>
        <pt x="86" y="0" on="1"/>
        <pt x="86" y="404" on="1"/>
        <pt x="18" y="404" on="1"/>
        <pt x="18" y="552" on="1"/>
        <pt x="86" y="552" on="1"/>
        <pt x="86" y="620" on="1"/>
        <pt x="86" y="715" on="0"/>
        <pt x="190" y="801" on="0"/>
        <pt x="286" y="801" on="1"/>
        <pt x="307" y="801" on="0"/>
        <pt x="345" y="797" on="0"/>
        <pt x="362" y="794" on="1"/>
      </contour>
    </TTGlyph>
    <TTGlyph name="f_f" xMin="18" yMin="0" xMax="765" yMax="801">
      <component glyphName="f" x="0" y="0" flags="0x4"/>
      <component glyphName="f" x="381" y="0" flags="0x4"/>
    </TTGlyph>
    <TTGlyph name="f_f.flat" xMin="18" yMin="0" xMax="764" yMax="801">
      <component glyphName="f.flat" x="0" y="0" flags="0x4"/>
      <component glyphName="f.flat" x="380" y="0" flags="0x4"/>
    </TTGlyph>
    <TTGlyph name="f_f_i" xMin="18" yMin="0" xMax="995" yMax="803">
      <component glyphName="i" x="748" y="0" flags="0x4"/>
      <component glyphName="f" x="0" y="0" flags="0x4"/>
      <component glyphName="f" x="381" y="0" flags="0x4"/>
    </TTGlyph>
    <TTGlyph name="f_f_i.flat" xMin="18" yMin="0" xMax="994" yMax="803">
      <component glyphName="i" x="747" y="0" flags="0x4"/>
      <component glyphName="f.flat" x="0" y="0" flags="0x4"/>
      <component glyphName="f.flat" x="380" y="0" flags="0x4"/>
    </TTGlyph>
    <TTGlyph name="f_f_l" xMin="18" yMin="0" xMax="984" yMax="809">
      <component glyphName="l" x="748" y="0" flags="0x4"/>
      <component glyphName="f" x="0" y="0" flags="0x4"/>
      <component glyphName="f" x="381" y="0" flags="0x4"/>
    </TTGlyph>
    <TTGlyph name="f_f_l.flat" xMin="18" yMin="0" xMax="983" yMax="809">
      <component glyphName="l" x="747" y="0" flags="0x4"/>
      <component glyphName="f.flat" x="0" y="0" flags="0x4"/>
      <component glyphName="f.flat" x="380" y="0" flags="0x4"/>
    </TTGlyph>
    <TTGlyph name="fi" xMin="18" yMin="0" xMax="614" yMax="803">
      <component glyphName="i" x="367" y="0" flags="0x4"/>
      <component glyphName="f" x="0" y="0" flags="0x4"/>
    </TTGlyph>
</ttFont>
